M48
INCH,TZ
T1C0.025
%
G90
G05
T1
X65433Y-38504
X65827Y-43543
X66063Y-21811
X66063Y-24567
X66063Y-45354
X67087Y-39764
X67165Y-47244
X67244Y-43228
X67244Y-50551
X67795Y-45354
X68189Y-40630
X68268Y-47559
X68425Y-45669
X68819Y-21811
X68819Y-24567
X69843Y-45906
X70079Y-47244
X70472Y-28425
X70551Y-47559
X71142Y-44764
X71299Y-46693
X71811Y-45039
X71811Y-45827
X71890Y-47087
X72047Y-35217
X72283Y-49173
X72362Y-52244
X72441Y-47323
X72953Y-47323
X72992Y-48583
X73031Y-45827
X73228Y-45433
X73937Y-47165
X73976Y-53386
X74094Y-43858
X74094Y-44646
X74094Y-45118
X74488Y-39606
X74724Y-42598
X74724Y-47323
X74803Y-40157
X74803Y-41102
X74961Y-46299
X75197Y-40394
X75197Y-42677
X75197Y-47323
X75433Y-46693
X75748Y-31496
X75748Y-32520
X75984Y-24606
X76063Y-39528
X76142Y-38583
X76299Y-28504
X76378Y-23701
X76457Y-47402
X76772Y-40709
X76850Y-42205
X77323Y-40315
X77323Y-42362
X77402Y-43701
X77402Y-45197
X77638Y-40630
X77638Y-46772
X77717Y-42598
X77795Y-44331
X77874Y-43386
X78346Y-46142
X78583Y-37165
X78661Y-45748
X78740Y-24528
X79055Y-46693
X79213Y-30551
X79606Y-44764
X79606Y-46850
X79764Y-37953
X79843Y-25906
X79843Y-27402
X79921Y-45394
X80157Y-40472
X80157Y-51732
X80472Y-25906
X80472Y-27402
X80630Y-47874
X80945Y-30787
X81024Y-36772
X81339Y-48504
X81654Y-51732
X81772Y-53150
X81890Y-40472
X81969Y-39134
X82047Y-42677
X82382Y-23602
X82441Y-40866
X82520Y-47323
X82598Y-44252
X83071Y-46850
X83110Y-45591
X83110Y-46220
X83150Y-38583
X83150Y-43937
X83228Y-44803
X83307Y-50551
X83307Y-57008
X83543Y-40157
X83701Y-48898
X83858Y-53071
X84173Y-42598
X84173Y-43071
X84409Y-35039
X84488Y-41102
X84488Y-51339
X84646Y-47323
X84803Y-37953
X84803Y-41496
X84882Y-54882
X85276Y-30787
X85276Y-33307
X85512Y-42992
X85512Y-43465
X85512Y-45433
X85591Y-26693
X85748Y-35512
X85748Y-41339
X85827Y-32283
X86772Y-29134
X86772Y-45866
X86772Y-47992
X87087Y-55512
X87165Y-47008
X87244Y-45827
X87480Y-46614
X87559Y-38819
X87638Y-54724
X87795Y-45827
X88031Y-31260
X88504Y-38031
X88740Y-53150
X89134Y-38819
X89213Y-47402
X89449Y-31654
X89449Y-32126
X90000Y-36772
X90000Y-38740
X90394Y-37638
X90472Y-38976
X90866Y-32126
X90886Y-31634
X91102Y-26535
X91457Y-44449
X92598Y-27717
X92677Y-30551
X93228Y-47244
X94016Y-31102
X97323Y-40787
T0
M30
