G04 #@! TF.FileFunction,Legend,Top*
%FSLAX46Y46*%
G04 Gerber Fmt 4.6, Leading zero omitted, Abs format (unit mm)*
G04 Created by KiCad (PCBNEW (2015-01-16 BZR 5376)-product) date 3/2/2015 11:07:32 PM*
%MOMM*%
G01*
G04 APERTURE LIST*
%ADD10C,0.100000*%
%ADD11C,0.300000*%
%ADD12C,0.150000*%
%ADD13C,0.127000*%
%ADD14C,0.250000*%
%ADD15R,2.999740X2.349500*%
%ADD16R,2.000000X1.600000*%
%ADD17R,1.600000X2.000000*%
%ADD18R,1.700000X2.000000*%
%ADD19R,2.349500X2.999740*%
%ADD20R,2.000000X1.700000*%
%ADD21R,0.250000X1.000000*%
%ADD22R,1.000000X0.250000*%
%ADD23R,1.399540X0.599440*%
%ADD24R,1.600000X0.300000*%
%ADD25R,0.701040X1.000760*%
%ADD26R,1.000760X0.701040*%
%ADD27R,0.599440X1.399540*%
%ADD28R,2.997200X2.260600*%
%ADD29R,2.260600X2.997200*%
%ADD30R,5.499100X1.998980*%
%ADD31R,0.800000X0.800000*%
%ADD32R,1.100000X2.000000*%
%ADD33R,2.000000X1.100000*%
%ADD34R,1.600000X5.700000*%
%ADD35R,5.700000X1.600000*%
%ADD36R,1.270000X2.200000*%
%ADD37R,2.200000X1.270000*%
%ADD38C,5.999480*%
%ADD39R,0.800100X1.800860*%
%ADD40R,1.800860X0.800100*%
%ADD41C,6.858000*%
G04 APERTURE END LIST*
D10*
D11*
X168321429Y-70657144D02*
X169821429Y-70657144D01*
X168750000Y-71157144D01*
X169821429Y-71657144D01*
X168321429Y-71657144D01*
X168750000Y-72300001D02*
X168750000Y-73014287D01*
X168321429Y-72157144D02*
X169821429Y-72657144D01*
X168321429Y-73157144D01*
X169821429Y-73442858D02*
X168321429Y-73942858D01*
X169821429Y-74442858D01*
X168321429Y-75800001D02*
X169035714Y-75300001D01*
X168321429Y-74942858D02*
X169821429Y-74942858D01*
X169821429Y-75514286D01*
X169750000Y-75657144D01*
X169678571Y-75728572D01*
X169535714Y-75800001D01*
X169321429Y-75800001D01*
X169178571Y-75728572D01*
X169107143Y-75657144D01*
X169035714Y-75514286D01*
X169035714Y-74942858D01*
X168321429Y-76442858D02*
X169821429Y-76442858D01*
X168464286Y-78014287D02*
X168392857Y-77942858D01*
X168321429Y-77728572D01*
X168321429Y-77585715D01*
X168392857Y-77371430D01*
X168535714Y-77228572D01*
X168678571Y-77157144D01*
X168964286Y-77085715D01*
X169178571Y-77085715D01*
X169464286Y-77157144D01*
X169607143Y-77228572D01*
X169750000Y-77371430D01*
X169821429Y-77585715D01*
X169821429Y-77728572D01*
X169750000Y-77942858D01*
X169678571Y-78014287D01*
X168750000Y-79728572D02*
X168750000Y-80442858D01*
X168321429Y-79585715D02*
X169821429Y-80085715D01*
X168321429Y-80585715D01*
X168321429Y-81085715D02*
X169321429Y-81085715D01*
X169035714Y-81085715D02*
X169178571Y-81157143D01*
X169250000Y-81228572D01*
X169321429Y-81371429D01*
X169321429Y-81514286D01*
X168321429Y-82014286D02*
X169321429Y-82014286D01*
X169178571Y-82014286D02*
X169250000Y-82085714D01*
X169321429Y-82228572D01*
X169321429Y-82442857D01*
X169250000Y-82585714D01*
X169107143Y-82657143D01*
X168321429Y-82657143D01*
X169107143Y-82657143D02*
X169250000Y-82728572D01*
X169321429Y-82871429D01*
X169321429Y-83085714D01*
X169250000Y-83228572D01*
X169107143Y-83300000D01*
X168321429Y-83300000D01*
X169107143Y-85657143D02*
X169035714Y-85871429D01*
X168964286Y-85942857D01*
X168821429Y-86014286D01*
X168607143Y-86014286D01*
X168464286Y-85942857D01*
X168392857Y-85871429D01*
X168321429Y-85728571D01*
X168321429Y-85157143D01*
X169821429Y-85157143D01*
X169821429Y-85657143D01*
X169750000Y-85800000D01*
X169678571Y-85871429D01*
X169535714Y-85942857D01*
X169392857Y-85942857D01*
X169250000Y-85871429D01*
X169178571Y-85800000D01*
X169107143Y-85657143D01*
X169107143Y-85157143D01*
X168321429Y-86871429D02*
X168392857Y-86728571D01*
X168464286Y-86657143D01*
X168607143Y-86585714D01*
X169035714Y-86585714D01*
X169178571Y-86657143D01*
X169250000Y-86728571D01*
X169321429Y-86871429D01*
X169321429Y-87085714D01*
X169250000Y-87228571D01*
X169178571Y-87300000D01*
X169035714Y-87371429D01*
X168607143Y-87371429D01*
X168464286Y-87300000D01*
X168392857Y-87228571D01*
X168321429Y-87085714D01*
X168321429Y-86871429D01*
X168321429Y-88657143D02*
X169107143Y-88657143D01*
X169250000Y-88585714D01*
X169321429Y-88442857D01*
X169321429Y-88157143D01*
X169250000Y-88014286D01*
X168392857Y-88657143D02*
X168321429Y-88514286D01*
X168321429Y-88157143D01*
X168392857Y-88014286D01*
X168535714Y-87942857D01*
X168678571Y-87942857D01*
X168821429Y-88014286D01*
X168892857Y-88157143D01*
X168892857Y-88514286D01*
X168964286Y-88657143D01*
X168321429Y-89371429D02*
X169321429Y-89371429D01*
X169035714Y-89371429D02*
X169178571Y-89442857D01*
X169250000Y-89514286D01*
X169321429Y-89657143D01*
X169321429Y-89800000D01*
X168321429Y-90942857D02*
X169821429Y-90942857D01*
X168392857Y-90942857D02*
X168321429Y-90800000D01*
X168321429Y-90514286D01*
X168392857Y-90371428D01*
X168464286Y-90300000D01*
X168607143Y-90228571D01*
X169035714Y-90228571D01*
X169178571Y-90300000D01*
X169250000Y-90371428D01*
X169321429Y-90514286D01*
X169321429Y-90800000D01*
X169250000Y-90942857D01*
X165921429Y-72264287D02*
X166635714Y-71764287D01*
X165921429Y-71407144D02*
X167421429Y-71407144D01*
X167421429Y-71978572D01*
X167350000Y-72121430D01*
X167278571Y-72192858D01*
X167135714Y-72264287D01*
X166921429Y-72264287D01*
X166778571Y-72192858D01*
X166707143Y-72121430D01*
X166635714Y-71978572D01*
X166635714Y-71407144D01*
X165992857Y-73478572D02*
X165921429Y-73335715D01*
X165921429Y-73050001D01*
X165992857Y-72907144D01*
X166135714Y-72835715D01*
X166707143Y-72835715D01*
X166850000Y-72907144D01*
X166921429Y-73050001D01*
X166921429Y-73335715D01*
X166850000Y-73478572D01*
X166707143Y-73550001D01*
X166564286Y-73550001D01*
X166421429Y-72835715D01*
X166921429Y-74050001D02*
X165921429Y-74407144D01*
X166921429Y-74764286D01*
X166064286Y-75335715D02*
X165992857Y-75407143D01*
X165921429Y-75335715D01*
X165992857Y-75264286D01*
X166064286Y-75335715D01*
X165921429Y-75335715D01*
X165921429Y-77978572D02*
X165921429Y-77121429D01*
X165921429Y-77550001D02*
X167421429Y-77550001D01*
X167207143Y-77407144D01*
X167064286Y-77264286D01*
X166992857Y-77121429D01*
X167278571Y-81978571D02*
X167350000Y-82050000D01*
X167421429Y-82192857D01*
X167421429Y-82550000D01*
X167350000Y-82692857D01*
X167278571Y-82764286D01*
X167135714Y-82835714D01*
X166992857Y-82835714D01*
X166778571Y-82764286D01*
X165921429Y-81907143D01*
X165921429Y-82835714D01*
X167492857Y-84549999D02*
X165564286Y-83264285D01*
X167278571Y-84978571D02*
X167350000Y-85050000D01*
X167421429Y-85192857D01*
X167421429Y-85550000D01*
X167350000Y-85692857D01*
X167278571Y-85764286D01*
X167135714Y-85835714D01*
X166992857Y-85835714D01*
X166778571Y-85764286D01*
X165921429Y-84907143D01*
X165921429Y-85835714D01*
X167492857Y-87549999D02*
X165564286Y-86264285D01*
X165921429Y-88835714D02*
X165921429Y-87978571D01*
X165921429Y-88407143D02*
X167421429Y-88407143D01*
X167207143Y-88264286D01*
X167064286Y-88121428D01*
X166992857Y-87978571D01*
X167421429Y-90192857D02*
X167421429Y-89478571D01*
X166707143Y-89407142D01*
X166778571Y-89478571D01*
X166850000Y-89621428D01*
X166850000Y-89978571D01*
X166778571Y-90121428D01*
X166707143Y-90192857D01*
X166564286Y-90264285D01*
X166207143Y-90264285D01*
X166064286Y-90192857D01*
X165992857Y-90121428D01*
X165921429Y-89978571D01*
X165921429Y-89621428D01*
X165992857Y-89478571D01*
X166064286Y-89407142D01*
D12*
X198300300Y-144649840D02*
X199199460Y-144649840D01*
X193499700Y-137050160D02*
X192600540Y-137050160D01*
X192600540Y-137050160D02*
X192600540Y-144649840D01*
X192600540Y-144649840D02*
X193499700Y-144649840D01*
X199199460Y-144649840D02*
X199199460Y-137050160D01*
X199199460Y-137050160D02*
X198300300Y-137050160D01*
X191200000Y-111025000D02*
X193200000Y-111025000D01*
X193200000Y-108975000D02*
X191200000Y-108975000D01*
X210900000Y-95225000D02*
X208900000Y-95225000D01*
X208900000Y-97275000D02*
X210900000Y-97275000D01*
X215275000Y-83510000D02*
X215275000Y-85510000D01*
X217325000Y-85510000D02*
X217325000Y-83510000D01*
X212525000Y-83460000D02*
X212525000Y-85460000D01*
X214575000Y-85460000D02*
X214575000Y-83460000D01*
X201700000Y-97275000D02*
X203700000Y-97275000D01*
X203700000Y-95225000D02*
X201700000Y-95225000D01*
X209775000Y-83460000D02*
X209775000Y-85460000D01*
X211825000Y-85460000D02*
X211825000Y-83460000D01*
X207025000Y-83460000D02*
X207025000Y-85460000D01*
X209075000Y-85460000D02*
X209075000Y-83460000D01*
X204275000Y-83460000D02*
X204275000Y-85460000D01*
X206325000Y-85460000D02*
X206325000Y-83460000D01*
X201525000Y-83460000D02*
X201525000Y-85460000D01*
X203575000Y-85460000D02*
X203575000Y-83460000D01*
X198775000Y-83460000D02*
X198775000Y-85460000D01*
X200825000Y-85460000D02*
X200825000Y-83460000D01*
X194160000Y-94525000D02*
X196160000Y-94525000D01*
X196160000Y-92475000D02*
X194160000Y-92475000D01*
X194160000Y-97275000D02*
X196160000Y-97275000D01*
X196160000Y-95225000D02*
X194160000Y-95225000D01*
X174465000Y-99710000D02*
X176465000Y-99710000D01*
X176465000Y-97660000D02*
X174465000Y-97660000D01*
X241565000Y-91190000D02*
X241565000Y-93190000D01*
X243615000Y-93190000D02*
X243615000Y-91190000D01*
X176465000Y-100410000D02*
X174465000Y-100410000D01*
X174465000Y-102460000D02*
X176465000Y-102460000D01*
X241115000Y-93190000D02*
X241115000Y-91190000D01*
X239065000Y-91190000D02*
X239065000Y-93190000D01*
X166190000Y-103185000D02*
X166190000Y-105185000D01*
X168240000Y-105185000D02*
X168240000Y-103185000D01*
X238590000Y-82165000D02*
X236590000Y-82165000D01*
X236590000Y-84215000D02*
X238590000Y-84215000D01*
X193250000Y-58975000D02*
X195250000Y-58975000D01*
X195250000Y-56925000D02*
X193250000Y-56925000D01*
X238725000Y-70950000D02*
X238725000Y-72950000D01*
X240775000Y-72950000D02*
X240775000Y-70950000D01*
X188225000Y-57450000D02*
X188225000Y-59450000D01*
X190275000Y-59450000D02*
X190275000Y-57450000D01*
X240250000Y-65925000D02*
X238250000Y-65925000D01*
X238250000Y-67975000D02*
X240250000Y-67975000D01*
X183000000Y-62225000D02*
X185000000Y-62225000D01*
X185000000Y-60175000D02*
X183000000Y-60175000D01*
X235975000Y-60700000D02*
X235975000Y-62700000D01*
X238025000Y-62700000D02*
X238025000Y-60700000D01*
X183725000Y-65450000D02*
X183725000Y-67450000D01*
X185775000Y-67450000D02*
X185775000Y-65450000D01*
X232500000Y-61175000D02*
X230500000Y-61175000D01*
X230500000Y-63225000D02*
X232500000Y-63225000D01*
X193725000Y-65200000D02*
X193725000Y-67200000D01*
X195775000Y-67200000D02*
X195775000Y-65200000D01*
X180975000Y-65450000D02*
X180975000Y-67450000D01*
X183025000Y-67450000D02*
X183025000Y-65450000D01*
X232500000Y-71175000D02*
X230500000Y-71175000D01*
X230500000Y-73225000D02*
X232500000Y-73225000D01*
X232500000Y-58425000D02*
X230500000Y-58425000D01*
X230500000Y-60475000D02*
X232500000Y-60475000D01*
X192775000Y-75200000D02*
X192775000Y-73200000D01*
X190725000Y-73200000D02*
X190725000Y-75200000D01*
X223000000Y-69475000D02*
X225000000Y-69475000D01*
X225000000Y-67425000D02*
X223000000Y-67425000D01*
X196475000Y-65200000D02*
X196475000Y-67200000D01*
X198525000Y-67200000D02*
X198525000Y-65200000D01*
X232500000Y-73925000D02*
X230500000Y-73925000D01*
X230500000Y-75975000D02*
X232500000Y-75975000D01*
X222175000Y-142750000D02*
X220175000Y-142750000D01*
X220175000Y-144800000D02*
X222175000Y-144800000D01*
X180175000Y-132850000D02*
X180175000Y-130850000D01*
X178125000Y-130850000D02*
X178125000Y-132850000D01*
X227200000Y-144025000D02*
X227200000Y-142025000D01*
X225150000Y-142025000D02*
X225150000Y-144025000D01*
X178900000Y-137875000D02*
X180900000Y-137875000D01*
X180900000Y-135825000D02*
X178900000Y-135825000D01*
X232175000Y-139750000D02*
X230175000Y-139750000D01*
X230175000Y-141800000D02*
X232175000Y-141800000D01*
X183175000Y-142850000D02*
X183175000Y-140850000D01*
X181125000Y-140850000D02*
X181125000Y-142850000D01*
X231450000Y-136525000D02*
X231450000Y-134525000D01*
X229400000Y-134525000D02*
X229400000Y-136525000D01*
X186900000Y-141875000D02*
X188900000Y-141875000D01*
X188900000Y-139825000D02*
X186900000Y-139825000D01*
X221950000Y-136025000D02*
X221950000Y-134025000D01*
X219900000Y-134025000D02*
X219900000Y-136025000D01*
X234200000Y-136525000D02*
X234200000Y-134525000D01*
X232150000Y-134525000D02*
X232150000Y-136525000D01*
X186650000Y-131875000D02*
X188650000Y-131875000D01*
X188650000Y-129825000D02*
X186650000Y-129825000D01*
X186900000Y-144625000D02*
X188900000Y-144625000D01*
X188900000Y-142575000D02*
X186900000Y-142575000D01*
X223400000Y-126525000D02*
X223400000Y-128525000D01*
X225450000Y-128525000D02*
X225450000Y-126525000D01*
X196150000Y-133575000D02*
X194150000Y-133575000D01*
X194150000Y-135625000D02*
X196150000Y-135625000D01*
X219200000Y-136025000D02*
X219200000Y-134025000D01*
X217150000Y-134025000D02*
X217150000Y-136025000D01*
X186650000Y-128875000D02*
X188650000Y-128875000D01*
X188650000Y-126825000D02*
X186650000Y-126825000D01*
X196085000Y-89500000D02*
X196085000Y-87500000D01*
X198235000Y-87500000D02*
X198235000Y-89500000D01*
X181450160Y-76600300D02*
X181450160Y-77499460D01*
X189049840Y-71799700D02*
X189049840Y-70900540D01*
X189049840Y-70900540D02*
X181450160Y-70900540D01*
X181450160Y-70900540D02*
X181450160Y-71799700D01*
X181450160Y-77499460D02*
X189049840Y-77499460D01*
X189049840Y-77499460D02*
X189049840Y-76600300D01*
X221599700Y-58650160D02*
X220700540Y-58650160D01*
X226400300Y-66249840D02*
X227299460Y-66249840D01*
X227299460Y-66249840D02*
X227299460Y-58650160D01*
X227299460Y-58650160D02*
X226400300Y-58650160D01*
X220700540Y-58650160D02*
X220700540Y-66249840D01*
X220700540Y-66249840D02*
X221599700Y-66249840D01*
X233974840Y-125124700D02*
X233974840Y-124225540D01*
X226375160Y-129925300D02*
X226375160Y-130824460D01*
X226375160Y-130824460D02*
X233974840Y-130824460D01*
X233974840Y-130824460D02*
X233974840Y-129925300D01*
X233974840Y-124225540D02*
X226375160Y-124225540D01*
X226375160Y-124225540D02*
X226375160Y-125124700D01*
X174465000Y-94860000D02*
X176465000Y-94860000D01*
X176465000Y-97010000D02*
X174465000Y-97010000D01*
X174465000Y-92110000D02*
X176465000Y-92110000D01*
X176465000Y-94260000D02*
X174465000Y-94260000D01*
X246415000Y-91190000D02*
X246415000Y-93190000D01*
X244265000Y-93190000D02*
X244265000Y-91190000D01*
X249165000Y-91190000D02*
X249165000Y-93190000D01*
X247015000Y-93190000D02*
X247015000Y-91190000D01*
X193250000Y-54125000D02*
X195250000Y-54125000D01*
X195250000Y-56275000D02*
X193250000Y-56275000D01*
X243575000Y-70950000D02*
X243575000Y-72950000D01*
X241425000Y-72950000D02*
X241425000Y-70950000D01*
X195250000Y-61775000D02*
X193250000Y-61775000D01*
X193250000Y-59625000D02*
X195250000Y-59625000D01*
X235925000Y-72950000D02*
X235925000Y-70950000D01*
X238075000Y-70950000D02*
X238075000Y-72950000D01*
X199175000Y-67200000D02*
X199175000Y-65200000D01*
X201325000Y-65200000D02*
X201325000Y-67200000D01*
X230500000Y-76625000D02*
X232500000Y-76625000D01*
X232500000Y-78775000D02*
X230500000Y-78775000D01*
X222175000Y-147600000D02*
X220175000Y-147600000D01*
X220175000Y-145450000D02*
X222175000Y-145450000D01*
X175325000Y-132850000D02*
X175325000Y-130850000D01*
X177475000Y-130850000D02*
X177475000Y-132850000D01*
X220175000Y-139950000D02*
X222175000Y-139950000D01*
X222175000Y-142100000D02*
X220175000Y-142100000D01*
X182975000Y-130850000D02*
X182975000Y-132850000D01*
X180825000Y-132850000D02*
X180825000Y-130850000D01*
X216500000Y-134025000D02*
X216500000Y-136025000D01*
X214350000Y-136025000D02*
X214350000Y-134025000D01*
X188650000Y-125925000D02*
X186650000Y-125925000D01*
X186650000Y-123775000D02*
X188650000Y-123775000D01*
X210275000Y-101375000D02*
X209200000Y-101375000D01*
X210275000Y-111725000D02*
X209200000Y-111725000D01*
X199925000Y-111725000D02*
X201000000Y-111725000D01*
X199925000Y-101375000D02*
X201000000Y-101375000D01*
X210275000Y-101375000D02*
X210275000Y-102450000D01*
X199925000Y-101375000D02*
X199925000Y-102450000D01*
X199925000Y-111725000D02*
X199925000Y-110650000D01*
X210275000Y-111725000D02*
X210275000Y-110650000D01*
X209200000Y-101375000D02*
X209200000Y-100350000D01*
X194178000Y-116867000D02*
X194305000Y-116867000D01*
X194305000Y-116867000D02*
X194305000Y-111533000D01*
X190495000Y-111533000D02*
X190495000Y-116867000D01*
X190495000Y-116867000D02*
X194178000Y-116867000D01*
X191892000Y-116867000D02*
X191892000Y-116359000D01*
X191892000Y-116359000D02*
X192908000Y-116359000D01*
X192908000Y-116359000D02*
X192908000Y-116867000D01*
X190495000Y-111533000D02*
X194305000Y-111533000D01*
D13*
X214800000Y-115150000D02*
G75*
G03X214800000Y-115150000I-300000J0D01*
G01*
X218100000Y-114350000D02*
X218100000Y-120850000D01*
X218100000Y-120850000D02*
X213700000Y-120850000D01*
X213700000Y-120850000D02*
X213700000Y-114350000D01*
X213700000Y-114350000D02*
X218100000Y-114350000D01*
D14*
X218170000Y-114675000D02*
X218990000Y-114675000D01*
X218170000Y-115325000D02*
X218990000Y-115325000D01*
X218170000Y-115975000D02*
X218990000Y-115975000D01*
X218170000Y-116625000D02*
X218990000Y-116625000D01*
X218170000Y-117275000D02*
X218990000Y-117275000D01*
X218170000Y-117925000D02*
X218990000Y-117925000D01*
X218170000Y-118575000D02*
X218990000Y-118575000D01*
X218170000Y-119225000D02*
X218990000Y-119225000D01*
X218170000Y-119875000D02*
X218990000Y-119875000D01*
X218170000Y-120525000D02*
X218990000Y-120525000D01*
X213630000Y-114675000D02*
X212810000Y-114675000D01*
X213630000Y-115325000D02*
X212810000Y-115325000D01*
X213630000Y-115975000D02*
X212810000Y-115975000D01*
X213630000Y-116625000D02*
X212810000Y-116625000D01*
X213630000Y-117275000D02*
X212810000Y-117275000D01*
X213630000Y-117925000D02*
X212810000Y-117925000D01*
X213630000Y-118575000D02*
X212810000Y-118575000D01*
X213630000Y-119225000D02*
X212810000Y-119225000D01*
X213630000Y-119875000D02*
X212810000Y-119875000D01*
X213630000Y-120525000D02*
X212810000Y-120525000D01*
D12*
X170723000Y-103673000D02*
X171485000Y-104181000D01*
X168945000Y-103673000D02*
X171548500Y-103673000D01*
X171548500Y-103673000D02*
X171548500Y-105197000D01*
X171548500Y-105197000D02*
X168945000Y-105197000D01*
X168945000Y-105197000D02*
X168945000Y-103673000D01*
X238602000Y-86948000D02*
X238094000Y-87710000D01*
X238602000Y-85170000D02*
X238602000Y-87773500D01*
X238602000Y-87773500D02*
X237078000Y-87773500D01*
X237078000Y-87773500D02*
X237078000Y-85170000D01*
X237078000Y-85170000D02*
X238602000Y-85170000D01*
X187299980Y-64799000D02*
X192649220Y-64799000D01*
X192649220Y-68101000D02*
X187299980Y-68101000D01*
X187299980Y-68101000D02*
X187299980Y-64799000D01*
X192649220Y-68101000D02*
X192649220Y-64799000D01*
X192667000Y-66958000D02*
X192159000Y-66958000D01*
X192159000Y-66958000D02*
X192159000Y-65942000D01*
X192159000Y-65942000D02*
X192667000Y-65942000D01*
X233151000Y-64749980D02*
X233151000Y-70099220D01*
X229849000Y-70099220D02*
X229849000Y-64749980D01*
X229849000Y-64749980D02*
X233151000Y-64749980D01*
X229849000Y-70099220D02*
X233151000Y-70099220D01*
X230992000Y-70117000D02*
X230992000Y-69609000D01*
X230992000Y-69609000D02*
X232008000Y-69609000D01*
X232008000Y-69609000D02*
X232008000Y-70117000D01*
X228125020Y-136676000D02*
X222775780Y-136676000D01*
X222775780Y-133374000D02*
X228125020Y-133374000D01*
X228125020Y-133374000D02*
X228125020Y-136676000D01*
X222775780Y-133374000D02*
X222775780Y-136676000D01*
X222758000Y-134517000D02*
X223266000Y-134517000D01*
X223266000Y-134517000D02*
X223266000Y-135533000D01*
X223266000Y-135533000D02*
X222758000Y-135533000D01*
X186249000Y-138300020D02*
X186249000Y-132950780D01*
X189551000Y-132950780D02*
X189551000Y-138300020D01*
X189551000Y-138300020D02*
X186249000Y-138300020D01*
X189551000Y-132950780D02*
X186249000Y-132950780D01*
X188408000Y-132933000D02*
X188408000Y-133441000D01*
X188408000Y-133441000D02*
X187392000Y-133441000D01*
X187392000Y-133441000D02*
X187392000Y-132933000D01*
X211453000Y-93901000D02*
X211453000Y-93520000D01*
X211453000Y-90599000D02*
X211453000Y-90980000D01*
X201547000Y-90599000D02*
X201547000Y-90980000D01*
X201547000Y-93901000D02*
X201547000Y-93520000D01*
X200785000Y-94790000D02*
X200785000Y-93520000D01*
X200785000Y-89710000D02*
X200785000Y-90980000D01*
X212215000Y-89710000D02*
X212215000Y-90980000D01*
X212215000Y-94790000D02*
X212215000Y-93520000D01*
X211453000Y-90599000D02*
X210818000Y-89964000D01*
X210818000Y-89964000D02*
X202182000Y-89964000D01*
X202182000Y-89964000D02*
X201547000Y-90599000D01*
X201547000Y-93901000D02*
X202182000Y-94536000D01*
X202182000Y-94536000D02*
X210818000Y-94536000D01*
X210818000Y-94536000D02*
X211453000Y-93901000D01*
X200785000Y-89710000D02*
X212215000Y-89710000D01*
X212215000Y-94790000D02*
X200785000Y-94790000D01*
X172215000Y-104685000D02*
X172215000Y-104185000D01*
X172215000Y-104185000D02*
X172715000Y-104185000D01*
X174215000Y-104685000D02*
X174215000Y-104185000D01*
X174215000Y-104185000D02*
X173715000Y-104185000D01*
X173915000Y-107185000D02*
X173915000Y-107085000D01*
X173915000Y-107085000D02*
X174115000Y-107085000D01*
X172315000Y-107085000D02*
X172515000Y-107085000D01*
X172515000Y-107085000D02*
X172515000Y-107185000D01*
X172215000Y-107185000D02*
X172515000Y-107185000D01*
X172515000Y-107185000D02*
X172515000Y-107285000D01*
X172515000Y-107285000D02*
X172215000Y-107285000D01*
X172215000Y-107285000D02*
X172215000Y-107185000D01*
X174215000Y-107285000D02*
X173915000Y-107285000D01*
X173915000Y-107285000D02*
X173915000Y-107185000D01*
X173915000Y-107185000D02*
X174215000Y-107185000D01*
X174215000Y-107185000D02*
X174215000Y-107285000D01*
X174215000Y-107185000D02*
X174215000Y-104685000D01*
X172215000Y-107185000D02*
X172215000Y-104685000D01*
X237340000Y-88940000D02*
X237840000Y-88940000D01*
X237840000Y-88940000D02*
X237840000Y-89440000D01*
X237340000Y-90940000D02*
X237840000Y-90940000D01*
X237840000Y-90940000D02*
X237840000Y-90440000D01*
X234840000Y-90640000D02*
X234940000Y-90640000D01*
X234940000Y-90640000D02*
X234940000Y-90840000D01*
X234940000Y-89040000D02*
X234940000Y-89240000D01*
X234940000Y-89240000D02*
X234840000Y-89240000D01*
X234840000Y-88940000D02*
X234840000Y-89240000D01*
X234840000Y-89240000D02*
X234740000Y-89240000D01*
X234740000Y-89240000D02*
X234740000Y-88940000D01*
X234740000Y-88940000D02*
X234840000Y-88940000D01*
X234740000Y-90940000D02*
X234740000Y-90640000D01*
X234740000Y-90640000D02*
X234840000Y-90640000D01*
X234840000Y-90640000D02*
X234840000Y-90940000D01*
X234840000Y-90940000D02*
X234740000Y-90940000D01*
X234840000Y-90940000D02*
X237340000Y-90940000D01*
X234840000Y-88940000D02*
X237340000Y-88940000D01*
X180465000Y-103435000D02*
X180465000Y-102935000D01*
X180465000Y-102935000D02*
X175465000Y-102935000D01*
X175465000Y-102935000D02*
X175465000Y-103435000D01*
X180465000Y-109435000D02*
X180465000Y-109935000D01*
X180465000Y-109935000D02*
X175465000Y-109935000D01*
X175465000Y-109935000D02*
X175465000Y-109435000D01*
X237590000Y-97690000D02*
X238090000Y-97690000D01*
X238090000Y-97690000D02*
X238090000Y-92690000D01*
X238090000Y-92690000D02*
X237590000Y-92690000D01*
X231590000Y-97690000D02*
X231090000Y-97690000D01*
X231090000Y-97690000D02*
X231090000Y-92690000D01*
X231090000Y-92690000D02*
X231590000Y-92690000D01*
X190052000Y-85430000D02*
X190560000Y-85430000D01*
X190560000Y-85430000D02*
X190560000Y-87970000D01*
X190560000Y-87970000D02*
X188020000Y-87970000D01*
X188020000Y-85430000D02*
X188528000Y-85430000D01*
X185480000Y-87970000D02*
X185988000Y-87970000D01*
X185480000Y-85430000D02*
X188020000Y-85430000D01*
X188020000Y-85430000D02*
X188020000Y-87970000D01*
X188020000Y-87970000D02*
X187512000Y-87970000D01*
X182940000Y-85430000D02*
X182940000Y-87970000D01*
X182940000Y-87970000D02*
X185480000Y-87970000D01*
X185480000Y-87970000D02*
X185480000Y-85430000D01*
X185480000Y-85430000D02*
X184972000Y-85430000D01*
X182940000Y-85430000D02*
X183448000Y-85430000D01*
X189163000Y-86573000D02*
X189163000Y-86827000D01*
X189163000Y-86827000D02*
X189417000Y-86827000D01*
X189417000Y-86827000D02*
X189417000Y-86573000D01*
X189417000Y-86573000D02*
X189163000Y-86573000D01*
X186623000Y-86573000D02*
X186623000Y-86827000D01*
X186623000Y-86827000D02*
X186877000Y-86827000D01*
X186877000Y-86827000D02*
X186877000Y-86573000D01*
X186877000Y-86573000D02*
X186623000Y-86573000D01*
X186623000Y-86573000D02*
X186750000Y-86573000D01*
X184083000Y-86573000D02*
X184083000Y-86827000D01*
X184083000Y-86827000D02*
X184337000Y-86827000D01*
X184337000Y-86827000D02*
X184337000Y-86573000D01*
X184337000Y-86573000D02*
X184083000Y-86573000D01*
X239298000Y-113470000D02*
X238790000Y-113470000D01*
X238790000Y-113470000D02*
X238790000Y-110930000D01*
X238790000Y-110930000D02*
X241330000Y-110930000D01*
X241330000Y-113470000D02*
X240822000Y-113470000D01*
X243870000Y-110930000D02*
X243362000Y-110930000D01*
X243870000Y-113470000D02*
X241330000Y-113470000D01*
X241330000Y-113470000D02*
X241330000Y-110930000D01*
X241330000Y-110930000D02*
X241838000Y-110930000D01*
X246410000Y-113470000D02*
X246410000Y-110930000D01*
X246410000Y-110930000D02*
X243870000Y-110930000D01*
X243870000Y-110930000D02*
X243870000Y-113470000D01*
X243870000Y-113470000D02*
X244378000Y-113470000D01*
X246410000Y-113470000D02*
X245902000Y-113470000D01*
X240187000Y-112327000D02*
X240187000Y-112073000D01*
X240187000Y-112073000D02*
X239933000Y-112073000D01*
X239933000Y-112073000D02*
X239933000Y-112327000D01*
X239933000Y-112327000D02*
X240187000Y-112327000D01*
X242727000Y-112327000D02*
X242727000Y-112073000D01*
X242727000Y-112073000D02*
X242473000Y-112073000D01*
X242473000Y-112073000D02*
X242473000Y-112327000D01*
X242473000Y-112327000D02*
X242727000Y-112327000D01*
X242727000Y-112327000D02*
X242600000Y-112327000D01*
X245267000Y-112327000D02*
X245267000Y-112073000D01*
X245267000Y-112073000D02*
X245013000Y-112073000D01*
X245013000Y-112073000D02*
X245013000Y-112327000D01*
X245013000Y-112327000D02*
X245267000Y-112327000D01*
X212770000Y-67252000D02*
X212770000Y-67760000D01*
X212770000Y-67760000D02*
X210230000Y-67760000D01*
X210230000Y-67760000D02*
X210230000Y-65220000D01*
X212770000Y-65220000D02*
X212770000Y-65728000D01*
X210230000Y-62680000D02*
X210230000Y-63188000D01*
X212770000Y-62680000D02*
X212770000Y-65220000D01*
X212770000Y-65220000D02*
X210230000Y-65220000D01*
X210230000Y-65220000D02*
X210230000Y-64712000D01*
X212770000Y-60140000D02*
X210230000Y-60140000D01*
X210230000Y-60140000D02*
X210230000Y-62680000D01*
X210230000Y-62680000D02*
X212770000Y-62680000D01*
X212770000Y-62680000D02*
X212770000Y-62172000D01*
X212770000Y-60140000D02*
X212770000Y-60648000D01*
X211627000Y-66363000D02*
X211373000Y-66363000D01*
X211373000Y-66363000D02*
X211373000Y-66617000D01*
X211373000Y-66617000D02*
X211627000Y-66617000D01*
X211627000Y-66617000D02*
X211627000Y-66363000D01*
X211627000Y-63823000D02*
X211373000Y-63823000D01*
X211373000Y-63823000D02*
X211373000Y-64077000D01*
X211373000Y-64077000D02*
X211627000Y-64077000D01*
X211627000Y-64077000D02*
X211627000Y-63823000D01*
X211627000Y-63823000D02*
X211627000Y-63950000D01*
X211627000Y-61283000D02*
X211373000Y-61283000D01*
X211373000Y-61283000D02*
X211373000Y-61537000D01*
X211373000Y-61537000D02*
X211627000Y-61537000D01*
X211627000Y-61537000D02*
X211627000Y-61283000D01*
X239298000Y-119870000D02*
X238790000Y-119870000D01*
X238790000Y-119870000D02*
X238790000Y-117330000D01*
X238790000Y-117330000D02*
X241330000Y-117330000D01*
X241330000Y-119870000D02*
X240822000Y-119870000D01*
X243870000Y-117330000D02*
X243362000Y-117330000D01*
X243870000Y-119870000D02*
X241330000Y-119870000D01*
X241330000Y-119870000D02*
X241330000Y-117330000D01*
X241330000Y-117330000D02*
X241838000Y-117330000D01*
X246410000Y-119870000D02*
X246410000Y-117330000D01*
X246410000Y-117330000D02*
X243870000Y-117330000D01*
X243870000Y-117330000D02*
X243870000Y-119870000D01*
X243870000Y-119870000D02*
X244378000Y-119870000D01*
X246410000Y-119870000D02*
X245902000Y-119870000D01*
X240187000Y-118727000D02*
X240187000Y-118473000D01*
X240187000Y-118473000D02*
X239933000Y-118473000D01*
X239933000Y-118473000D02*
X239933000Y-118727000D01*
X239933000Y-118727000D02*
X240187000Y-118727000D01*
X242727000Y-118727000D02*
X242727000Y-118473000D01*
X242727000Y-118473000D02*
X242473000Y-118473000D01*
X242473000Y-118473000D02*
X242473000Y-118727000D01*
X242473000Y-118727000D02*
X242727000Y-118727000D01*
X242727000Y-118727000D02*
X242600000Y-118727000D01*
X245267000Y-118727000D02*
X245267000Y-118473000D01*
X245267000Y-118473000D02*
X245013000Y-118473000D01*
X245013000Y-118473000D02*
X245013000Y-118727000D01*
X245013000Y-118727000D02*
X245267000Y-118727000D01*
X239288000Y-100460000D02*
X238780000Y-100460000D01*
X238780000Y-100460000D02*
X238780000Y-97920000D01*
X238780000Y-97920000D02*
X241320000Y-97920000D01*
X241320000Y-100460000D02*
X240812000Y-100460000D01*
X243860000Y-97920000D02*
X243352000Y-97920000D01*
X243860000Y-100460000D02*
X241320000Y-100460000D01*
X241320000Y-100460000D02*
X241320000Y-97920000D01*
X241320000Y-97920000D02*
X241828000Y-97920000D01*
X246400000Y-100460000D02*
X246400000Y-97920000D01*
X246400000Y-97920000D02*
X243860000Y-97920000D01*
X243860000Y-97920000D02*
X243860000Y-100460000D01*
X243860000Y-100460000D02*
X244368000Y-100460000D01*
X246400000Y-100460000D02*
X245892000Y-100460000D01*
X240177000Y-99317000D02*
X240177000Y-99063000D01*
X240177000Y-99063000D02*
X239923000Y-99063000D01*
X239923000Y-99063000D02*
X239923000Y-99317000D01*
X239923000Y-99317000D02*
X240177000Y-99317000D01*
X242717000Y-99317000D02*
X242717000Y-99063000D01*
X242717000Y-99063000D02*
X242463000Y-99063000D01*
X242463000Y-99063000D02*
X242463000Y-99317000D01*
X242463000Y-99317000D02*
X242717000Y-99317000D01*
X242717000Y-99317000D02*
X242590000Y-99317000D01*
X245257000Y-99317000D02*
X245257000Y-99063000D01*
X245257000Y-99063000D02*
X245003000Y-99063000D01*
X245003000Y-99063000D02*
X245003000Y-99317000D01*
X245003000Y-99317000D02*
X245257000Y-99317000D01*
X207130000Y-138048000D02*
X207130000Y-137540000D01*
X207130000Y-137540000D02*
X209670000Y-137540000D01*
X209670000Y-137540000D02*
X209670000Y-140080000D01*
X207130000Y-140080000D02*
X207130000Y-139572000D01*
X209670000Y-142620000D02*
X209670000Y-142112000D01*
X207130000Y-142620000D02*
X207130000Y-140080000D01*
X207130000Y-140080000D02*
X209670000Y-140080000D01*
X209670000Y-140080000D02*
X209670000Y-140588000D01*
X207130000Y-145160000D02*
X209670000Y-145160000D01*
X209670000Y-145160000D02*
X209670000Y-142620000D01*
X209670000Y-142620000D02*
X207130000Y-142620000D01*
X207130000Y-142620000D02*
X207130000Y-143128000D01*
X207130000Y-145160000D02*
X207130000Y-144652000D01*
X208273000Y-138937000D02*
X208527000Y-138937000D01*
X208527000Y-138937000D02*
X208527000Y-138683000D01*
X208527000Y-138683000D02*
X208273000Y-138683000D01*
X208273000Y-138683000D02*
X208273000Y-138937000D01*
X208273000Y-141477000D02*
X208527000Y-141477000D01*
X208527000Y-141477000D02*
X208527000Y-141223000D01*
X208527000Y-141223000D02*
X208273000Y-141223000D01*
X208273000Y-141223000D02*
X208273000Y-141477000D01*
X208273000Y-141477000D02*
X208273000Y-141350000D01*
X208273000Y-144017000D02*
X208527000Y-144017000D01*
X208527000Y-144017000D02*
X208527000Y-143763000D01*
X208527000Y-143763000D02*
X208273000Y-143763000D01*
X208273000Y-143763000D02*
X208273000Y-144017000D01*
X221270000Y-111280000D02*
X218730000Y-111280000D01*
X218730000Y-111280000D02*
X218730000Y-111788000D01*
X221270000Y-111280000D02*
X221270000Y-113820000D01*
X221270000Y-113820000D02*
X218730000Y-113820000D01*
X218730000Y-113820000D02*
X218730000Y-113312000D01*
X218730000Y-111280000D02*
X221270000Y-111280000D01*
X220127000Y-112423000D02*
X219873000Y-112423000D01*
X219873000Y-112423000D02*
X219873000Y-112677000D01*
X219873000Y-112677000D02*
X220127000Y-112677000D01*
X220127000Y-112677000D02*
X220127000Y-112423000D01*
X220127000Y-112423000D02*
X220127000Y-112550000D01*
X220127000Y-107343000D02*
X220127000Y-107470000D01*
X220127000Y-107597000D02*
X220127000Y-107343000D01*
X219873000Y-107597000D02*
X220127000Y-107597000D01*
X219873000Y-107343000D02*
X219873000Y-107597000D01*
X220127000Y-107343000D02*
X219873000Y-107343000D01*
X220127000Y-110137000D02*
X220127000Y-109883000D01*
X219873000Y-110137000D02*
X220127000Y-110137000D01*
X219873000Y-109883000D02*
X219873000Y-110137000D01*
X220127000Y-109883000D02*
X219873000Y-109883000D01*
X218730000Y-106200000D02*
X221270000Y-106200000D01*
X218730000Y-108740000D02*
X218730000Y-108232000D01*
X221270000Y-108740000D02*
X218730000Y-108740000D01*
X221270000Y-106200000D02*
X221270000Y-108740000D01*
X218730000Y-106200000D02*
X218730000Y-106708000D01*
X221270000Y-108740000D02*
X221270000Y-109248000D01*
X218730000Y-111280000D02*
X218730000Y-108740000D01*
X221270000Y-111280000D02*
X218730000Y-111280000D01*
X221270000Y-110772000D02*
X221270000Y-111280000D01*
X221270000Y-105692000D02*
X221270000Y-106200000D01*
X221270000Y-106200000D02*
X218730000Y-106200000D01*
X218730000Y-106200000D02*
X218730000Y-103660000D01*
X221270000Y-103660000D02*
X221270000Y-104168000D01*
X218730000Y-101120000D02*
X218730000Y-101628000D01*
X221270000Y-101120000D02*
X221270000Y-103660000D01*
X221270000Y-103660000D02*
X218730000Y-103660000D01*
X218730000Y-103660000D02*
X218730000Y-103152000D01*
X221270000Y-98580000D02*
X218730000Y-98580000D01*
X218730000Y-98580000D02*
X218730000Y-101120000D01*
X218730000Y-101120000D02*
X221270000Y-101120000D01*
X221270000Y-101120000D02*
X221270000Y-100612000D01*
X221270000Y-98580000D02*
X221270000Y-99088000D01*
X220127000Y-104803000D02*
X219873000Y-104803000D01*
X219873000Y-104803000D02*
X219873000Y-105057000D01*
X219873000Y-105057000D02*
X220127000Y-105057000D01*
X220127000Y-105057000D02*
X220127000Y-104803000D01*
X220127000Y-102263000D02*
X219873000Y-102263000D01*
X219873000Y-102263000D02*
X219873000Y-102517000D01*
X219873000Y-102517000D02*
X220127000Y-102517000D01*
X220127000Y-102517000D02*
X220127000Y-102263000D01*
X220127000Y-102263000D02*
X220127000Y-102390000D01*
X220127000Y-99723000D02*
X219873000Y-99723000D01*
X219873000Y-99723000D02*
X219873000Y-99977000D01*
X219873000Y-99977000D02*
X220127000Y-99977000D01*
X220127000Y-99977000D02*
X220127000Y-99723000D01*
X183735000Y-101737000D02*
X183735000Y-102245000D01*
X183735000Y-102245000D02*
X181195000Y-102245000D01*
X181195000Y-102245000D02*
X181195000Y-99705000D01*
X183735000Y-99705000D02*
X183735000Y-100213000D01*
X181195000Y-97165000D02*
X181195000Y-97673000D01*
X183735000Y-97165000D02*
X183735000Y-99705000D01*
X183735000Y-99705000D02*
X181195000Y-99705000D01*
X181195000Y-99705000D02*
X181195000Y-99197000D01*
X183735000Y-94625000D02*
X181195000Y-94625000D01*
X181195000Y-94625000D02*
X181195000Y-97165000D01*
X181195000Y-97165000D02*
X183735000Y-97165000D01*
X183735000Y-97165000D02*
X183735000Y-96657000D01*
X183735000Y-94625000D02*
X183735000Y-95133000D01*
X182592000Y-100848000D02*
X182338000Y-100848000D01*
X182338000Y-100848000D02*
X182338000Y-101102000D01*
X182338000Y-101102000D02*
X182592000Y-101102000D01*
X182592000Y-101102000D02*
X182592000Y-100848000D01*
X182592000Y-98308000D02*
X182338000Y-98308000D01*
X182338000Y-98308000D02*
X182338000Y-98562000D01*
X182338000Y-98562000D02*
X182592000Y-98562000D01*
X182592000Y-98562000D02*
X182592000Y-98308000D01*
X182592000Y-98308000D02*
X182592000Y-98435000D01*
X182592000Y-95768000D02*
X182338000Y-95768000D01*
X182338000Y-95768000D02*
X182338000Y-96022000D01*
X182338000Y-96022000D02*
X182592000Y-96022000D01*
X182592000Y-96022000D02*
X182592000Y-95768000D01*
X197620000Y-123870000D02*
X197620000Y-121330000D01*
X197620000Y-121330000D02*
X197112000Y-121330000D01*
X197620000Y-123870000D02*
X195080000Y-123870000D01*
X195080000Y-123870000D02*
X195080000Y-121330000D01*
X195080000Y-121330000D02*
X195588000Y-121330000D01*
X197620000Y-121330000D02*
X197620000Y-123870000D01*
X196477000Y-122727000D02*
X196477000Y-122473000D01*
X196477000Y-122473000D02*
X196223000Y-122473000D01*
X196223000Y-122473000D02*
X196223000Y-122727000D01*
X196223000Y-122727000D02*
X196477000Y-122727000D01*
X196477000Y-122727000D02*
X196350000Y-122727000D01*
X201557000Y-122727000D02*
X201430000Y-122727000D01*
X201303000Y-122727000D02*
X201557000Y-122727000D01*
X201303000Y-122473000D02*
X201303000Y-122727000D01*
X201557000Y-122473000D02*
X201303000Y-122473000D01*
X201557000Y-122727000D02*
X201557000Y-122473000D01*
X198763000Y-122727000D02*
X199017000Y-122727000D01*
X198763000Y-122473000D02*
X198763000Y-122727000D01*
X199017000Y-122473000D02*
X198763000Y-122473000D01*
X199017000Y-122727000D02*
X199017000Y-122473000D01*
X202700000Y-121330000D02*
X202700000Y-123870000D01*
X200160000Y-121330000D02*
X200668000Y-121330000D01*
X200160000Y-123870000D02*
X200160000Y-121330000D01*
X202700000Y-123870000D02*
X200160000Y-123870000D01*
X202700000Y-121330000D02*
X202192000Y-121330000D01*
X200160000Y-123870000D02*
X199652000Y-123870000D01*
X197620000Y-121330000D02*
X200160000Y-121330000D01*
X197620000Y-123870000D02*
X197620000Y-121330000D01*
X198128000Y-123870000D02*
X197620000Y-123870000D01*
X203208000Y-123870000D02*
X202700000Y-123870000D01*
X202700000Y-123870000D02*
X202700000Y-121330000D01*
X202700000Y-121330000D02*
X205240000Y-121330000D01*
X205240000Y-123870000D02*
X204732000Y-123870000D01*
X207780000Y-121330000D02*
X207272000Y-121330000D01*
X207780000Y-123870000D02*
X205240000Y-123870000D01*
X205240000Y-123870000D02*
X205240000Y-121330000D01*
X205240000Y-121330000D02*
X205748000Y-121330000D01*
X210320000Y-123870000D02*
X210320000Y-121330000D01*
X210320000Y-121330000D02*
X207780000Y-121330000D01*
X207780000Y-121330000D02*
X207780000Y-123870000D01*
X207780000Y-123870000D02*
X208288000Y-123870000D01*
X210320000Y-123870000D02*
X209812000Y-123870000D01*
X204097000Y-122727000D02*
X204097000Y-122473000D01*
X204097000Y-122473000D02*
X203843000Y-122473000D01*
X203843000Y-122473000D02*
X203843000Y-122727000D01*
X203843000Y-122727000D02*
X204097000Y-122727000D01*
X206637000Y-122727000D02*
X206637000Y-122473000D01*
X206637000Y-122473000D02*
X206383000Y-122473000D01*
X206383000Y-122473000D02*
X206383000Y-122727000D01*
X206383000Y-122727000D02*
X206637000Y-122727000D01*
X206637000Y-122727000D02*
X206510000Y-122727000D01*
X209177000Y-122727000D02*
X209177000Y-122473000D01*
X209177000Y-122473000D02*
X208923000Y-122473000D01*
X208923000Y-122473000D02*
X208923000Y-122727000D01*
X208923000Y-122727000D02*
X209177000Y-122727000D01*
X196470000Y-97860000D02*
X193930000Y-97860000D01*
X196470000Y-100400000D02*
X196470000Y-99892000D01*
X193930000Y-100400000D02*
X193930000Y-97860000D01*
X196470000Y-97860000D02*
X196470000Y-98368000D01*
X193930000Y-102940000D02*
X196470000Y-102940000D01*
X196470000Y-102940000D02*
X196470000Y-100400000D01*
X196470000Y-100400000D02*
X193930000Y-100400000D01*
X193930000Y-100400000D02*
X193930000Y-100908000D01*
X193930000Y-102940000D02*
X193930000Y-102432000D01*
X195073000Y-99257000D02*
X195327000Y-99257000D01*
X195327000Y-99257000D02*
X195327000Y-99003000D01*
X195327000Y-99003000D02*
X195073000Y-99003000D01*
X195073000Y-99003000D02*
X195073000Y-99257000D01*
X195073000Y-99257000D02*
X195073000Y-99130000D01*
X195073000Y-101797000D02*
X195327000Y-101797000D01*
X195327000Y-101797000D02*
X195327000Y-101543000D01*
X195327000Y-101543000D02*
X195073000Y-101543000D01*
X195073000Y-101543000D02*
X195073000Y-101797000D01*
X176140000Y-113270000D02*
X176140000Y-110730000D01*
X173600000Y-113270000D02*
X174108000Y-113270000D01*
X173600000Y-110730000D02*
X176140000Y-110730000D01*
X176140000Y-113270000D02*
X175632000Y-113270000D01*
X171060000Y-110730000D02*
X171060000Y-113270000D01*
X171060000Y-113270000D02*
X173600000Y-113270000D01*
X173600000Y-113270000D02*
X173600000Y-110730000D01*
X173600000Y-110730000D02*
X173092000Y-110730000D01*
X171060000Y-110730000D02*
X171568000Y-110730000D01*
X174743000Y-111873000D02*
X174743000Y-112127000D01*
X174743000Y-112127000D02*
X174997000Y-112127000D01*
X174997000Y-112127000D02*
X174997000Y-111873000D01*
X174997000Y-111873000D02*
X174743000Y-111873000D01*
X174743000Y-111873000D02*
X174870000Y-111873000D01*
X172203000Y-111873000D02*
X172203000Y-112127000D01*
X172203000Y-112127000D02*
X172457000Y-112127000D01*
X172457000Y-112127000D02*
X172457000Y-111873000D01*
X172457000Y-111873000D02*
X172203000Y-111873000D01*
X214375000Y-99600000D02*
X214375000Y-101600000D01*
X216425000Y-101600000D02*
X216425000Y-99600000D01*
X239338000Y-106960000D02*
X238830000Y-106960000D01*
X238830000Y-106960000D02*
X238830000Y-104420000D01*
X238830000Y-104420000D02*
X241370000Y-104420000D01*
X241370000Y-106960000D02*
X240862000Y-106960000D01*
X243910000Y-104420000D02*
X243402000Y-104420000D01*
X243910000Y-106960000D02*
X241370000Y-106960000D01*
X241370000Y-106960000D02*
X241370000Y-104420000D01*
X241370000Y-104420000D02*
X241878000Y-104420000D01*
X246450000Y-106960000D02*
X246450000Y-104420000D01*
X246450000Y-104420000D02*
X243910000Y-104420000D01*
X243910000Y-104420000D02*
X243910000Y-106960000D01*
X243910000Y-106960000D02*
X244418000Y-106960000D01*
X246450000Y-106960000D02*
X245942000Y-106960000D01*
X240227000Y-105817000D02*
X240227000Y-105563000D01*
X240227000Y-105563000D02*
X239973000Y-105563000D01*
X239973000Y-105563000D02*
X239973000Y-105817000D01*
X239973000Y-105817000D02*
X240227000Y-105817000D01*
X242767000Y-105817000D02*
X242767000Y-105563000D01*
X242767000Y-105563000D02*
X242513000Y-105563000D01*
X242513000Y-105563000D02*
X242513000Y-105817000D01*
X242513000Y-105817000D02*
X242767000Y-105817000D01*
X242767000Y-105817000D02*
X242640000Y-105817000D01*
X245307000Y-105817000D02*
X245307000Y-105563000D01*
X245307000Y-105563000D02*
X245053000Y-105563000D01*
X245053000Y-105563000D02*
X245053000Y-105817000D01*
X245053000Y-105817000D02*
X245307000Y-105817000D01*
X187825000Y-80450000D02*
X187825000Y-82450000D01*
X185675000Y-82450000D02*
X185675000Y-80450000D01*
X217500000Y-65025000D02*
X215500000Y-65025000D01*
X215500000Y-62875000D02*
X217500000Y-62875000D01*
X181825000Y-86450000D02*
X181825000Y-88450000D01*
X179675000Y-88450000D02*
X179675000Y-86450000D01*
X212250000Y-58775000D02*
X210250000Y-58775000D01*
X210250000Y-56625000D02*
X212250000Y-56625000D01*
X228225000Y-121150000D02*
X228225000Y-119150000D01*
X230375000Y-119150000D02*
X230375000Y-121150000D01*
X201900000Y-140275000D02*
X203900000Y-140275000D01*
X203900000Y-142425000D02*
X201900000Y-142425000D01*
X233975000Y-115900000D02*
X233975000Y-113900000D01*
X236125000Y-113900000D02*
X236125000Y-115900000D01*
X208150000Y-145775000D02*
X210150000Y-145775000D01*
X210150000Y-147925000D02*
X208150000Y-147925000D01*
X180250180Y-80750800D02*
X180250180Y-80049760D01*
X180250180Y-80049760D02*
X180499100Y-80049760D01*
X183049160Y-80049760D02*
X183249820Y-80049760D01*
X183249820Y-80049760D02*
X183249820Y-80750800D01*
X217699200Y-56950180D02*
X218400240Y-56950180D01*
X218400240Y-56950180D02*
X218400240Y-57199100D01*
X218400240Y-59749160D02*
X218400240Y-59949820D01*
X218400240Y-59949820D02*
X217699200Y-59949820D01*
X235549820Y-121099200D02*
X235549820Y-121800240D01*
X235549820Y-121800240D02*
X235300900Y-121800240D01*
X232750840Y-121800240D02*
X232550180Y-121800240D01*
X232550180Y-121800240D02*
X232550180Y-121099200D01*
X202450800Y-147099820D02*
X201749760Y-147099820D01*
X201749760Y-147099820D02*
X201749760Y-146850900D01*
X201749760Y-144300840D02*
X201749760Y-144100180D01*
X201749760Y-144100180D02*
X202450800Y-144100180D01*
X197898000Y-119070000D02*
X197390000Y-119070000D01*
X197390000Y-119070000D02*
X197390000Y-116530000D01*
X197390000Y-116530000D02*
X199930000Y-116530000D01*
X199930000Y-119070000D02*
X199422000Y-119070000D01*
X202470000Y-116530000D02*
X201962000Y-116530000D01*
X202470000Y-119070000D02*
X199930000Y-119070000D01*
X199930000Y-119070000D02*
X199930000Y-116530000D01*
X199930000Y-116530000D02*
X200438000Y-116530000D01*
X205010000Y-119070000D02*
X205010000Y-116530000D01*
X205010000Y-116530000D02*
X202470000Y-116530000D01*
X202470000Y-116530000D02*
X202470000Y-119070000D01*
X202470000Y-119070000D02*
X202978000Y-119070000D01*
X205010000Y-119070000D02*
X204502000Y-119070000D01*
X198787000Y-117927000D02*
X198787000Y-117673000D01*
X198787000Y-117673000D02*
X198533000Y-117673000D01*
X198533000Y-117673000D02*
X198533000Y-117927000D01*
X198533000Y-117927000D02*
X198787000Y-117927000D01*
X201327000Y-117927000D02*
X201327000Y-117673000D01*
X201327000Y-117673000D02*
X201073000Y-117673000D01*
X201073000Y-117673000D02*
X201073000Y-117927000D01*
X201073000Y-117927000D02*
X201327000Y-117927000D01*
X201327000Y-117927000D02*
X201200000Y-117927000D01*
X203867000Y-117927000D02*
X203867000Y-117673000D01*
X203867000Y-117673000D02*
X203613000Y-117673000D01*
X203613000Y-117673000D02*
X203613000Y-117927000D01*
X203613000Y-117927000D02*
X203867000Y-117927000D01*
X169800000Y-122875000D02*
X167800000Y-122875000D01*
X167800000Y-120725000D02*
X169800000Y-120725000D01*
X169670000Y-130902000D02*
X169670000Y-131410000D01*
X169670000Y-131410000D02*
X167130000Y-131410000D01*
X167130000Y-131410000D02*
X167130000Y-128870000D01*
X169670000Y-128870000D02*
X169670000Y-129378000D01*
X167130000Y-126330000D02*
X167130000Y-126838000D01*
X169670000Y-126330000D02*
X169670000Y-128870000D01*
X169670000Y-128870000D02*
X167130000Y-128870000D01*
X167130000Y-128870000D02*
X167130000Y-128362000D01*
X169670000Y-123790000D02*
X167130000Y-123790000D01*
X167130000Y-123790000D02*
X167130000Y-126330000D01*
X167130000Y-126330000D02*
X169670000Y-126330000D01*
X169670000Y-126330000D02*
X169670000Y-125822000D01*
X169670000Y-123790000D02*
X169670000Y-124298000D01*
X168527000Y-130013000D02*
X168273000Y-130013000D01*
X168273000Y-130013000D02*
X168273000Y-130267000D01*
X168273000Y-130267000D02*
X168527000Y-130267000D01*
X168527000Y-130267000D02*
X168527000Y-130013000D01*
X168527000Y-127473000D02*
X168273000Y-127473000D01*
X168273000Y-127473000D02*
X168273000Y-127727000D01*
X168273000Y-127727000D02*
X168527000Y-127727000D01*
X168527000Y-127727000D02*
X168527000Y-127473000D01*
X168527000Y-127473000D02*
X168527000Y-127600000D01*
X168527000Y-124933000D02*
X168273000Y-124933000D01*
X168273000Y-124933000D02*
X168273000Y-125187000D01*
X168273000Y-125187000D02*
X168527000Y-125187000D01*
X168527000Y-125187000D02*
X168527000Y-124933000D01*
X193033334Y-146052381D02*
X192557143Y-146052381D01*
X192557143Y-145052381D01*
X193795239Y-145052381D02*
X193604762Y-145052381D01*
X193509524Y-145100000D01*
X193461905Y-145147619D01*
X193366667Y-145290476D01*
X193319048Y-145480952D01*
X193319048Y-145861905D01*
X193366667Y-145957143D01*
X193414286Y-146004762D01*
X193509524Y-146052381D01*
X193700001Y-146052381D01*
X193795239Y-146004762D01*
X193842858Y-145957143D01*
X193890477Y-145861905D01*
X193890477Y-145623810D01*
X193842858Y-145528571D01*
X193795239Y-145480952D01*
X193700001Y-145433333D01*
X193509524Y-145433333D01*
X193414286Y-145480952D01*
X193366667Y-145528571D01*
X193319048Y-145623810D01*
X192033334Y-108557143D02*
X191985715Y-108604762D01*
X191842858Y-108652381D01*
X191747620Y-108652381D01*
X191604762Y-108604762D01*
X191509524Y-108509524D01*
X191461905Y-108414286D01*
X191414286Y-108223810D01*
X191414286Y-108080952D01*
X191461905Y-107890476D01*
X191509524Y-107795238D01*
X191604762Y-107700000D01*
X191747620Y-107652381D01*
X191842858Y-107652381D01*
X191985715Y-107700000D01*
X192033334Y-107747619D01*
X192985715Y-108652381D02*
X192414286Y-108652381D01*
X192700000Y-108652381D02*
X192700000Y-107652381D01*
X192604762Y-107795238D01*
X192509524Y-107890476D01*
X192414286Y-107938095D01*
X214033334Y-95557143D02*
X213985715Y-95604762D01*
X213842858Y-95652381D01*
X213747620Y-95652381D01*
X213604762Y-95604762D01*
X213509524Y-95509524D01*
X213461905Y-95414286D01*
X213414286Y-95223810D01*
X213414286Y-95080952D01*
X213461905Y-94890476D01*
X213509524Y-94795238D01*
X213604762Y-94700000D01*
X213747620Y-94652381D01*
X213842858Y-94652381D01*
X213985715Y-94700000D01*
X214033334Y-94747619D01*
X214414286Y-94747619D02*
X214461905Y-94700000D01*
X214557143Y-94652381D01*
X214795239Y-94652381D01*
X214890477Y-94700000D01*
X214938096Y-94747619D01*
X214985715Y-94842857D01*
X214985715Y-94938095D01*
X214938096Y-95080952D01*
X214366667Y-95652381D01*
X214985715Y-95652381D01*
X216757143Y-80366666D02*
X216804762Y-80414285D01*
X216852381Y-80557142D01*
X216852381Y-80652380D01*
X216804762Y-80795238D01*
X216709524Y-80890476D01*
X216614286Y-80938095D01*
X216423810Y-80985714D01*
X216280952Y-80985714D01*
X216090476Y-80938095D01*
X215995238Y-80890476D01*
X215900000Y-80795238D01*
X215852381Y-80652380D01*
X215852381Y-80557142D01*
X215900000Y-80414285D01*
X215947619Y-80366666D01*
X215852381Y-80033333D02*
X215852381Y-79414285D01*
X216233333Y-79747619D01*
X216233333Y-79604761D01*
X216280952Y-79509523D01*
X216328571Y-79461904D01*
X216423810Y-79414285D01*
X216661905Y-79414285D01*
X216757143Y-79461904D01*
X216804762Y-79509523D01*
X216852381Y-79604761D01*
X216852381Y-79890476D01*
X216804762Y-79985714D01*
X216757143Y-80033333D01*
X213957143Y-80366666D02*
X214004762Y-80414285D01*
X214052381Y-80557142D01*
X214052381Y-80652380D01*
X214004762Y-80795238D01*
X213909524Y-80890476D01*
X213814286Y-80938095D01*
X213623810Y-80985714D01*
X213480952Y-80985714D01*
X213290476Y-80938095D01*
X213195238Y-80890476D01*
X213100000Y-80795238D01*
X213052381Y-80652380D01*
X213052381Y-80557142D01*
X213100000Y-80414285D01*
X213147619Y-80366666D01*
X213385714Y-79509523D02*
X214052381Y-79509523D01*
X213004762Y-79747619D02*
X213719048Y-79985714D01*
X213719048Y-79366666D01*
X200633334Y-98557143D02*
X200585715Y-98604762D01*
X200442858Y-98652381D01*
X200347620Y-98652381D01*
X200204762Y-98604762D01*
X200109524Y-98509524D01*
X200061905Y-98414286D01*
X200014286Y-98223810D01*
X200014286Y-98080952D01*
X200061905Y-97890476D01*
X200109524Y-97795238D01*
X200204762Y-97700000D01*
X200347620Y-97652381D01*
X200442858Y-97652381D01*
X200585715Y-97700000D01*
X200633334Y-97747619D01*
X201538096Y-97652381D02*
X201061905Y-97652381D01*
X201014286Y-98128571D01*
X201061905Y-98080952D01*
X201157143Y-98033333D01*
X201395239Y-98033333D01*
X201490477Y-98080952D01*
X201538096Y-98128571D01*
X201585715Y-98223810D01*
X201585715Y-98461905D01*
X201538096Y-98557143D01*
X201490477Y-98604762D01*
X201395239Y-98652381D01*
X201157143Y-98652381D01*
X201061905Y-98604762D01*
X201014286Y-98557143D01*
X211157143Y-80366666D02*
X211204762Y-80414285D01*
X211252381Y-80557142D01*
X211252381Y-80652380D01*
X211204762Y-80795238D01*
X211109524Y-80890476D01*
X211014286Y-80938095D01*
X210823810Y-80985714D01*
X210680952Y-80985714D01*
X210490476Y-80938095D01*
X210395238Y-80890476D01*
X210300000Y-80795238D01*
X210252381Y-80652380D01*
X210252381Y-80557142D01*
X210300000Y-80414285D01*
X210347619Y-80366666D01*
X210252381Y-79509523D02*
X210252381Y-79700000D01*
X210300000Y-79795238D01*
X210347619Y-79842857D01*
X210490476Y-79938095D01*
X210680952Y-79985714D01*
X211061905Y-79985714D01*
X211157143Y-79938095D01*
X211204762Y-79890476D01*
X211252381Y-79795238D01*
X211252381Y-79604761D01*
X211204762Y-79509523D01*
X211157143Y-79461904D01*
X211061905Y-79414285D01*
X210823810Y-79414285D01*
X210728571Y-79461904D01*
X210680952Y-79509523D01*
X210633333Y-79604761D01*
X210633333Y-79795238D01*
X210680952Y-79890476D01*
X210728571Y-79938095D01*
X210823810Y-79985714D01*
X208357143Y-80366666D02*
X208404762Y-80414285D01*
X208452381Y-80557142D01*
X208452381Y-80652380D01*
X208404762Y-80795238D01*
X208309524Y-80890476D01*
X208214286Y-80938095D01*
X208023810Y-80985714D01*
X207880952Y-80985714D01*
X207690476Y-80938095D01*
X207595238Y-80890476D01*
X207500000Y-80795238D01*
X207452381Y-80652380D01*
X207452381Y-80557142D01*
X207500000Y-80414285D01*
X207547619Y-80366666D01*
X207452381Y-80033333D02*
X207452381Y-79366666D01*
X208452381Y-79795238D01*
X205557143Y-80366666D02*
X205604762Y-80414285D01*
X205652381Y-80557142D01*
X205652381Y-80652380D01*
X205604762Y-80795238D01*
X205509524Y-80890476D01*
X205414286Y-80938095D01*
X205223810Y-80985714D01*
X205080952Y-80985714D01*
X204890476Y-80938095D01*
X204795238Y-80890476D01*
X204700000Y-80795238D01*
X204652381Y-80652380D01*
X204652381Y-80557142D01*
X204700000Y-80414285D01*
X204747619Y-80366666D01*
X205080952Y-79795238D02*
X205033333Y-79890476D01*
X204985714Y-79938095D01*
X204890476Y-79985714D01*
X204842857Y-79985714D01*
X204747619Y-79938095D01*
X204700000Y-79890476D01*
X204652381Y-79795238D01*
X204652381Y-79604761D01*
X204700000Y-79509523D01*
X204747619Y-79461904D01*
X204842857Y-79414285D01*
X204890476Y-79414285D01*
X204985714Y-79461904D01*
X205033333Y-79509523D01*
X205080952Y-79604761D01*
X205080952Y-79795238D01*
X205128571Y-79890476D01*
X205176190Y-79938095D01*
X205271429Y-79985714D01*
X205461905Y-79985714D01*
X205557143Y-79938095D01*
X205604762Y-79890476D01*
X205652381Y-79795238D01*
X205652381Y-79604761D01*
X205604762Y-79509523D01*
X205557143Y-79461904D01*
X205461905Y-79414285D01*
X205271429Y-79414285D01*
X205176190Y-79461904D01*
X205128571Y-79509523D01*
X205080952Y-79604761D01*
X202957143Y-80366666D02*
X203004762Y-80414285D01*
X203052381Y-80557142D01*
X203052381Y-80652380D01*
X203004762Y-80795238D01*
X202909524Y-80890476D01*
X202814286Y-80938095D01*
X202623810Y-80985714D01*
X202480952Y-80985714D01*
X202290476Y-80938095D01*
X202195238Y-80890476D01*
X202100000Y-80795238D01*
X202052381Y-80652380D01*
X202052381Y-80557142D01*
X202100000Y-80414285D01*
X202147619Y-80366666D01*
X203052381Y-79890476D02*
X203052381Y-79700000D01*
X203004762Y-79604761D01*
X202957143Y-79557142D01*
X202814286Y-79461904D01*
X202623810Y-79414285D01*
X202242857Y-79414285D01*
X202147619Y-79461904D01*
X202100000Y-79509523D01*
X202052381Y-79604761D01*
X202052381Y-79795238D01*
X202100000Y-79890476D01*
X202147619Y-79938095D01*
X202242857Y-79985714D01*
X202480952Y-79985714D01*
X202576190Y-79938095D01*
X202623810Y-79890476D01*
X202671429Y-79795238D01*
X202671429Y-79604761D01*
X202623810Y-79509523D01*
X202576190Y-79461904D01*
X202480952Y-79414285D01*
X200157143Y-80442857D02*
X200204762Y-80490476D01*
X200252381Y-80633333D01*
X200252381Y-80728571D01*
X200204762Y-80871429D01*
X200109524Y-80966667D01*
X200014286Y-81014286D01*
X199823810Y-81061905D01*
X199680952Y-81061905D01*
X199490476Y-81014286D01*
X199395238Y-80966667D01*
X199300000Y-80871429D01*
X199252381Y-80728571D01*
X199252381Y-80633333D01*
X199300000Y-80490476D01*
X199347619Y-80442857D01*
X200252381Y-79490476D02*
X200252381Y-80061905D01*
X200252381Y-79776191D02*
X199252381Y-79776191D01*
X199395238Y-79871429D01*
X199490476Y-79966667D01*
X199538095Y-80061905D01*
X199252381Y-78871429D02*
X199252381Y-78776190D01*
X199300000Y-78680952D01*
X199347619Y-78633333D01*
X199442857Y-78585714D01*
X199633333Y-78538095D01*
X199871429Y-78538095D01*
X200061905Y-78585714D01*
X200157143Y-78633333D01*
X200204762Y-78680952D01*
X200252381Y-78776190D01*
X200252381Y-78871429D01*
X200204762Y-78966667D01*
X200157143Y-79014286D01*
X200061905Y-79061905D01*
X199871429Y-79109524D01*
X199633333Y-79109524D01*
X199442857Y-79061905D01*
X199347619Y-79014286D01*
X199300000Y-78966667D01*
X199252381Y-78871429D01*
X189557143Y-93757143D02*
X189509524Y-93804762D01*
X189366667Y-93852381D01*
X189271429Y-93852381D01*
X189128571Y-93804762D01*
X189033333Y-93709524D01*
X188985714Y-93614286D01*
X188938095Y-93423810D01*
X188938095Y-93280952D01*
X188985714Y-93090476D01*
X189033333Y-92995238D01*
X189128571Y-92900000D01*
X189271429Y-92852381D01*
X189366667Y-92852381D01*
X189509524Y-92900000D01*
X189557143Y-92947619D01*
X190509524Y-93852381D02*
X189938095Y-93852381D01*
X190223809Y-93852381D02*
X190223809Y-92852381D01*
X190128571Y-92995238D01*
X190033333Y-93090476D01*
X189938095Y-93138095D01*
X191461905Y-93852381D02*
X190890476Y-93852381D01*
X191176190Y-93852381D02*
X191176190Y-92852381D01*
X191080952Y-92995238D01*
X190985714Y-93090476D01*
X190890476Y-93138095D01*
X189557143Y-96357143D02*
X189509524Y-96404762D01*
X189366667Y-96452381D01*
X189271429Y-96452381D01*
X189128571Y-96404762D01*
X189033333Y-96309524D01*
X188985714Y-96214286D01*
X188938095Y-96023810D01*
X188938095Y-95880952D01*
X188985714Y-95690476D01*
X189033333Y-95595238D01*
X189128571Y-95500000D01*
X189271429Y-95452381D01*
X189366667Y-95452381D01*
X189509524Y-95500000D01*
X189557143Y-95547619D01*
X190509524Y-96452381D02*
X189938095Y-96452381D01*
X190223809Y-96452381D02*
X190223809Y-95452381D01*
X190128571Y-95595238D01*
X190033333Y-95690476D01*
X189938095Y-95738095D01*
X190890476Y-95547619D02*
X190938095Y-95500000D01*
X191033333Y-95452381D01*
X191271429Y-95452381D01*
X191366667Y-95500000D01*
X191414286Y-95547619D01*
X191461905Y-95642857D01*
X191461905Y-95738095D01*
X191414286Y-95880952D01*
X190842857Y-96452381D01*
X191461905Y-96452381D01*
X170072143Y-99042143D02*
X170024524Y-99089762D01*
X169881667Y-99137381D01*
X169786429Y-99137381D01*
X169643571Y-99089762D01*
X169548333Y-98994524D01*
X169500714Y-98899286D01*
X169453095Y-98708810D01*
X169453095Y-98565952D01*
X169500714Y-98375476D01*
X169548333Y-98280238D01*
X169643571Y-98185000D01*
X169786429Y-98137381D01*
X169881667Y-98137381D01*
X170024524Y-98185000D01*
X170072143Y-98232619D01*
X171024524Y-99137381D02*
X170453095Y-99137381D01*
X170738809Y-99137381D02*
X170738809Y-98137381D01*
X170643571Y-98280238D01*
X170548333Y-98375476D01*
X170453095Y-98423095D01*
X171357857Y-98137381D02*
X171976905Y-98137381D01*
X171643571Y-98518333D01*
X171786429Y-98518333D01*
X171881667Y-98565952D01*
X171929286Y-98613571D01*
X171976905Y-98708810D01*
X171976905Y-98946905D01*
X171929286Y-99042143D01*
X171881667Y-99089762D01*
X171786429Y-99137381D01*
X171500714Y-99137381D01*
X171405476Y-99089762D01*
X171357857Y-99042143D01*
X243447143Y-88082857D02*
X243494762Y-88130476D01*
X243542381Y-88273333D01*
X243542381Y-88368571D01*
X243494762Y-88511429D01*
X243399524Y-88606667D01*
X243304286Y-88654286D01*
X243113810Y-88701905D01*
X242970952Y-88701905D01*
X242780476Y-88654286D01*
X242685238Y-88606667D01*
X242590000Y-88511429D01*
X242542381Y-88368571D01*
X242542381Y-88273333D01*
X242590000Y-88130476D01*
X242637619Y-88082857D01*
X243542381Y-87130476D02*
X243542381Y-87701905D01*
X243542381Y-87416191D02*
X242542381Y-87416191D01*
X242685238Y-87511429D01*
X242780476Y-87606667D01*
X242828095Y-87701905D01*
X242875714Y-86273333D02*
X243542381Y-86273333D01*
X242494762Y-86511429D02*
X243209048Y-86749524D01*
X243209048Y-86130476D01*
X170157143Y-102157143D02*
X170109524Y-102204762D01*
X169966667Y-102252381D01*
X169871429Y-102252381D01*
X169728571Y-102204762D01*
X169633333Y-102109524D01*
X169585714Y-102014286D01*
X169538095Y-101823810D01*
X169538095Y-101680952D01*
X169585714Y-101490476D01*
X169633333Y-101395238D01*
X169728571Y-101300000D01*
X169871429Y-101252381D01*
X169966667Y-101252381D01*
X170109524Y-101300000D01*
X170157143Y-101347619D01*
X171109524Y-102252381D02*
X170538095Y-102252381D01*
X170823809Y-102252381D02*
X170823809Y-101252381D01*
X170728571Y-101395238D01*
X170633333Y-101490476D01*
X170538095Y-101538095D01*
X172014286Y-101252381D02*
X171538095Y-101252381D01*
X171490476Y-101728571D01*
X171538095Y-101680952D01*
X171633333Y-101633333D01*
X171871429Y-101633333D01*
X171966667Y-101680952D01*
X172014286Y-101728571D01*
X172061905Y-101823810D01*
X172061905Y-102061905D01*
X172014286Y-102157143D01*
X171966667Y-102204762D01*
X171871429Y-102252381D01*
X171633333Y-102252381D01*
X171538095Y-102204762D01*
X171490476Y-102157143D01*
X240957143Y-88042857D02*
X241004762Y-88090476D01*
X241052381Y-88233333D01*
X241052381Y-88328571D01*
X241004762Y-88471429D01*
X240909524Y-88566667D01*
X240814286Y-88614286D01*
X240623810Y-88661905D01*
X240480952Y-88661905D01*
X240290476Y-88614286D01*
X240195238Y-88566667D01*
X240100000Y-88471429D01*
X240052381Y-88328571D01*
X240052381Y-88233333D01*
X240100000Y-88090476D01*
X240147619Y-88042857D01*
X241052381Y-87090476D02*
X241052381Y-87661905D01*
X241052381Y-87376191D02*
X240052381Y-87376191D01*
X240195238Y-87471429D01*
X240290476Y-87566667D01*
X240338095Y-87661905D01*
X240052381Y-86233333D02*
X240052381Y-86423810D01*
X240100000Y-86519048D01*
X240147619Y-86566667D01*
X240290476Y-86661905D01*
X240480952Y-86709524D01*
X240861905Y-86709524D01*
X240957143Y-86661905D01*
X241004762Y-86614286D01*
X241052381Y-86519048D01*
X241052381Y-86328571D01*
X241004762Y-86233333D01*
X240957143Y-86185714D01*
X240861905Y-86138095D01*
X240623810Y-86138095D01*
X240528571Y-86185714D01*
X240480952Y-86233333D01*
X240433333Y-86328571D01*
X240433333Y-86519048D01*
X240480952Y-86614286D01*
X240528571Y-86661905D01*
X240623810Y-86709524D01*
X166572143Y-100542143D02*
X166524524Y-100589762D01*
X166381667Y-100637381D01*
X166286429Y-100637381D01*
X166143571Y-100589762D01*
X166048333Y-100494524D01*
X166000714Y-100399286D01*
X165953095Y-100208810D01*
X165953095Y-100065952D01*
X166000714Y-99875476D01*
X166048333Y-99780238D01*
X166143571Y-99685000D01*
X166286429Y-99637381D01*
X166381667Y-99637381D01*
X166524524Y-99685000D01*
X166572143Y-99732619D01*
X167524524Y-100637381D02*
X166953095Y-100637381D01*
X167238809Y-100637381D02*
X167238809Y-99637381D01*
X167143571Y-99780238D01*
X167048333Y-99875476D01*
X166953095Y-99923095D01*
X167857857Y-99637381D02*
X168524524Y-99637381D01*
X168095952Y-100637381D01*
X242157143Y-83757143D02*
X242109524Y-83804762D01*
X241966667Y-83852381D01*
X241871429Y-83852381D01*
X241728571Y-83804762D01*
X241633333Y-83709524D01*
X241585714Y-83614286D01*
X241538095Y-83423810D01*
X241538095Y-83280952D01*
X241585714Y-83090476D01*
X241633333Y-82995238D01*
X241728571Y-82900000D01*
X241871429Y-82852381D01*
X241966667Y-82852381D01*
X242109524Y-82900000D01*
X242157143Y-82947619D01*
X243109524Y-83852381D02*
X242538095Y-83852381D01*
X242823809Y-83852381D02*
X242823809Y-82852381D01*
X242728571Y-82995238D01*
X242633333Y-83090476D01*
X242538095Y-83138095D01*
X243680952Y-83280952D02*
X243585714Y-83233333D01*
X243538095Y-83185714D01*
X243490476Y-83090476D01*
X243490476Y-83042857D01*
X243538095Y-82947619D01*
X243585714Y-82900000D01*
X243680952Y-82852381D01*
X243871429Y-82852381D01*
X243966667Y-82900000D01*
X244014286Y-82947619D01*
X244061905Y-83042857D01*
X244061905Y-83090476D01*
X244014286Y-83185714D01*
X243966667Y-83233333D01*
X243871429Y-83280952D01*
X243680952Y-83280952D01*
X243585714Y-83328571D01*
X243538095Y-83376190D01*
X243490476Y-83471429D01*
X243490476Y-83661905D01*
X243538095Y-83757143D01*
X243585714Y-83804762D01*
X243680952Y-83852381D01*
X243871429Y-83852381D01*
X243966667Y-83804762D01*
X244014286Y-83757143D01*
X244061905Y-83661905D01*
X244061905Y-83471429D01*
X244014286Y-83376190D01*
X243966667Y-83328571D01*
X243871429Y-83280952D01*
X198357143Y-58307143D02*
X198309524Y-58354762D01*
X198166667Y-58402381D01*
X198071429Y-58402381D01*
X197928571Y-58354762D01*
X197833333Y-58259524D01*
X197785714Y-58164286D01*
X197738095Y-57973810D01*
X197738095Y-57830952D01*
X197785714Y-57640476D01*
X197833333Y-57545238D01*
X197928571Y-57450000D01*
X198071429Y-57402381D01*
X198166667Y-57402381D01*
X198309524Y-57450000D01*
X198357143Y-57497619D01*
X199309524Y-58402381D02*
X198738095Y-58402381D01*
X199023809Y-58402381D02*
X199023809Y-57402381D01*
X198928571Y-57545238D01*
X198833333Y-57640476D01*
X198738095Y-57688095D01*
X199785714Y-58402381D02*
X199976190Y-58402381D01*
X200071429Y-58354762D01*
X200119048Y-58307143D01*
X200214286Y-58164286D01*
X200261905Y-57973810D01*
X200261905Y-57592857D01*
X200214286Y-57497619D01*
X200166667Y-57450000D01*
X200071429Y-57402381D01*
X199880952Y-57402381D01*
X199785714Y-57450000D01*
X199738095Y-57497619D01*
X199690476Y-57592857D01*
X199690476Y-57830952D01*
X199738095Y-57926190D01*
X199785714Y-57973810D01*
X199880952Y-58021429D01*
X200071429Y-58021429D01*
X200166667Y-57973810D01*
X200214286Y-57926190D01*
X200261905Y-57830952D01*
X240107143Y-77342857D02*
X240154762Y-77390476D01*
X240202381Y-77533333D01*
X240202381Y-77628571D01*
X240154762Y-77771429D01*
X240059524Y-77866667D01*
X239964286Y-77914286D01*
X239773810Y-77961905D01*
X239630952Y-77961905D01*
X239440476Y-77914286D01*
X239345238Y-77866667D01*
X239250000Y-77771429D01*
X239202381Y-77628571D01*
X239202381Y-77533333D01*
X239250000Y-77390476D01*
X239297619Y-77342857D01*
X239297619Y-76961905D02*
X239250000Y-76914286D01*
X239202381Y-76819048D01*
X239202381Y-76580952D01*
X239250000Y-76485714D01*
X239297619Y-76438095D01*
X239392857Y-76390476D01*
X239488095Y-76390476D01*
X239630952Y-76438095D01*
X240202381Y-77009524D01*
X240202381Y-76390476D01*
X239202381Y-75771429D02*
X239202381Y-75676190D01*
X239250000Y-75580952D01*
X239297619Y-75533333D01*
X239392857Y-75485714D01*
X239583333Y-75438095D01*
X239821429Y-75438095D01*
X240011905Y-75485714D01*
X240107143Y-75533333D01*
X240154762Y-75580952D01*
X240202381Y-75676190D01*
X240202381Y-75771429D01*
X240154762Y-75866667D01*
X240107143Y-75914286D01*
X240011905Y-75961905D01*
X239821429Y-76009524D01*
X239583333Y-76009524D01*
X239392857Y-75961905D01*
X239297619Y-75914286D01*
X239250000Y-75866667D01*
X239202381Y-75771429D01*
X186157143Y-56357143D02*
X186109524Y-56404762D01*
X185966667Y-56452381D01*
X185871429Y-56452381D01*
X185728571Y-56404762D01*
X185633333Y-56309524D01*
X185585714Y-56214286D01*
X185538095Y-56023810D01*
X185538095Y-55880952D01*
X185585714Y-55690476D01*
X185633333Y-55595238D01*
X185728571Y-55500000D01*
X185871429Y-55452381D01*
X185966667Y-55452381D01*
X186109524Y-55500000D01*
X186157143Y-55547619D01*
X186538095Y-55547619D02*
X186585714Y-55500000D01*
X186680952Y-55452381D01*
X186919048Y-55452381D01*
X187014286Y-55500000D01*
X187061905Y-55547619D01*
X187109524Y-55642857D01*
X187109524Y-55738095D01*
X187061905Y-55880952D01*
X186490476Y-56452381D01*
X187109524Y-56452381D01*
X188061905Y-56452381D02*
X187490476Y-56452381D01*
X187776190Y-56452381D02*
X187776190Y-55452381D01*
X187680952Y-55595238D01*
X187585714Y-55690476D01*
X187490476Y-55738095D01*
X240607143Y-65307143D02*
X240559524Y-65354762D01*
X240416667Y-65402381D01*
X240321429Y-65402381D01*
X240178571Y-65354762D01*
X240083333Y-65259524D01*
X240035714Y-65164286D01*
X239988095Y-64973810D01*
X239988095Y-64830952D01*
X240035714Y-64640476D01*
X240083333Y-64545238D01*
X240178571Y-64450000D01*
X240321429Y-64402381D01*
X240416667Y-64402381D01*
X240559524Y-64450000D01*
X240607143Y-64497619D01*
X240988095Y-64497619D02*
X241035714Y-64450000D01*
X241130952Y-64402381D01*
X241369048Y-64402381D01*
X241464286Y-64450000D01*
X241511905Y-64497619D01*
X241559524Y-64592857D01*
X241559524Y-64688095D01*
X241511905Y-64830952D01*
X240940476Y-65402381D01*
X241559524Y-65402381D01*
X241940476Y-64497619D02*
X241988095Y-64450000D01*
X242083333Y-64402381D01*
X242321429Y-64402381D01*
X242416667Y-64450000D01*
X242464286Y-64497619D01*
X242511905Y-64592857D01*
X242511905Y-64688095D01*
X242464286Y-64830952D01*
X241892857Y-65402381D01*
X242511905Y-65402381D01*
X183357143Y-59757143D02*
X183309524Y-59804762D01*
X183166667Y-59852381D01*
X183071429Y-59852381D01*
X182928571Y-59804762D01*
X182833333Y-59709524D01*
X182785714Y-59614286D01*
X182738095Y-59423810D01*
X182738095Y-59280952D01*
X182785714Y-59090476D01*
X182833333Y-58995238D01*
X182928571Y-58900000D01*
X183071429Y-58852381D01*
X183166667Y-58852381D01*
X183309524Y-58900000D01*
X183357143Y-58947619D01*
X183738095Y-58947619D02*
X183785714Y-58900000D01*
X183880952Y-58852381D01*
X184119048Y-58852381D01*
X184214286Y-58900000D01*
X184261905Y-58947619D01*
X184309524Y-59042857D01*
X184309524Y-59138095D01*
X184261905Y-59280952D01*
X183690476Y-59852381D01*
X184309524Y-59852381D01*
X184642857Y-58852381D02*
X185261905Y-58852381D01*
X184928571Y-59233333D01*
X185071429Y-59233333D01*
X185166667Y-59280952D01*
X185214286Y-59328571D01*
X185261905Y-59423810D01*
X185261905Y-59661905D01*
X185214286Y-59757143D01*
X185166667Y-59804762D01*
X185071429Y-59852381D01*
X184785714Y-59852381D01*
X184690476Y-59804762D01*
X184642857Y-59757143D01*
X238957143Y-62157143D02*
X238909524Y-62204762D01*
X238766667Y-62252381D01*
X238671429Y-62252381D01*
X238528571Y-62204762D01*
X238433333Y-62109524D01*
X238385714Y-62014286D01*
X238338095Y-61823810D01*
X238338095Y-61680952D01*
X238385714Y-61490476D01*
X238433333Y-61395238D01*
X238528571Y-61300000D01*
X238671429Y-61252381D01*
X238766667Y-61252381D01*
X238909524Y-61300000D01*
X238957143Y-61347619D01*
X239338095Y-61347619D02*
X239385714Y-61300000D01*
X239480952Y-61252381D01*
X239719048Y-61252381D01*
X239814286Y-61300000D01*
X239861905Y-61347619D01*
X239909524Y-61442857D01*
X239909524Y-61538095D01*
X239861905Y-61680952D01*
X239290476Y-62252381D01*
X239909524Y-62252381D01*
X240766667Y-61585714D02*
X240766667Y-62252381D01*
X240528571Y-61204762D02*
X240290476Y-61919048D01*
X240909524Y-61919048D01*
X186857143Y-66842857D02*
X186904762Y-66890476D01*
X186952381Y-67033333D01*
X186952381Y-67128571D01*
X186904762Y-67271429D01*
X186809524Y-67366667D01*
X186714286Y-67414286D01*
X186523810Y-67461905D01*
X186380952Y-67461905D01*
X186190476Y-67414286D01*
X186095238Y-67366667D01*
X186000000Y-67271429D01*
X185952381Y-67128571D01*
X185952381Y-67033333D01*
X186000000Y-66890476D01*
X186047619Y-66842857D01*
X186047619Y-66461905D02*
X186000000Y-66414286D01*
X185952381Y-66319048D01*
X185952381Y-66080952D01*
X186000000Y-65985714D01*
X186047619Y-65938095D01*
X186142857Y-65890476D01*
X186238095Y-65890476D01*
X186380952Y-65938095D01*
X186952381Y-66509524D01*
X186952381Y-65890476D01*
X185952381Y-64985714D02*
X185952381Y-65461905D01*
X186428571Y-65509524D01*
X186380952Y-65461905D01*
X186333333Y-65366667D01*
X186333333Y-65128571D01*
X186380952Y-65033333D01*
X186428571Y-64985714D01*
X186523810Y-64938095D01*
X186761905Y-64938095D01*
X186857143Y-64985714D01*
X186904762Y-65033333D01*
X186952381Y-65128571D01*
X186952381Y-65366667D01*
X186904762Y-65461905D01*
X186857143Y-65509524D01*
X230757143Y-64357143D02*
X230709524Y-64404762D01*
X230566667Y-64452381D01*
X230471429Y-64452381D01*
X230328571Y-64404762D01*
X230233333Y-64309524D01*
X230185714Y-64214286D01*
X230138095Y-64023810D01*
X230138095Y-63880952D01*
X230185714Y-63690476D01*
X230233333Y-63595238D01*
X230328571Y-63500000D01*
X230471429Y-63452381D01*
X230566667Y-63452381D01*
X230709524Y-63500000D01*
X230757143Y-63547619D01*
X231138095Y-63547619D02*
X231185714Y-63500000D01*
X231280952Y-63452381D01*
X231519048Y-63452381D01*
X231614286Y-63500000D01*
X231661905Y-63547619D01*
X231709524Y-63642857D01*
X231709524Y-63738095D01*
X231661905Y-63880952D01*
X231090476Y-64452381D01*
X231709524Y-64452381D01*
X232566667Y-63452381D02*
X232376190Y-63452381D01*
X232280952Y-63500000D01*
X232233333Y-63547619D01*
X232138095Y-63690476D01*
X232090476Y-63880952D01*
X232090476Y-64261905D01*
X232138095Y-64357143D01*
X232185714Y-64404762D01*
X232280952Y-64452381D01*
X232471429Y-64452381D01*
X232566667Y-64404762D01*
X232614286Y-64357143D01*
X232661905Y-64261905D01*
X232661905Y-64023810D01*
X232614286Y-63928571D01*
X232566667Y-63880952D01*
X232471429Y-63833333D01*
X232280952Y-63833333D01*
X232185714Y-63880952D01*
X232138095Y-63928571D01*
X232090476Y-64023810D01*
X195107143Y-71592857D02*
X195154762Y-71640476D01*
X195202381Y-71783333D01*
X195202381Y-71878571D01*
X195154762Y-72021429D01*
X195059524Y-72116667D01*
X194964286Y-72164286D01*
X194773810Y-72211905D01*
X194630952Y-72211905D01*
X194440476Y-72164286D01*
X194345238Y-72116667D01*
X194250000Y-72021429D01*
X194202381Y-71878571D01*
X194202381Y-71783333D01*
X194250000Y-71640476D01*
X194297619Y-71592857D01*
X194297619Y-71211905D02*
X194250000Y-71164286D01*
X194202381Y-71069048D01*
X194202381Y-70830952D01*
X194250000Y-70735714D01*
X194297619Y-70688095D01*
X194392857Y-70640476D01*
X194488095Y-70640476D01*
X194630952Y-70688095D01*
X195202381Y-71259524D01*
X195202381Y-70640476D01*
X194202381Y-70307143D02*
X194202381Y-69640476D01*
X195202381Y-70069048D01*
X178557143Y-64757143D02*
X178509524Y-64804762D01*
X178366667Y-64852381D01*
X178271429Y-64852381D01*
X178128571Y-64804762D01*
X178033333Y-64709524D01*
X177985714Y-64614286D01*
X177938095Y-64423810D01*
X177938095Y-64280952D01*
X177985714Y-64090476D01*
X178033333Y-63995238D01*
X178128571Y-63900000D01*
X178271429Y-63852381D01*
X178366667Y-63852381D01*
X178509524Y-63900000D01*
X178557143Y-63947619D01*
X178938095Y-63947619D02*
X178985714Y-63900000D01*
X179080952Y-63852381D01*
X179319048Y-63852381D01*
X179414286Y-63900000D01*
X179461905Y-63947619D01*
X179509524Y-64042857D01*
X179509524Y-64138095D01*
X179461905Y-64280952D01*
X178890476Y-64852381D01*
X179509524Y-64852381D01*
X180080952Y-64280952D02*
X179985714Y-64233333D01*
X179938095Y-64185714D01*
X179890476Y-64090476D01*
X179890476Y-64042857D01*
X179938095Y-63947619D01*
X179985714Y-63900000D01*
X180080952Y-63852381D01*
X180271429Y-63852381D01*
X180366667Y-63900000D01*
X180414286Y-63947619D01*
X180461905Y-64042857D01*
X180461905Y-64090476D01*
X180414286Y-64185714D01*
X180366667Y-64233333D01*
X180271429Y-64280952D01*
X180080952Y-64280952D01*
X179985714Y-64328571D01*
X179938095Y-64376190D01*
X179890476Y-64471429D01*
X179890476Y-64661905D01*
X179938095Y-64757143D01*
X179985714Y-64804762D01*
X180080952Y-64852381D01*
X180271429Y-64852381D01*
X180366667Y-64804762D01*
X180414286Y-64757143D01*
X180461905Y-64661905D01*
X180461905Y-64471429D01*
X180414286Y-64376190D01*
X180366667Y-64328571D01*
X180271429Y-64280952D01*
X226107143Y-72557143D02*
X226059524Y-72604762D01*
X225916667Y-72652381D01*
X225821429Y-72652381D01*
X225678571Y-72604762D01*
X225583333Y-72509524D01*
X225535714Y-72414286D01*
X225488095Y-72223810D01*
X225488095Y-72080952D01*
X225535714Y-71890476D01*
X225583333Y-71795238D01*
X225678571Y-71700000D01*
X225821429Y-71652381D01*
X225916667Y-71652381D01*
X226059524Y-71700000D01*
X226107143Y-71747619D01*
X226488095Y-71747619D02*
X226535714Y-71700000D01*
X226630952Y-71652381D01*
X226869048Y-71652381D01*
X226964286Y-71700000D01*
X227011905Y-71747619D01*
X227059524Y-71842857D01*
X227059524Y-71938095D01*
X227011905Y-72080952D01*
X226440476Y-72652381D01*
X227059524Y-72652381D01*
X227535714Y-72652381D02*
X227726190Y-72652381D01*
X227821429Y-72604762D01*
X227869048Y-72557143D01*
X227964286Y-72414286D01*
X228011905Y-72223810D01*
X228011905Y-71842857D01*
X227964286Y-71747619D01*
X227916667Y-71700000D01*
X227821429Y-71652381D01*
X227630952Y-71652381D01*
X227535714Y-71700000D01*
X227488095Y-71747619D01*
X227440476Y-71842857D01*
X227440476Y-72080952D01*
X227488095Y-72176190D01*
X227535714Y-72223810D01*
X227630952Y-72271429D01*
X227821429Y-72271429D01*
X227916667Y-72223810D01*
X227964286Y-72176190D01*
X228011905Y-72080952D01*
X230857143Y-58057143D02*
X230809524Y-58104762D01*
X230666667Y-58152381D01*
X230571429Y-58152381D01*
X230428571Y-58104762D01*
X230333333Y-58009524D01*
X230285714Y-57914286D01*
X230238095Y-57723810D01*
X230238095Y-57580952D01*
X230285714Y-57390476D01*
X230333333Y-57295238D01*
X230428571Y-57200000D01*
X230571429Y-57152381D01*
X230666667Y-57152381D01*
X230809524Y-57200000D01*
X230857143Y-57247619D01*
X231190476Y-57152381D02*
X231809524Y-57152381D01*
X231476190Y-57533333D01*
X231619048Y-57533333D01*
X231714286Y-57580952D01*
X231761905Y-57628571D01*
X231809524Y-57723810D01*
X231809524Y-57961905D01*
X231761905Y-58057143D01*
X231714286Y-58104762D01*
X231619048Y-58152381D01*
X231333333Y-58152381D01*
X231238095Y-58104762D01*
X231190476Y-58057143D01*
X232428571Y-57152381D02*
X232523810Y-57152381D01*
X232619048Y-57200000D01*
X232666667Y-57247619D01*
X232714286Y-57342857D01*
X232761905Y-57533333D01*
X232761905Y-57771429D01*
X232714286Y-57961905D01*
X232666667Y-58057143D01*
X232619048Y-58104762D01*
X232523810Y-58152381D01*
X232428571Y-58152381D01*
X232333333Y-58104762D01*
X232285714Y-58057143D01*
X232238095Y-57961905D01*
X232190476Y-57771429D01*
X232190476Y-57533333D01*
X232238095Y-57342857D01*
X232285714Y-57247619D01*
X232333333Y-57200000D01*
X232428571Y-57152381D01*
X193757143Y-74557143D02*
X193709524Y-74604762D01*
X193566667Y-74652381D01*
X193471429Y-74652381D01*
X193328571Y-74604762D01*
X193233333Y-74509524D01*
X193185714Y-74414286D01*
X193138095Y-74223810D01*
X193138095Y-74080952D01*
X193185714Y-73890476D01*
X193233333Y-73795238D01*
X193328571Y-73700000D01*
X193471429Y-73652381D01*
X193566667Y-73652381D01*
X193709524Y-73700000D01*
X193757143Y-73747619D01*
X194090476Y-73652381D02*
X194709524Y-73652381D01*
X194376190Y-74033333D01*
X194519048Y-74033333D01*
X194614286Y-74080952D01*
X194661905Y-74128571D01*
X194709524Y-74223810D01*
X194709524Y-74461905D01*
X194661905Y-74557143D01*
X194614286Y-74604762D01*
X194519048Y-74652381D01*
X194233333Y-74652381D01*
X194138095Y-74604762D01*
X194090476Y-74557143D01*
X195661905Y-74652381D02*
X195090476Y-74652381D01*
X195376190Y-74652381D02*
X195376190Y-73652381D01*
X195280952Y-73795238D01*
X195185714Y-73890476D01*
X195090476Y-73938095D01*
X223357143Y-70807143D02*
X223309524Y-70854762D01*
X223166667Y-70902381D01*
X223071429Y-70902381D01*
X222928571Y-70854762D01*
X222833333Y-70759524D01*
X222785714Y-70664286D01*
X222738095Y-70473810D01*
X222738095Y-70330952D01*
X222785714Y-70140476D01*
X222833333Y-70045238D01*
X222928571Y-69950000D01*
X223071429Y-69902381D01*
X223166667Y-69902381D01*
X223309524Y-69950000D01*
X223357143Y-69997619D01*
X223690476Y-69902381D02*
X224309524Y-69902381D01*
X223976190Y-70283333D01*
X224119048Y-70283333D01*
X224214286Y-70330952D01*
X224261905Y-70378571D01*
X224309524Y-70473810D01*
X224309524Y-70711905D01*
X224261905Y-70807143D01*
X224214286Y-70854762D01*
X224119048Y-70902381D01*
X223833333Y-70902381D01*
X223738095Y-70854762D01*
X223690476Y-70807143D01*
X224690476Y-69997619D02*
X224738095Y-69950000D01*
X224833333Y-69902381D01*
X225071429Y-69902381D01*
X225166667Y-69950000D01*
X225214286Y-69997619D01*
X225261905Y-70092857D01*
X225261905Y-70188095D01*
X225214286Y-70330952D01*
X224642857Y-70902381D01*
X225261905Y-70902381D01*
X222642857Y-66507143D02*
X222690476Y-66554762D01*
X222642857Y-66602381D01*
X222595238Y-66554762D01*
X222642857Y-66507143D01*
X222642857Y-66602381D01*
X223642857Y-66602381D02*
X223071428Y-66602381D01*
X223357142Y-66602381D02*
X223357142Y-65602381D01*
X223261904Y-65745238D01*
X223166666Y-65840476D01*
X223071428Y-65888095D01*
X224500000Y-65935714D02*
X224500000Y-66602381D01*
X224071428Y-65935714D02*
X224071428Y-66459524D01*
X224119047Y-66554762D01*
X224214285Y-66602381D01*
X224357143Y-66602381D01*
X224452381Y-66554762D01*
X224500000Y-66507143D01*
X225309524Y-66078571D02*
X224976190Y-66078571D01*
X224976190Y-66602381D02*
X224976190Y-65602381D01*
X225452381Y-65602381D01*
X197857143Y-71592857D02*
X197904762Y-71640476D01*
X197952381Y-71783333D01*
X197952381Y-71878571D01*
X197904762Y-72021429D01*
X197809524Y-72116667D01*
X197714286Y-72164286D01*
X197523810Y-72211905D01*
X197380952Y-72211905D01*
X197190476Y-72164286D01*
X197095238Y-72116667D01*
X197000000Y-72021429D01*
X196952381Y-71878571D01*
X196952381Y-71783333D01*
X197000000Y-71640476D01*
X197047619Y-71592857D01*
X196952381Y-71259524D02*
X196952381Y-70640476D01*
X197333333Y-70973810D01*
X197333333Y-70830952D01*
X197380952Y-70735714D01*
X197428571Y-70688095D01*
X197523810Y-70640476D01*
X197761905Y-70640476D01*
X197857143Y-70688095D01*
X197904762Y-70735714D01*
X197952381Y-70830952D01*
X197952381Y-71116667D01*
X197904762Y-71211905D01*
X197857143Y-71259524D01*
X196952381Y-70307143D02*
X196952381Y-69688095D01*
X197333333Y-70021429D01*
X197333333Y-69878571D01*
X197380952Y-69783333D01*
X197428571Y-69735714D01*
X197523810Y-69688095D01*
X197761905Y-69688095D01*
X197857143Y-69735714D01*
X197904762Y-69783333D01*
X197952381Y-69878571D01*
X197952381Y-70164286D01*
X197904762Y-70259524D01*
X197857143Y-70307143D01*
X226107143Y-75307143D02*
X226059524Y-75354762D01*
X225916667Y-75402381D01*
X225821429Y-75402381D01*
X225678571Y-75354762D01*
X225583333Y-75259524D01*
X225535714Y-75164286D01*
X225488095Y-74973810D01*
X225488095Y-74830952D01*
X225535714Y-74640476D01*
X225583333Y-74545238D01*
X225678571Y-74450000D01*
X225821429Y-74402381D01*
X225916667Y-74402381D01*
X226059524Y-74450000D01*
X226107143Y-74497619D01*
X226440476Y-74402381D02*
X227059524Y-74402381D01*
X226726190Y-74783333D01*
X226869048Y-74783333D01*
X226964286Y-74830952D01*
X227011905Y-74878571D01*
X227059524Y-74973810D01*
X227059524Y-75211905D01*
X227011905Y-75307143D01*
X226964286Y-75354762D01*
X226869048Y-75402381D01*
X226583333Y-75402381D01*
X226488095Y-75354762D01*
X226440476Y-75307143D01*
X227916667Y-74735714D02*
X227916667Y-75402381D01*
X227678571Y-74354762D02*
X227440476Y-75069048D01*
X228059524Y-75069048D01*
X215782143Y-144132143D02*
X215734524Y-144179762D01*
X215591667Y-144227381D01*
X215496429Y-144227381D01*
X215353571Y-144179762D01*
X215258333Y-144084524D01*
X215210714Y-143989286D01*
X215163095Y-143798810D01*
X215163095Y-143655952D01*
X215210714Y-143465476D01*
X215258333Y-143370238D01*
X215353571Y-143275000D01*
X215496429Y-143227381D01*
X215591667Y-143227381D01*
X215734524Y-143275000D01*
X215782143Y-143322619D01*
X216115476Y-143227381D02*
X216734524Y-143227381D01*
X216401190Y-143608333D01*
X216544048Y-143608333D01*
X216639286Y-143655952D01*
X216686905Y-143703571D01*
X216734524Y-143798810D01*
X216734524Y-144036905D01*
X216686905Y-144132143D01*
X216639286Y-144179762D01*
X216544048Y-144227381D01*
X216258333Y-144227381D01*
X216163095Y-144179762D01*
X216115476Y-144132143D01*
X217639286Y-143227381D02*
X217163095Y-143227381D01*
X217115476Y-143703571D01*
X217163095Y-143655952D01*
X217258333Y-143608333D01*
X217496429Y-143608333D01*
X217591667Y-143655952D01*
X217639286Y-143703571D01*
X217686905Y-143798810D01*
X217686905Y-144036905D01*
X217639286Y-144132143D01*
X217591667Y-144179762D01*
X217496429Y-144227381D01*
X217258333Y-144227381D01*
X217163095Y-144179762D01*
X217115476Y-144132143D01*
X179507143Y-127742857D02*
X179554762Y-127790476D01*
X179602381Y-127933333D01*
X179602381Y-128028571D01*
X179554762Y-128171429D01*
X179459524Y-128266667D01*
X179364286Y-128314286D01*
X179173810Y-128361905D01*
X179030952Y-128361905D01*
X178840476Y-128314286D01*
X178745238Y-128266667D01*
X178650000Y-128171429D01*
X178602381Y-128028571D01*
X178602381Y-127933333D01*
X178650000Y-127790476D01*
X178697619Y-127742857D01*
X178602381Y-127409524D02*
X178602381Y-126790476D01*
X178983333Y-127123810D01*
X178983333Y-126980952D01*
X179030952Y-126885714D01*
X179078571Y-126838095D01*
X179173810Y-126790476D01*
X179411905Y-126790476D01*
X179507143Y-126838095D01*
X179554762Y-126885714D01*
X179602381Y-126980952D01*
X179602381Y-127266667D01*
X179554762Y-127361905D01*
X179507143Y-127409524D01*
X178602381Y-125933333D02*
X178602381Y-126123810D01*
X178650000Y-126219048D01*
X178697619Y-126266667D01*
X178840476Y-126361905D01*
X179030952Y-126409524D01*
X179411905Y-126409524D01*
X179507143Y-126361905D01*
X179554762Y-126314286D01*
X179602381Y-126219048D01*
X179602381Y-126028571D01*
X179554762Y-125933333D01*
X179507143Y-125885714D01*
X179411905Y-125838095D01*
X179173810Y-125838095D01*
X179078571Y-125885714D01*
X179030952Y-125933333D01*
X178983333Y-126028571D01*
X178983333Y-126219048D01*
X179030952Y-126314286D01*
X179078571Y-126361905D01*
X179173810Y-126409524D01*
X228357143Y-145757143D02*
X228309524Y-145804762D01*
X228166667Y-145852381D01*
X228071429Y-145852381D01*
X227928571Y-145804762D01*
X227833333Y-145709524D01*
X227785714Y-145614286D01*
X227738095Y-145423810D01*
X227738095Y-145280952D01*
X227785714Y-145090476D01*
X227833333Y-144995238D01*
X227928571Y-144900000D01*
X228071429Y-144852381D01*
X228166667Y-144852381D01*
X228309524Y-144900000D01*
X228357143Y-144947619D01*
X228690476Y-144852381D02*
X229309524Y-144852381D01*
X228976190Y-145233333D01*
X229119048Y-145233333D01*
X229214286Y-145280952D01*
X229261905Y-145328571D01*
X229309524Y-145423810D01*
X229309524Y-145661905D01*
X229261905Y-145757143D01*
X229214286Y-145804762D01*
X229119048Y-145852381D01*
X228833333Y-145852381D01*
X228738095Y-145804762D01*
X228690476Y-145757143D01*
X229642857Y-144852381D02*
X230309524Y-144852381D01*
X229880952Y-145852381D01*
X178557143Y-139157143D02*
X178509524Y-139204762D01*
X178366667Y-139252381D01*
X178271429Y-139252381D01*
X178128571Y-139204762D01*
X178033333Y-139109524D01*
X177985714Y-139014286D01*
X177938095Y-138823810D01*
X177938095Y-138680952D01*
X177985714Y-138490476D01*
X178033333Y-138395238D01*
X178128571Y-138300000D01*
X178271429Y-138252381D01*
X178366667Y-138252381D01*
X178509524Y-138300000D01*
X178557143Y-138347619D01*
X178890476Y-138252381D02*
X179509524Y-138252381D01*
X179176190Y-138633333D01*
X179319048Y-138633333D01*
X179414286Y-138680952D01*
X179461905Y-138728571D01*
X179509524Y-138823810D01*
X179509524Y-139061905D01*
X179461905Y-139157143D01*
X179414286Y-139204762D01*
X179319048Y-139252381D01*
X179033333Y-139252381D01*
X178938095Y-139204762D01*
X178890476Y-139157143D01*
X180080952Y-138680952D02*
X179985714Y-138633333D01*
X179938095Y-138585714D01*
X179890476Y-138490476D01*
X179890476Y-138442857D01*
X179938095Y-138347619D01*
X179985714Y-138300000D01*
X180080952Y-138252381D01*
X180271429Y-138252381D01*
X180366667Y-138300000D01*
X180414286Y-138347619D01*
X180461905Y-138442857D01*
X180461905Y-138490476D01*
X180414286Y-138585714D01*
X180366667Y-138633333D01*
X180271429Y-138680952D01*
X180080952Y-138680952D01*
X179985714Y-138728571D01*
X179938095Y-138776190D01*
X179890476Y-138871429D01*
X179890476Y-139061905D01*
X179938095Y-139157143D01*
X179985714Y-139204762D01*
X180080952Y-139252381D01*
X180271429Y-139252381D01*
X180366667Y-139204762D01*
X180414286Y-139157143D01*
X180461905Y-139061905D01*
X180461905Y-138871429D01*
X180414286Y-138776190D01*
X180366667Y-138728571D01*
X180271429Y-138680952D01*
X230532143Y-143132143D02*
X230484524Y-143179762D01*
X230341667Y-143227381D01*
X230246429Y-143227381D01*
X230103571Y-143179762D01*
X230008333Y-143084524D01*
X229960714Y-142989286D01*
X229913095Y-142798810D01*
X229913095Y-142655952D01*
X229960714Y-142465476D01*
X230008333Y-142370238D01*
X230103571Y-142275000D01*
X230246429Y-142227381D01*
X230341667Y-142227381D01*
X230484524Y-142275000D01*
X230532143Y-142322619D01*
X230865476Y-142227381D02*
X231484524Y-142227381D01*
X231151190Y-142608333D01*
X231294048Y-142608333D01*
X231389286Y-142655952D01*
X231436905Y-142703571D01*
X231484524Y-142798810D01*
X231484524Y-143036905D01*
X231436905Y-143132143D01*
X231389286Y-143179762D01*
X231294048Y-143227381D01*
X231008333Y-143227381D01*
X230913095Y-143179762D01*
X230865476Y-143132143D01*
X231960714Y-143227381D02*
X232151190Y-143227381D01*
X232246429Y-143179762D01*
X232294048Y-143132143D01*
X232389286Y-142989286D01*
X232436905Y-142798810D01*
X232436905Y-142417857D01*
X232389286Y-142322619D01*
X232341667Y-142275000D01*
X232246429Y-142227381D01*
X232055952Y-142227381D01*
X231960714Y-142275000D01*
X231913095Y-142322619D01*
X231865476Y-142417857D01*
X231865476Y-142655952D01*
X231913095Y-142751190D01*
X231960714Y-142798810D01*
X232055952Y-142846429D01*
X232246429Y-142846429D01*
X232341667Y-142798810D01*
X232389286Y-142751190D01*
X232436905Y-142655952D01*
X178757143Y-142357143D02*
X178709524Y-142404762D01*
X178566667Y-142452381D01*
X178471429Y-142452381D01*
X178328571Y-142404762D01*
X178233333Y-142309524D01*
X178185714Y-142214286D01*
X178138095Y-142023810D01*
X178138095Y-141880952D01*
X178185714Y-141690476D01*
X178233333Y-141595238D01*
X178328571Y-141500000D01*
X178471429Y-141452381D01*
X178566667Y-141452381D01*
X178709524Y-141500000D01*
X178757143Y-141547619D01*
X179614286Y-141785714D02*
X179614286Y-142452381D01*
X179376190Y-141404762D02*
X179138095Y-142119048D01*
X179757143Y-142119048D01*
X180328571Y-141452381D02*
X180423810Y-141452381D01*
X180519048Y-141500000D01*
X180566667Y-141547619D01*
X180614286Y-141642857D01*
X180661905Y-141833333D01*
X180661905Y-142071429D01*
X180614286Y-142261905D01*
X180566667Y-142357143D01*
X180519048Y-142404762D01*
X180423810Y-142452381D01*
X180328571Y-142452381D01*
X180233333Y-142404762D01*
X180185714Y-142357143D01*
X180138095Y-142261905D01*
X180090476Y-142071429D01*
X180090476Y-141833333D01*
X180138095Y-141642857D01*
X180185714Y-141547619D01*
X180233333Y-141500000D01*
X180328571Y-141452381D01*
X229157143Y-135842857D02*
X229204762Y-135890476D01*
X229252381Y-136033333D01*
X229252381Y-136128571D01*
X229204762Y-136271429D01*
X229109524Y-136366667D01*
X229014286Y-136414286D01*
X228823810Y-136461905D01*
X228680952Y-136461905D01*
X228490476Y-136414286D01*
X228395238Y-136366667D01*
X228300000Y-136271429D01*
X228252381Y-136128571D01*
X228252381Y-136033333D01*
X228300000Y-135890476D01*
X228347619Y-135842857D01*
X228585714Y-134985714D02*
X229252381Y-134985714D01*
X228204762Y-135223810D02*
X228919048Y-135461905D01*
X228919048Y-134842857D01*
X229252381Y-133938095D02*
X229252381Y-134509524D01*
X229252381Y-134223810D02*
X228252381Y-134223810D01*
X228395238Y-134319048D01*
X228490476Y-134414286D01*
X228538095Y-134509524D01*
X187257143Y-139207143D02*
X187209524Y-139254762D01*
X187066667Y-139302381D01*
X186971429Y-139302381D01*
X186828571Y-139254762D01*
X186733333Y-139159524D01*
X186685714Y-139064286D01*
X186638095Y-138873810D01*
X186638095Y-138730952D01*
X186685714Y-138540476D01*
X186733333Y-138445238D01*
X186828571Y-138350000D01*
X186971429Y-138302381D01*
X187066667Y-138302381D01*
X187209524Y-138350000D01*
X187257143Y-138397619D01*
X188114286Y-138635714D02*
X188114286Y-139302381D01*
X187876190Y-138254762D02*
X187638095Y-138969048D01*
X188257143Y-138969048D01*
X188590476Y-138397619D02*
X188638095Y-138350000D01*
X188733333Y-138302381D01*
X188971429Y-138302381D01*
X189066667Y-138350000D01*
X189114286Y-138397619D01*
X189161905Y-138492857D01*
X189161905Y-138588095D01*
X189114286Y-138730952D01*
X188542857Y-139302381D01*
X189161905Y-139302381D01*
X221032143Y-130667857D02*
X221079762Y-130715476D01*
X221127381Y-130858333D01*
X221127381Y-130953571D01*
X221079762Y-131096429D01*
X220984524Y-131191667D01*
X220889286Y-131239286D01*
X220698810Y-131286905D01*
X220555952Y-131286905D01*
X220365476Y-131239286D01*
X220270238Y-131191667D01*
X220175000Y-131096429D01*
X220127381Y-130953571D01*
X220127381Y-130858333D01*
X220175000Y-130715476D01*
X220222619Y-130667857D01*
X220460714Y-129810714D02*
X221127381Y-129810714D01*
X220079762Y-130048810D02*
X220794048Y-130286905D01*
X220794048Y-129667857D01*
X220127381Y-129382143D02*
X220127381Y-128763095D01*
X220508333Y-129096429D01*
X220508333Y-128953571D01*
X220555952Y-128858333D01*
X220603571Y-128810714D01*
X220698810Y-128763095D01*
X220936905Y-128763095D01*
X221032143Y-128810714D01*
X221079762Y-128858333D01*
X221127381Y-128953571D01*
X221127381Y-129239286D01*
X221079762Y-129334524D01*
X221032143Y-129382143D01*
X235157143Y-137957143D02*
X235109524Y-138004762D01*
X234966667Y-138052381D01*
X234871429Y-138052381D01*
X234728571Y-138004762D01*
X234633333Y-137909524D01*
X234585714Y-137814286D01*
X234538095Y-137623810D01*
X234538095Y-137480952D01*
X234585714Y-137290476D01*
X234633333Y-137195238D01*
X234728571Y-137100000D01*
X234871429Y-137052381D01*
X234966667Y-137052381D01*
X235109524Y-137100000D01*
X235157143Y-137147619D01*
X236014286Y-137385714D02*
X236014286Y-138052381D01*
X235776190Y-137004762D02*
X235538095Y-137719048D01*
X236157143Y-137719048D01*
X236966667Y-137385714D02*
X236966667Y-138052381D01*
X236728571Y-137004762D02*
X236490476Y-137719048D01*
X237109524Y-137719048D01*
X191757143Y-130957143D02*
X191709524Y-131004762D01*
X191566667Y-131052381D01*
X191471429Y-131052381D01*
X191328571Y-131004762D01*
X191233333Y-130909524D01*
X191185714Y-130814286D01*
X191138095Y-130623810D01*
X191138095Y-130480952D01*
X191185714Y-130290476D01*
X191233333Y-130195238D01*
X191328571Y-130100000D01*
X191471429Y-130052381D01*
X191566667Y-130052381D01*
X191709524Y-130100000D01*
X191757143Y-130147619D01*
X192614286Y-130385714D02*
X192614286Y-131052381D01*
X192376190Y-130004762D02*
X192138095Y-130719048D01*
X192757143Y-130719048D01*
X193614286Y-130052381D02*
X193138095Y-130052381D01*
X193090476Y-130528571D01*
X193138095Y-130480952D01*
X193233333Y-130433333D01*
X193471429Y-130433333D01*
X193566667Y-130480952D01*
X193614286Y-130528571D01*
X193661905Y-130623810D01*
X193661905Y-130861905D01*
X193614286Y-130957143D01*
X193566667Y-131004762D01*
X193471429Y-131052381D01*
X193233333Y-131052381D01*
X193138095Y-131004762D01*
X193090476Y-130957143D01*
X187257143Y-145707143D02*
X187209524Y-145754762D01*
X187066667Y-145802381D01*
X186971429Y-145802381D01*
X186828571Y-145754762D01*
X186733333Y-145659524D01*
X186685714Y-145564286D01*
X186638095Y-145373810D01*
X186638095Y-145230952D01*
X186685714Y-145040476D01*
X186733333Y-144945238D01*
X186828571Y-144850000D01*
X186971429Y-144802381D01*
X187066667Y-144802381D01*
X187209524Y-144850000D01*
X187257143Y-144897619D01*
X188114286Y-145135714D02*
X188114286Y-145802381D01*
X187876190Y-144754762D02*
X187638095Y-145469048D01*
X188257143Y-145469048D01*
X189066667Y-144802381D02*
X188876190Y-144802381D01*
X188780952Y-144850000D01*
X188733333Y-144897619D01*
X188638095Y-145040476D01*
X188590476Y-145230952D01*
X188590476Y-145611905D01*
X188638095Y-145707143D01*
X188685714Y-145754762D01*
X188780952Y-145802381D01*
X188971429Y-145802381D01*
X189066667Y-145754762D01*
X189114286Y-145707143D01*
X189161905Y-145611905D01*
X189161905Y-145373810D01*
X189114286Y-145278571D01*
X189066667Y-145230952D01*
X188971429Y-145183333D01*
X188780952Y-145183333D01*
X188685714Y-145230952D01*
X188638095Y-145278571D01*
X188590476Y-145373810D01*
X222782143Y-128417857D02*
X222829762Y-128465476D01*
X222877381Y-128608333D01*
X222877381Y-128703571D01*
X222829762Y-128846429D01*
X222734524Y-128941667D01*
X222639286Y-128989286D01*
X222448810Y-129036905D01*
X222305952Y-129036905D01*
X222115476Y-128989286D01*
X222020238Y-128941667D01*
X221925000Y-128846429D01*
X221877381Y-128703571D01*
X221877381Y-128608333D01*
X221925000Y-128465476D01*
X221972619Y-128417857D01*
X222210714Y-127560714D02*
X222877381Y-127560714D01*
X221829762Y-127798810D02*
X222544048Y-128036905D01*
X222544048Y-127417857D01*
X221877381Y-127132143D02*
X221877381Y-126465476D01*
X222877381Y-126894048D01*
X227082143Y-128882143D02*
X227129762Y-128834524D01*
X227177381Y-128882143D01*
X227129762Y-128929762D01*
X227082143Y-128882143D01*
X227177381Y-128882143D01*
X227177381Y-127882143D02*
X227177381Y-128453572D01*
X227177381Y-128167858D02*
X226177381Y-128167858D01*
X226320238Y-128263096D01*
X226415476Y-128358334D01*
X226463095Y-128453572D01*
X226510714Y-127025000D02*
X227177381Y-127025000D01*
X226510714Y-127453572D02*
X227034524Y-127453572D01*
X227129762Y-127405953D01*
X227177381Y-127310715D01*
X227177381Y-127167857D01*
X227129762Y-127072619D01*
X227082143Y-127025000D01*
X226653571Y-126215476D02*
X226653571Y-126548810D01*
X227177381Y-126548810D02*
X226177381Y-126548810D01*
X226177381Y-126072619D01*
X194507143Y-132657143D02*
X194459524Y-132704762D01*
X194316667Y-132752381D01*
X194221429Y-132752381D01*
X194078571Y-132704762D01*
X193983333Y-132609524D01*
X193935714Y-132514286D01*
X193888095Y-132323810D01*
X193888095Y-132180952D01*
X193935714Y-131990476D01*
X193983333Y-131895238D01*
X194078571Y-131800000D01*
X194221429Y-131752381D01*
X194316667Y-131752381D01*
X194459524Y-131800000D01*
X194507143Y-131847619D01*
X195364286Y-132085714D02*
X195364286Y-132752381D01*
X195126190Y-131704762D02*
X194888095Y-132419048D01*
X195507143Y-132419048D01*
X196030952Y-132180952D02*
X195935714Y-132133333D01*
X195888095Y-132085714D01*
X195840476Y-131990476D01*
X195840476Y-131942857D01*
X195888095Y-131847619D01*
X195935714Y-131800000D01*
X196030952Y-131752381D01*
X196221429Y-131752381D01*
X196316667Y-131800000D01*
X196364286Y-131847619D01*
X196411905Y-131942857D01*
X196411905Y-131990476D01*
X196364286Y-132085714D01*
X196316667Y-132133333D01*
X196221429Y-132180952D01*
X196030952Y-132180952D01*
X195935714Y-132228571D01*
X195888095Y-132276190D01*
X195840476Y-132371429D01*
X195840476Y-132561905D01*
X195888095Y-132657143D01*
X195935714Y-132704762D01*
X196030952Y-132752381D01*
X196221429Y-132752381D01*
X196316667Y-132704762D01*
X196364286Y-132657143D01*
X196411905Y-132561905D01*
X196411905Y-132371429D01*
X196364286Y-132276190D01*
X196316667Y-132228571D01*
X196221429Y-132180952D01*
X193792857Y-137257143D02*
X193840476Y-137304762D01*
X193792857Y-137352381D01*
X193745238Y-137304762D01*
X193792857Y-137257143D01*
X193792857Y-137352381D01*
X194792857Y-137352381D02*
X194221428Y-137352381D01*
X194507142Y-137352381D02*
X194507142Y-136352381D01*
X194411904Y-136495238D01*
X194316666Y-136590476D01*
X194221428Y-136638095D01*
X195650000Y-136685714D02*
X195650000Y-137352381D01*
X195221428Y-136685714D02*
X195221428Y-137209524D01*
X195269047Y-137304762D01*
X195364285Y-137352381D01*
X195507143Y-137352381D01*
X195602381Y-137304762D01*
X195650000Y-137257143D01*
X196459524Y-136828571D02*
X196126190Y-136828571D01*
X196126190Y-137352381D02*
X196126190Y-136352381D01*
X196602381Y-136352381D01*
X218282143Y-130667857D02*
X218329762Y-130715476D01*
X218377381Y-130858333D01*
X218377381Y-130953571D01*
X218329762Y-131096429D01*
X218234524Y-131191667D01*
X218139286Y-131239286D01*
X217948810Y-131286905D01*
X217805952Y-131286905D01*
X217615476Y-131239286D01*
X217520238Y-131191667D01*
X217425000Y-131096429D01*
X217377381Y-130953571D01*
X217377381Y-130858333D01*
X217425000Y-130715476D01*
X217472619Y-130667857D01*
X217710714Y-129810714D02*
X218377381Y-129810714D01*
X217329762Y-130048810D02*
X218044048Y-130286905D01*
X218044048Y-129667857D01*
X218377381Y-129239286D02*
X218377381Y-129048810D01*
X218329762Y-128953571D01*
X218282143Y-128905952D01*
X218139286Y-128810714D01*
X217948810Y-128763095D01*
X217567857Y-128763095D01*
X217472619Y-128810714D01*
X217425000Y-128858333D01*
X217377381Y-128953571D01*
X217377381Y-129144048D01*
X217425000Y-129239286D01*
X217472619Y-129286905D01*
X217567857Y-129334524D01*
X217805952Y-129334524D01*
X217901190Y-129286905D01*
X217948810Y-129239286D01*
X217996429Y-129144048D01*
X217996429Y-128953571D01*
X217948810Y-128858333D01*
X217901190Y-128810714D01*
X217805952Y-128763095D01*
X191757143Y-128207143D02*
X191709524Y-128254762D01*
X191566667Y-128302381D01*
X191471429Y-128302381D01*
X191328571Y-128254762D01*
X191233333Y-128159524D01*
X191185714Y-128064286D01*
X191138095Y-127873810D01*
X191138095Y-127730952D01*
X191185714Y-127540476D01*
X191233333Y-127445238D01*
X191328571Y-127350000D01*
X191471429Y-127302381D01*
X191566667Y-127302381D01*
X191709524Y-127350000D01*
X191757143Y-127397619D01*
X192661905Y-127302381D02*
X192185714Y-127302381D01*
X192138095Y-127778571D01*
X192185714Y-127730952D01*
X192280952Y-127683333D01*
X192519048Y-127683333D01*
X192614286Y-127730952D01*
X192661905Y-127778571D01*
X192709524Y-127873810D01*
X192709524Y-128111905D01*
X192661905Y-128207143D01*
X192614286Y-128254762D01*
X192519048Y-128302381D01*
X192280952Y-128302381D01*
X192185714Y-128254762D01*
X192138095Y-128207143D01*
X193328571Y-127302381D02*
X193423810Y-127302381D01*
X193519048Y-127350000D01*
X193566667Y-127397619D01*
X193614286Y-127492857D01*
X193661905Y-127683333D01*
X193661905Y-127921429D01*
X193614286Y-128111905D01*
X193566667Y-128207143D01*
X193519048Y-128254762D01*
X193423810Y-128302381D01*
X193328571Y-128302381D01*
X193233333Y-128254762D01*
X193185714Y-128207143D01*
X193138095Y-128111905D01*
X193090476Y-127921429D01*
X193090476Y-127683333D01*
X193138095Y-127492857D01*
X193185714Y-127397619D01*
X193233333Y-127350000D01*
X193328571Y-127302381D01*
X193566667Y-88328571D02*
X193233333Y-88328571D01*
X193233333Y-88852381D02*
X193233333Y-87852381D01*
X193709524Y-87852381D01*
X194423810Y-88328571D02*
X194566667Y-88376190D01*
X194614286Y-88423810D01*
X194661905Y-88519048D01*
X194661905Y-88661905D01*
X194614286Y-88757143D01*
X194566667Y-88804762D01*
X194471429Y-88852381D01*
X194090476Y-88852381D01*
X194090476Y-87852381D01*
X194423810Y-87852381D01*
X194519048Y-87900000D01*
X194566667Y-87947619D01*
X194614286Y-88042857D01*
X194614286Y-88138095D01*
X194566667Y-88233333D01*
X194519048Y-88280952D01*
X194423810Y-88328571D01*
X194090476Y-88328571D01*
X195614286Y-88852381D02*
X195042857Y-88852381D01*
X195328571Y-88852381D02*
X195328571Y-87852381D01*
X195233333Y-87995238D01*
X195138095Y-88090476D01*
X195042857Y-88138095D01*
X180333334Y-71652381D02*
X179857143Y-71652381D01*
X179857143Y-70652381D01*
X180571429Y-70652381D02*
X181190477Y-70652381D01*
X180857143Y-71033333D01*
X181000001Y-71033333D01*
X181095239Y-71080952D01*
X181142858Y-71128571D01*
X181190477Y-71223810D01*
X181190477Y-71461905D01*
X181142858Y-71557143D01*
X181095239Y-71604762D01*
X181000001Y-71652381D01*
X180714286Y-71652381D01*
X180619048Y-71604762D01*
X180571429Y-71557143D01*
X226633334Y-58052381D02*
X226157143Y-58052381D01*
X226157143Y-57052381D01*
X227395239Y-57385714D02*
X227395239Y-58052381D01*
X227157143Y-57004762D02*
X226919048Y-57719048D01*
X227538096Y-57719048D01*
X235033334Y-130652381D02*
X234557143Y-130652381D01*
X234557143Y-129652381D01*
X235842858Y-129652381D02*
X235366667Y-129652381D01*
X235319048Y-130128571D01*
X235366667Y-130080952D01*
X235461905Y-130033333D01*
X235700001Y-130033333D01*
X235795239Y-130080952D01*
X235842858Y-130128571D01*
X235890477Y-130223810D01*
X235890477Y-130461905D01*
X235842858Y-130557143D01*
X235795239Y-130604762D01*
X235700001Y-130652381D01*
X235461905Y-130652381D01*
X235366667Y-130604762D01*
X235319048Y-130557143D01*
X171048334Y-96137381D02*
X170715000Y-95661190D01*
X170476905Y-96137381D02*
X170476905Y-95137381D01*
X170857858Y-95137381D01*
X170953096Y-95185000D01*
X171000715Y-95232619D01*
X171048334Y-95327857D01*
X171048334Y-95470714D01*
X171000715Y-95565952D01*
X170953096Y-95613571D01*
X170857858Y-95661190D01*
X170476905Y-95661190D01*
X172000715Y-96137381D02*
X171429286Y-96137381D01*
X171715000Y-96137381D02*
X171715000Y-95137381D01*
X171619762Y-95280238D01*
X171524524Y-95375476D01*
X171429286Y-95423095D01*
X171048334Y-93637381D02*
X170715000Y-93161190D01*
X170476905Y-93637381D02*
X170476905Y-92637381D01*
X170857858Y-92637381D01*
X170953096Y-92685000D01*
X171000715Y-92732619D01*
X171048334Y-92827857D01*
X171048334Y-92970714D01*
X171000715Y-93065952D01*
X170953096Y-93113571D01*
X170857858Y-93161190D01*
X170476905Y-93161190D01*
X171429286Y-92732619D02*
X171476905Y-92685000D01*
X171572143Y-92637381D01*
X171810239Y-92637381D01*
X171905477Y-92685000D01*
X171953096Y-92732619D01*
X172000715Y-92827857D01*
X172000715Y-92923095D01*
X171953096Y-93065952D01*
X171381667Y-93637381D01*
X172000715Y-93637381D01*
X246292381Y-88106666D02*
X245816190Y-88440000D01*
X246292381Y-88678095D02*
X245292381Y-88678095D01*
X245292381Y-88297142D01*
X245340000Y-88201904D01*
X245387619Y-88154285D01*
X245482857Y-88106666D01*
X245625714Y-88106666D01*
X245720952Y-88154285D01*
X245768571Y-88201904D01*
X245816190Y-88297142D01*
X245816190Y-88678095D01*
X245292381Y-87773333D02*
X245292381Y-87154285D01*
X245673333Y-87487619D01*
X245673333Y-87344761D01*
X245720952Y-87249523D01*
X245768571Y-87201904D01*
X245863810Y-87154285D01*
X246101905Y-87154285D01*
X246197143Y-87201904D01*
X246244762Y-87249523D01*
X246292381Y-87344761D01*
X246292381Y-87630476D01*
X246244762Y-87725714D01*
X246197143Y-87773333D01*
X249042381Y-88106666D02*
X248566190Y-88440000D01*
X249042381Y-88678095D02*
X248042381Y-88678095D01*
X248042381Y-88297142D01*
X248090000Y-88201904D01*
X248137619Y-88154285D01*
X248232857Y-88106666D01*
X248375714Y-88106666D01*
X248470952Y-88154285D01*
X248518571Y-88201904D01*
X248566190Y-88297142D01*
X248566190Y-88678095D01*
X248375714Y-87249523D02*
X249042381Y-87249523D01*
X247994762Y-87487619D02*
X248709048Y-87725714D01*
X248709048Y-87106666D01*
X198333334Y-55652381D02*
X198000000Y-55176190D01*
X197761905Y-55652381D02*
X197761905Y-54652381D01*
X198142858Y-54652381D01*
X198238096Y-54700000D01*
X198285715Y-54747619D01*
X198333334Y-54842857D01*
X198333334Y-54985714D01*
X198285715Y-55080952D01*
X198238096Y-55128571D01*
X198142858Y-55176190D01*
X197761905Y-55176190D01*
X199238096Y-54652381D02*
X198761905Y-54652381D01*
X198714286Y-55128571D01*
X198761905Y-55080952D01*
X198857143Y-55033333D01*
X199095239Y-55033333D01*
X199190477Y-55080952D01*
X199238096Y-55128571D01*
X199285715Y-55223810D01*
X199285715Y-55461905D01*
X199238096Y-55557143D01*
X199190477Y-55604762D01*
X199095239Y-55652381D01*
X198857143Y-55652381D01*
X198761905Y-55604762D01*
X198714286Y-55557143D01*
X242952381Y-76366666D02*
X242476190Y-76700000D01*
X242952381Y-76938095D02*
X241952381Y-76938095D01*
X241952381Y-76557142D01*
X242000000Y-76461904D01*
X242047619Y-76414285D01*
X242142857Y-76366666D01*
X242285714Y-76366666D01*
X242380952Y-76414285D01*
X242428571Y-76461904D01*
X242476190Y-76557142D01*
X242476190Y-76938095D01*
X241952381Y-75509523D02*
X241952381Y-75700000D01*
X242000000Y-75795238D01*
X242047619Y-75842857D01*
X242190476Y-75938095D01*
X242380952Y-75985714D01*
X242761905Y-75985714D01*
X242857143Y-75938095D01*
X242904762Y-75890476D01*
X242952381Y-75795238D01*
X242952381Y-75604761D01*
X242904762Y-75509523D01*
X242857143Y-75461904D01*
X242761905Y-75414285D01*
X242523810Y-75414285D01*
X242428571Y-75461904D01*
X242380952Y-75509523D01*
X242333333Y-75604761D01*
X242333333Y-75795238D01*
X242380952Y-75890476D01*
X242428571Y-75938095D01*
X242523810Y-75985714D01*
X198333334Y-61152381D02*
X198000000Y-60676190D01*
X197761905Y-61152381D02*
X197761905Y-60152381D01*
X198142858Y-60152381D01*
X198238096Y-60200000D01*
X198285715Y-60247619D01*
X198333334Y-60342857D01*
X198333334Y-60485714D01*
X198285715Y-60580952D01*
X198238096Y-60628571D01*
X198142858Y-60676190D01*
X197761905Y-60676190D01*
X198666667Y-60152381D02*
X199333334Y-60152381D01*
X198904762Y-61152381D01*
X237452381Y-76366666D02*
X236976190Y-76700000D01*
X237452381Y-76938095D02*
X236452381Y-76938095D01*
X236452381Y-76557142D01*
X236500000Y-76461904D01*
X236547619Y-76414285D01*
X236642857Y-76366666D01*
X236785714Y-76366666D01*
X236880952Y-76414285D01*
X236928571Y-76461904D01*
X236976190Y-76557142D01*
X236976190Y-76938095D01*
X236880952Y-75795238D02*
X236833333Y-75890476D01*
X236785714Y-75938095D01*
X236690476Y-75985714D01*
X236642857Y-75985714D01*
X236547619Y-75938095D01*
X236500000Y-75890476D01*
X236452381Y-75795238D01*
X236452381Y-75604761D01*
X236500000Y-75509523D01*
X236547619Y-75461904D01*
X236642857Y-75414285D01*
X236690476Y-75414285D01*
X236785714Y-75461904D01*
X236833333Y-75509523D01*
X236880952Y-75604761D01*
X236880952Y-75795238D01*
X236928571Y-75890476D01*
X236976190Y-75938095D01*
X237071429Y-75985714D01*
X237261905Y-75985714D01*
X237357143Y-75938095D01*
X237404762Y-75890476D01*
X237452381Y-75795238D01*
X237452381Y-75604761D01*
X237404762Y-75509523D01*
X237357143Y-75461904D01*
X237261905Y-75414285D01*
X237071429Y-75414285D01*
X236976190Y-75461904D01*
X236928571Y-75509523D01*
X236880952Y-75604761D01*
X200702381Y-70616666D02*
X200226190Y-70950000D01*
X200702381Y-71188095D02*
X199702381Y-71188095D01*
X199702381Y-70807142D01*
X199750000Y-70711904D01*
X199797619Y-70664285D01*
X199892857Y-70616666D01*
X200035714Y-70616666D01*
X200130952Y-70664285D01*
X200178571Y-70711904D01*
X200226190Y-70807142D01*
X200226190Y-71188095D01*
X200702381Y-70140476D02*
X200702381Y-69950000D01*
X200654762Y-69854761D01*
X200607143Y-69807142D01*
X200464286Y-69711904D01*
X200273810Y-69664285D01*
X199892857Y-69664285D01*
X199797619Y-69711904D01*
X199750000Y-69759523D01*
X199702381Y-69854761D01*
X199702381Y-70045238D01*
X199750000Y-70140476D01*
X199797619Y-70188095D01*
X199892857Y-70235714D01*
X200130952Y-70235714D01*
X200226190Y-70188095D01*
X200273810Y-70140476D01*
X200321429Y-70045238D01*
X200321429Y-69854761D01*
X200273810Y-69759523D01*
X200226190Y-69711904D01*
X200130952Y-69664285D01*
X226107143Y-78152381D02*
X225773809Y-77676190D01*
X225535714Y-78152381D02*
X225535714Y-77152381D01*
X225916667Y-77152381D01*
X226011905Y-77200000D01*
X226059524Y-77247619D01*
X226107143Y-77342857D01*
X226107143Y-77485714D01*
X226059524Y-77580952D01*
X226011905Y-77628571D01*
X225916667Y-77676190D01*
X225535714Y-77676190D01*
X227059524Y-78152381D02*
X226488095Y-78152381D01*
X226773809Y-78152381D02*
X226773809Y-77152381D01*
X226678571Y-77295238D01*
X226583333Y-77390476D01*
X226488095Y-77438095D01*
X227678571Y-77152381D02*
X227773810Y-77152381D01*
X227869048Y-77200000D01*
X227916667Y-77247619D01*
X227964286Y-77342857D01*
X228011905Y-77533333D01*
X228011905Y-77771429D01*
X227964286Y-77961905D01*
X227916667Y-78057143D01*
X227869048Y-78104762D01*
X227773810Y-78152381D01*
X227678571Y-78152381D01*
X227583333Y-78104762D01*
X227535714Y-78057143D01*
X227488095Y-77961905D01*
X227440476Y-77771429D01*
X227440476Y-77533333D01*
X227488095Y-77342857D01*
X227535714Y-77247619D01*
X227583333Y-77200000D01*
X227678571Y-77152381D01*
X215782143Y-146977381D02*
X215448809Y-146501190D01*
X215210714Y-146977381D02*
X215210714Y-145977381D01*
X215591667Y-145977381D01*
X215686905Y-146025000D01*
X215734524Y-146072619D01*
X215782143Y-146167857D01*
X215782143Y-146310714D01*
X215734524Y-146405952D01*
X215686905Y-146453571D01*
X215591667Y-146501190D01*
X215210714Y-146501190D01*
X216734524Y-146977381D02*
X216163095Y-146977381D01*
X216448809Y-146977381D02*
X216448809Y-145977381D01*
X216353571Y-146120238D01*
X216258333Y-146215476D01*
X216163095Y-146263095D01*
X217686905Y-146977381D02*
X217115476Y-146977381D01*
X217401190Y-146977381D02*
X217401190Y-145977381D01*
X217305952Y-146120238D01*
X217210714Y-146215476D01*
X217115476Y-146263095D01*
X176852381Y-127742857D02*
X176376190Y-128076191D01*
X176852381Y-128314286D02*
X175852381Y-128314286D01*
X175852381Y-127933333D01*
X175900000Y-127838095D01*
X175947619Y-127790476D01*
X176042857Y-127742857D01*
X176185714Y-127742857D01*
X176280952Y-127790476D01*
X176328571Y-127838095D01*
X176376190Y-127933333D01*
X176376190Y-128314286D01*
X176852381Y-126790476D02*
X176852381Y-127361905D01*
X176852381Y-127076191D02*
X175852381Y-127076191D01*
X175995238Y-127171429D01*
X176090476Y-127266667D01*
X176138095Y-127361905D01*
X175947619Y-126409524D02*
X175900000Y-126361905D01*
X175852381Y-126266667D01*
X175852381Y-126028571D01*
X175900000Y-125933333D01*
X175947619Y-125885714D01*
X176042857Y-125838095D01*
X176138095Y-125838095D01*
X176280952Y-125885714D01*
X176852381Y-126457143D01*
X176852381Y-125838095D01*
X215782143Y-141477381D02*
X215448809Y-141001190D01*
X215210714Y-141477381D02*
X215210714Y-140477381D01*
X215591667Y-140477381D01*
X215686905Y-140525000D01*
X215734524Y-140572619D01*
X215782143Y-140667857D01*
X215782143Y-140810714D01*
X215734524Y-140905952D01*
X215686905Y-140953571D01*
X215591667Y-141001190D01*
X215210714Y-141001190D01*
X216734524Y-141477381D02*
X216163095Y-141477381D01*
X216448809Y-141477381D02*
X216448809Y-140477381D01*
X216353571Y-140620238D01*
X216258333Y-140715476D01*
X216163095Y-140763095D01*
X217067857Y-140477381D02*
X217686905Y-140477381D01*
X217353571Y-140858333D01*
X217496429Y-140858333D01*
X217591667Y-140905952D01*
X217639286Y-140953571D01*
X217686905Y-141048810D01*
X217686905Y-141286905D01*
X217639286Y-141382143D01*
X217591667Y-141429762D01*
X217496429Y-141477381D01*
X217210714Y-141477381D01*
X217115476Y-141429762D01*
X217067857Y-141382143D01*
X182352381Y-127742857D02*
X181876190Y-128076191D01*
X182352381Y-128314286D02*
X181352381Y-128314286D01*
X181352381Y-127933333D01*
X181400000Y-127838095D01*
X181447619Y-127790476D01*
X181542857Y-127742857D01*
X181685714Y-127742857D01*
X181780952Y-127790476D01*
X181828571Y-127838095D01*
X181876190Y-127933333D01*
X181876190Y-128314286D01*
X182352381Y-126790476D02*
X182352381Y-127361905D01*
X182352381Y-127076191D02*
X181352381Y-127076191D01*
X181495238Y-127171429D01*
X181590476Y-127266667D01*
X181638095Y-127361905D01*
X181685714Y-125933333D02*
X182352381Y-125933333D01*
X181304762Y-126171429D02*
X182019048Y-126409524D01*
X182019048Y-125790476D01*
X215877381Y-130667857D02*
X215401190Y-131001191D01*
X215877381Y-131239286D02*
X214877381Y-131239286D01*
X214877381Y-130858333D01*
X214925000Y-130763095D01*
X214972619Y-130715476D01*
X215067857Y-130667857D01*
X215210714Y-130667857D01*
X215305952Y-130715476D01*
X215353571Y-130763095D01*
X215401190Y-130858333D01*
X215401190Y-131239286D01*
X215877381Y-129715476D02*
X215877381Y-130286905D01*
X215877381Y-130001191D02*
X214877381Y-130001191D01*
X215020238Y-130096429D01*
X215115476Y-130191667D01*
X215163095Y-130286905D01*
X214877381Y-128810714D02*
X214877381Y-129286905D01*
X215353571Y-129334524D01*
X215305952Y-129286905D01*
X215258333Y-129191667D01*
X215258333Y-128953571D01*
X215305952Y-128858333D01*
X215353571Y-128810714D01*
X215448810Y-128763095D01*
X215686905Y-128763095D01*
X215782143Y-128810714D01*
X215829762Y-128858333D01*
X215877381Y-128953571D01*
X215877381Y-129191667D01*
X215829762Y-129286905D01*
X215782143Y-129334524D01*
X191757143Y-125302381D02*
X191423809Y-124826190D01*
X191185714Y-125302381D02*
X191185714Y-124302381D01*
X191566667Y-124302381D01*
X191661905Y-124350000D01*
X191709524Y-124397619D01*
X191757143Y-124492857D01*
X191757143Y-124635714D01*
X191709524Y-124730952D01*
X191661905Y-124778571D01*
X191566667Y-124826190D01*
X191185714Y-124826190D01*
X192709524Y-125302381D02*
X192138095Y-125302381D01*
X192423809Y-125302381D02*
X192423809Y-124302381D01*
X192328571Y-124445238D01*
X192233333Y-124540476D01*
X192138095Y-124588095D01*
X193566667Y-124302381D02*
X193376190Y-124302381D01*
X193280952Y-124350000D01*
X193233333Y-124397619D01*
X193138095Y-124540476D01*
X193090476Y-124730952D01*
X193090476Y-125111905D01*
X193138095Y-125207143D01*
X193185714Y-125254762D01*
X193280952Y-125302381D01*
X193471429Y-125302381D01*
X193566667Y-125254762D01*
X193614286Y-125207143D01*
X193661905Y-125111905D01*
X193661905Y-124873810D01*
X193614286Y-124778571D01*
X193566667Y-124730952D01*
X193471429Y-124683333D01*
X193280952Y-124683333D01*
X193185714Y-124730952D01*
X193138095Y-124778571D01*
X193090476Y-124873810D01*
X211752381Y-107311905D02*
X212561905Y-107311905D01*
X212657143Y-107264286D01*
X212704762Y-107216667D01*
X212752381Y-107121429D01*
X212752381Y-106930952D01*
X212704762Y-106835714D01*
X212657143Y-106788095D01*
X212561905Y-106740476D01*
X211752381Y-106740476D01*
X212752381Y-105740476D02*
X212752381Y-106311905D01*
X212752381Y-106026191D02*
X211752381Y-106026191D01*
X211895238Y-106121429D01*
X211990476Y-106216667D01*
X212038095Y-106311905D01*
X192438095Y-117252381D02*
X192438095Y-118061905D01*
X192485714Y-118157143D01*
X192533333Y-118204762D01*
X192628571Y-118252381D01*
X192819048Y-118252381D01*
X192914286Y-118204762D01*
X192961905Y-118157143D01*
X193009524Y-118061905D01*
X193009524Y-117252381D01*
X193438095Y-117347619D02*
X193485714Y-117300000D01*
X193580952Y-117252381D01*
X193819048Y-117252381D01*
X193914286Y-117300000D01*
X193961905Y-117347619D01*
X194009524Y-117442857D01*
X194009524Y-117538095D01*
X193961905Y-117680952D01*
X193390476Y-118252381D01*
X194009524Y-118252381D01*
X217438095Y-121052381D02*
X217438095Y-121861905D01*
X217485714Y-121957143D01*
X217533333Y-122004762D01*
X217628571Y-122052381D01*
X217819048Y-122052381D01*
X217914286Y-122004762D01*
X217961905Y-121957143D01*
X218009524Y-121861905D01*
X218009524Y-121052381D01*
X218390476Y-121052381D02*
X219009524Y-121052381D01*
X218676190Y-121433333D01*
X218819048Y-121433333D01*
X218914286Y-121480952D01*
X218961905Y-121528571D01*
X219009524Y-121623810D01*
X219009524Y-121861905D01*
X218961905Y-121957143D01*
X218914286Y-122004762D01*
X218819048Y-122052381D01*
X218533333Y-122052381D01*
X218438095Y-122004762D01*
X218390476Y-121957143D01*
X169438095Y-106652381D02*
X169438095Y-107461905D01*
X169485714Y-107557143D01*
X169533333Y-107604762D01*
X169628571Y-107652381D01*
X169819048Y-107652381D01*
X169914286Y-107604762D01*
X169961905Y-107557143D01*
X170009524Y-107461905D01*
X170009524Y-106652381D01*
X170914286Y-106985714D02*
X170914286Y-107652381D01*
X170676190Y-106604762D02*
X170438095Y-107319048D01*
X171057143Y-107319048D01*
X234038095Y-85052381D02*
X234038095Y-85861905D01*
X234085714Y-85957143D01*
X234133333Y-86004762D01*
X234228571Y-86052381D01*
X234419048Y-86052381D01*
X234514286Y-86004762D01*
X234561905Y-85957143D01*
X234609524Y-85861905D01*
X234609524Y-85052381D01*
X235561905Y-85052381D02*
X235085714Y-85052381D01*
X235038095Y-85528571D01*
X235085714Y-85480952D01*
X235180952Y-85433333D01*
X235419048Y-85433333D01*
X235514286Y-85480952D01*
X235561905Y-85528571D01*
X235609524Y-85623810D01*
X235609524Y-85861905D01*
X235561905Y-85957143D01*
X235514286Y-86004762D01*
X235419048Y-86052381D01*
X235180952Y-86052381D01*
X235085714Y-86004762D01*
X235038095Y-85957143D01*
X192452381Y-69961905D02*
X193261905Y-69961905D01*
X193357143Y-69914286D01*
X193404762Y-69866667D01*
X193452381Y-69771429D01*
X193452381Y-69580952D01*
X193404762Y-69485714D01*
X193357143Y-69438095D01*
X193261905Y-69390476D01*
X192452381Y-69390476D01*
X192452381Y-68485714D02*
X192452381Y-68676191D01*
X192500000Y-68771429D01*
X192547619Y-68819048D01*
X192690476Y-68914286D01*
X192880952Y-68961905D01*
X193261905Y-68961905D01*
X193357143Y-68914286D01*
X193404762Y-68866667D01*
X193452381Y-68771429D01*
X193452381Y-68580952D01*
X193404762Y-68485714D01*
X193357143Y-68438095D01*
X193261905Y-68390476D01*
X193023810Y-68390476D01*
X192928571Y-68438095D01*
X192880952Y-68485714D01*
X192833333Y-68580952D01*
X192833333Y-68771429D01*
X192880952Y-68866667D01*
X192928571Y-68914286D01*
X193023810Y-68961905D01*
X227988095Y-69902381D02*
X227988095Y-70711905D01*
X228035714Y-70807143D01*
X228083333Y-70854762D01*
X228178571Y-70902381D01*
X228369048Y-70902381D01*
X228464286Y-70854762D01*
X228511905Y-70807143D01*
X228559524Y-70711905D01*
X228559524Y-69902381D01*
X228940476Y-69902381D02*
X229607143Y-69902381D01*
X229178571Y-70902381D01*
X221838095Y-130452381D02*
X221838095Y-131261905D01*
X221885714Y-131357143D01*
X221933333Y-131404762D01*
X222028571Y-131452381D01*
X222219048Y-131452381D01*
X222314286Y-131404762D01*
X222361905Y-131357143D01*
X222409524Y-131261905D01*
X222409524Y-130452381D01*
X223028571Y-130880952D02*
X222933333Y-130833333D01*
X222885714Y-130785714D01*
X222838095Y-130690476D01*
X222838095Y-130642857D01*
X222885714Y-130547619D01*
X222933333Y-130500000D01*
X223028571Y-130452381D01*
X223219048Y-130452381D01*
X223314286Y-130500000D01*
X223361905Y-130547619D01*
X223409524Y-130642857D01*
X223409524Y-130690476D01*
X223361905Y-130785714D01*
X223314286Y-130833333D01*
X223219048Y-130880952D01*
X223028571Y-130880952D01*
X222933333Y-130928571D01*
X222885714Y-130976190D01*
X222838095Y-131071429D01*
X222838095Y-131261905D01*
X222885714Y-131357143D01*
X222933333Y-131404762D01*
X223028571Y-131452381D01*
X223219048Y-131452381D01*
X223314286Y-131404762D01*
X223361905Y-131357143D01*
X223409524Y-131261905D01*
X223409524Y-131071429D01*
X223361905Y-130976190D01*
X223314286Y-130928571D01*
X223219048Y-130880952D01*
X189638095Y-132052381D02*
X189638095Y-132861905D01*
X189685714Y-132957143D01*
X189733333Y-133004762D01*
X189828571Y-133052381D01*
X190019048Y-133052381D01*
X190114286Y-133004762D01*
X190161905Y-132957143D01*
X190209524Y-132861905D01*
X190209524Y-132052381D01*
X190733333Y-133052381D02*
X190923809Y-133052381D01*
X191019048Y-133004762D01*
X191066667Y-132957143D01*
X191161905Y-132814286D01*
X191209524Y-132623810D01*
X191209524Y-132242857D01*
X191161905Y-132147619D01*
X191114286Y-132100000D01*
X191019048Y-132052381D01*
X190828571Y-132052381D01*
X190733333Y-132100000D01*
X190685714Y-132147619D01*
X190638095Y-132242857D01*
X190638095Y-132480952D01*
X190685714Y-132576190D01*
X190733333Y-132623810D01*
X190828571Y-132671429D01*
X191019048Y-132671429D01*
X191114286Y-132623810D01*
X191161905Y-132576190D01*
X191209524Y-132480952D01*
X204138095Y-88347619D02*
X204185714Y-88300000D01*
X204280952Y-88252381D01*
X204519048Y-88252381D01*
X204614286Y-88300000D01*
X204661905Y-88347619D01*
X204709524Y-88442857D01*
X204709524Y-88538095D01*
X204661905Y-88680952D01*
X204090476Y-89252381D01*
X204709524Y-89252381D01*
X205566667Y-88585714D02*
X205566667Y-89252381D01*
X205328571Y-88204762D02*
X205090476Y-88919048D01*
X205709524Y-88919048D01*
X206090476Y-89252381D02*
X206090476Y-88252381D01*
X206423810Y-88966667D01*
X206757143Y-88252381D01*
X206757143Y-89252381D01*
X207233333Y-89252381D02*
X207233333Y-88252381D01*
X207233333Y-88728571D02*
X207804762Y-88728571D01*
X207804762Y-89252381D02*
X207804762Y-88252381D01*
X208185714Y-88585714D02*
X208709524Y-88585714D01*
X208185714Y-89252381D01*
X208709524Y-89252381D01*
X172461905Y-108852381D02*
X172461905Y-107852381D01*
X172700000Y-107852381D01*
X172842858Y-107900000D01*
X172938096Y-107995238D01*
X172985715Y-108090476D01*
X173033334Y-108280952D01*
X173033334Y-108423810D01*
X172985715Y-108614286D01*
X172938096Y-108709524D01*
X172842858Y-108804762D01*
X172700000Y-108852381D01*
X172461905Y-108852381D01*
X173985715Y-108852381D02*
X173414286Y-108852381D01*
X173700000Y-108852381D02*
X173700000Y-107852381D01*
X173604762Y-107995238D01*
X173509524Y-108090476D01*
X173414286Y-108138095D01*
X234261905Y-88652381D02*
X234261905Y-87652381D01*
X234500000Y-87652381D01*
X234642858Y-87700000D01*
X234738096Y-87795238D01*
X234785715Y-87890476D01*
X234833334Y-88080952D01*
X234833334Y-88223810D01*
X234785715Y-88414286D01*
X234738096Y-88509524D01*
X234642858Y-88604762D01*
X234500000Y-88652381D01*
X234261905Y-88652381D01*
X235214286Y-87747619D02*
X235261905Y-87700000D01*
X235357143Y-87652381D01*
X235595239Y-87652381D01*
X235690477Y-87700000D01*
X235738096Y-87747619D01*
X235785715Y-87842857D01*
X235785715Y-87938095D01*
X235738096Y-88080952D01*
X235166667Y-88652381D01*
X235785715Y-88652381D01*
X177715001Y-111613571D02*
X177000715Y-111613571D01*
X177000715Y-110113571D01*
X179000715Y-111613571D02*
X178143572Y-111613571D01*
X178572144Y-111613571D02*
X178572144Y-110113571D01*
X178429287Y-110327857D01*
X178286429Y-110470714D01*
X178143572Y-110542143D01*
X230033334Y-92452381D02*
X229557143Y-92452381D01*
X229557143Y-91452381D01*
X230319048Y-91547619D02*
X230366667Y-91500000D01*
X230461905Y-91452381D01*
X230700001Y-91452381D01*
X230795239Y-91500000D01*
X230842858Y-91547619D01*
X230890477Y-91642857D01*
X230890477Y-91738095D01*
X230842858Y-91880952D01*
X230271429Y-92452381D01*
X230890477Y-92452381D01*
X182678572Y-91307143D02*
X182892858Y-91378571D01*
X183250001Y-91378571D01*
X183392858Y-91307143D01*
X183464287Y-91235714D01*
X183535715Y-91092857D01*
X183535715Y-90950000D01*
X183464287Y-90807143D01*
X183392858Y-90735714D01*
X183250001Y-90664286D01*
X182964287Y-90592857D01*
X182821429Y-90521429D01*
X182750001Y-90450000D01*
X182678572Y-90307143D01*
X182678572Y-90164286D01*
X182750001Y-90021429D01*
X182821429Y-89950000D01*
X182964287Y-89878571D01*
X183321429Y-89878571D01*
X183535715Y-89950000D01*
X184750000Y-91307143D02*
X184607143Y-91378571D01*
X184321429Y-91378571D01*
X184178572Y-91307143D01*
X184107143Y-91164286D01*
X184107143Y-90592857D01*
X184178572Y-90450000D01*
X184321429Y-90378571D01*
X184607143Y-90378571D01*
X184750000Y-90450000D01*
X184821429Y-90592857D01*
X184821429Y-90735714D01*
X184107143Y-90878571D01*
X185464286Y-91378571D02*
X185464286Y-90378571D01*
X185464286Y-90664286D02*
X185535714Y-90521429D01*
X185607143Y-90450000D01*
X185750000Y-90378571D01*
X185892857Y-90378571D01*
X186250000Y-90378571D02*
X186607143Y-91378571D01*
X186964285Y-90378571D01*
X187750000Y-91378571D02*
X187607142Y-91307143D01*
X187535714Y-91235714D01*
X187464285Y-91092857D01*
X187464285Y-90664286D01*
X187535714Y-90521429D01*
X187607142Y-90450000D01*
X187750000Y-90378571D01*
X187964285Y-90378571D01*
X188107142Y-90450000D01*
X188178571Y-90521429D01*
X188250000Y-90664286D01*
X188250000Y-91092857D01*
X188178571Y-91235714D01*
X188107142Y-91307143D01*
X187964285Y-91378571D01*
X187750000Y-91378571D01*
X190821428Y-91378571D02*
X189964285Y-91378571D01*
X190392857Y-91378571D02*
X190392857Y-89878571D01*
X190250000Y-90092857D01*
X190107142Y-90235714D01*
X189964285Y-90307143D01*
X223778572Y-110607143D02*
X223992858Y-110678571D01*
X224350001Y-110678571D01*
X224492858Y-110607143D01*
X224564287Y-110535714D01*
X224635715Y-110392857D01*
X224635715Y-110250000D01*
X224564287Y-110107143D01*
X224492858Y-110035714D01*
X224350001Y-109964286D01*
X224064287Y-109892857D01*
X223921429Y-109821429D01*
X223850001Y-109750000D01*
X223778572Y-109607143D01*
X223778572Y-109464286D01*
X223850001Y-109321429D01*
X223921429Y-109250000D01*
X224064287Y-109178571D01*
X224421429Y-109178571D01*
X224635715Y-109250000D01*
X225278572Y-110678571D02*
X225278572Y-109178571D01*
X225921429Y-110678571D02*
X225921429Y-109892857D01*
X225850000Y-109750000D01*
X225707143Y-109678571D01*
X225492858Y-109678571D01*
X225350000Y-109750000D01*
X225278572Y-109821429D01*
X226850001Y-110678571D02*
X226707143Y-110607143D01*
X226635715Y-110535714D01*
X226564286Y-110392857D01*
X226564286Y-109964286D01*
X226635715Y-109821429D01*
X226707143Y-109750000D01*
X226850001Y-109678571D01*
X227064286Y-109678571D01*
X227207143Y-109750000D01*
X227278572Y-109821429D01*
X227350001Y-109964286D01*
X227350001Y-110392857D01*
X227278572Y-110535714D01*
X227207143Y-110607143D01*
X227064286Y-110678571D01*
X226850001Y-110678571D01*
X228635715Y-109678571D02*
X228635715Y-110678571D01*
X227992858Y-109678571D02*
X227992858Y-110464286D01*
X228064286Y-110607143D01*
X228207144Y-110678571D01*
X228421429Y-110678571D01*
X228564286Y-110607143D01*
X228635715Y-110535714D01*
X229564287Y-110678571D02*
X229421429Y-110607143D01*
X229350001Y-110464286D01*
X229350001Y-109178571D01*
X230778572Y-110678571D02*
X230778572Y-109178571D01*
X230778572Y-110607143D02*
X230635715Y-110678571D01*
X230350001Y-110678571D01*
X230207143Y-110607143D01*
X230135715Y-110535714D01*
X230064286Y-110392857D01*
X230064286Y-109964286D01*
X230135715Y-109821429D01*
X230207143Y-109750000D01*
X230350001Y-109678571D01*
X230635715Y-109678571D01*
X230778572Y-109750000D01*
X232064286Y-110607143D02*
X231921429Y-110678571D01*
X231635715Y-110678571D01*
X231492858Y-110607143D01*
X231421429Y-110464286D01*
X231421429Y-109892857D01*
X231492858Y-109750000D01*
X231635715Y-109678571D01*
X231921429Y-109678571D01*
X232064286Y-109750000D01*
X232135715Y-109892857D01*
X232135715Y-110035714D01*
X231421429Y-110178571D01*
X232778572Y-110678571D02*
X232778572Y-109678571D01*
X232778572Y-109964286D02*
X232850000Y-109821429D01*
X232921429Y-109750000D01*
X233064286Y-109678571D01*
X233207143Y-109678571D01*
X235350000Y-109892857D02*
X234850000Y-109892857D01*
X234850000Y-110678571D02*
X234850000Y-109178571D01*
X235564286Y-109178571D01*
X236778571Y-110678571D02*
X236778571Y-109178571D01*
X236778571Y-110607143D02*
X236635714Y-110678571D01*
X236350000Y-110678571D01*
X236207142Y-110607143D01*
X236135714Y-110535714D01*
X236064285Y-110392857D01*
X236064285Y-109964286D01*
X236135714Y-109821429D01*
X236207142Y-109750000D01*
X236350000Y-109678571D01*
X236635714Y-109678571D01*
X236778571Y-109750000D01*
X237492857Y-110678571D02*
X237492857Y-109178571D01*
X237492857Y-109750000D02*
X237635714Y-109678571D01*
X237921428Y-109678571D01*
X238064285Y-109750000D01*
X238135714Y-109821429D01*
X238207143Y-109964286D01*
X238207143Y-110392857D01*
X238135714Y-110535714D01*
X238064285Y-110607143D01*
X237921428Y-110678571D01*
X237635714Y-110678571D01*
X237492857Y-110607143D01*
X238850000Y-110678571D02*
X238850000Y-109178571D01*
X238992857Y-110107143D02*
X239421428Y-110678571D01*
X239421428Y-109678571D02*
X238850000Y-110250000D01*
X208207143Y-68271428D02*
X208278571Y-68057142D01*
X208278571Y-67699999D01*
X208207143Y-67557142D01*
X208135714Y-67485713D01*
X207992857Y-67414285D01*
X207850000Y-67414285D01*
X207707143Y-67485713D01*
X207635714Y-67557142D01*
X207564286Y-67699999D01*
X207492857Y-67985713D01*
X207421429Y-68128571D01*
X207350000Y-68199999D01*
X207207143Y-68271428D01*
X207064286Y-68271428D01*
X206921429Y-68199999D01*
X206850000Y-68128571D01*
X206778571Y-67985713D01*
X206778571Y-67628571D01*
X206850000Y-67414285D01*
X208207143Y-66200000D02*
X208278571Y-66342857D01*
X208278571Y-66628571D01*
X208207143Y-66771428D01*
X208064286Y-66842857D01*
X207492857Y-66842857D01*
X207350000Y-66771428D01*
X207278571Y-66628571D01*
X207278571Y-66342857D01*
X207350000Y-66200000D01*
X207492857Y-66128571D01*
X207635714Y-66128571D01*
X207778571Y-66842857D01*
X208278571Y-65485714D02*
X207278571Y-65485714D01*
X207564286Y-65485714D02*
X207421429Y-65414286D01*
X207350000Y-65342857D01*
X207278571Y-65200000D01*
X207278571Y-65057143D01*
X207278571Y-64700000D02*
X208278571Y-64342857D01*
X207278571Y-63985715D01*
X208278571Y-63200000D02*
X208207143Y-63342858D01*
X208135714Y-63414286D01*
X207992857Y-63485715D01*
X207564286Y-63485715D01*
X207421429Y-63414286D01*
X207350000Y-63342858D01*
X207278571Y-63200000D01*
X207278571Y-62985715D01*
X207350000Y-62842858D01*
X207421429Y-62771429D01*
X207564286Y-62700000D01*
X207992857Y-62700000D01*
X208135714Y-62771429D01*
X208207143Y-62842858D01*
X208278571Y-62985715D01*
X208278571Y-63200000D01*
X206921429Y-60985715D02*
X206850000Y-60914286D01*
X206778571Y-60771429D01*
X206778571Y-60414286D01*
X206850000Y-60271429D01*
X206921429Y-60200000D01*
X207064286Y-60128572D01*
X207207143Y-60128572D01*
X207421429Y-60200000D01*
X208278571Y-61057143D01*
X208278571Y-60128572D01*
X238328572Y-123407143D02*
X238542858Y-123478571D01*
X238900001Y-123478571D01*
X239042858Y-123407143D01*
X239114287Y-123335714D01*
X239185715Y-123192857D01*
X239185715Y-123050000D01*
X239114287Y-122907143D01*
X239042858Y-122835714D01*
X238900001Y-122764286D01*
X238614287Y-122692857D01*
X238471429Y-122621429D01*
X238400001Y-122550000D01*
X238328572Y-122407143D01*
X238328572Y-122264286D01*
X238400001Y-122121429D01*
X238471429Y-122050000D01*
X238614287Y-121978571D01*
X238971429Y-121978571D01*
X239185715Y-122050000D01*
X240400000Y-123407143D02*
X240257143Y-123478571D01*
X239971429Y-123478571D01*
X239828572Y-123407143D01*
X239757143Y-123264286D01*
X239757143Y-122692857D01*
X239828572Y-122550000D01*
X239971429Y-122478571D01*
X240257143Y-122478571D01*
X240400000Y-122550000D01*
X240471429Y-122692857D01*
X240471429Y-122835714D01*
X239757143Y-122978571D01*
X241114286Y-123478571D02*
X241114286Y-122478571D01*
X241114286Y-122764286D02*
X241185714Y-122621429D01*
X241257143Y-122550000D01*
X241400000Y-122478571D01*
X241542857Y-122478571D01*
X241900000Y-122478571D02*
X242257143Y-123478571D01*
X242614285Y-122478571D01*
X243400000Y-123478571D02*
X243257142Y-123407143D01*
X243185714Y-123335714D01*
X243114285Y-123192857D01*
X243114285Y-122764286D01*
X243185714Y-122621429D01*
X243257142Y-122550000D01*
X243400000Y-122478571D01*
X243614285Y-122478571D01*
X243757142Y-122550000D01*
X243828571Y-122621429D01*
X243900000Y-122764286D01*
X243900000Y-123192857D01*
X243828571Y-123335714D01*
X243757142Y-123407143D01*
X243614285Y-123478571D01*
X243400000Y-123478571D01*
X245542857Y-121978571D02*
X246471428Y-121978571D01*
X245971428Y-122550000D01*
X246185714Y-122550000D01*
X246328571Y-122621429D01*
X246400000Y-122692857D01*
X246471428Y-122835714D01*
X246471428Y-123192857D01*
X246400000Y-123335714D01*
X246328571Y-123407143D01*
X246185714Y-123478571D01*
X245757142Y-123478571D01*
X245614285Y-123407143D01*
X245542857Y-123335714D01*
X226164286Y-100292857D02*
X226664286Y-100292857D01*
X226878572Y-101078571D02*
X226164286Y-101078571D01*
X226164286Y-99578571D01*
X226878572Y-99578571D01*
X227735715Y-101078571D02*
X227592857Y-101007143D01*
X227521429Y-100864286D01*
X227521429Y-99578571D01*
X228307143Y-101078571D02*
X228307143Y-99578571D01*
X228307143Y-100150000D02*
X228450000Y-100078571D01*
X228735714Y-100078571D01*
X228878571Y-100150000D01*
X228950000Y-100221429D01*
X229021429Y-100364286D01*
X229021429Y-100792857D01*
X228950000Y-100935714D01*
X228878571Y-101007143D01*
X228735714Y-101078571D01*
X228450000Y-101078571D01*
X228307143Y-101007143D01*
X229878572Y-101078571D02*
X229735714Y-101007143D01*
X229664286Y-100935714D01*
X229592857Y-100792857D01*
X229592857Y-100364286D01*
X229664286Y-100221429D01*
X229735714Y-100150000D01*
X229878572Y-100078571D01*
X230092857Y-100078571D01*
X230235714Y-100150000D01*
X230307143Y-100221429D01*
X230378572Y-100364286D01*
X230378572Y-100792857D01*
X230307143Y-100935714D01*
X230235714Y-101007143D01*
X230092857Y-101078571D01*
X229878572Y-101078571D01*
X230878572Y-100078571D02*
X231164286Y-101078571D01*
X231450000Y-100364286D01*
X231735715Y-101078571D01*
X232021429Y-100078571D01*
X234235715Y-100292857D02*
X233735715Y-100292857D01*
X233735715Y-101078571D02*
X233735715Y-99578571D01*
X234450001Y-99578571D01*
X235664286Y-101078571D02*
X235664286Y-99578571D01*
X235664286Y-101007143D02*
X235521429Y-101078571D01*
X235235715Y-101078571D01*
X235092857Y-101007143D01*
X235021429Y-100935714D01*
X234950000Y-100792857D01*
X234950000Y-100364286D01*
X235021429Y-100221429D01*
X235092857Y-100150000D01*
X235235715Y-100078571D01*
X235521429Y-100078571D01*
X235664286Y-100150000D01*
X236378572Y-101078571D02*
X236378572Y-99578571D01*
X236378572Y-100150000D02*
X236521429Y-100078571D01*
X236807143Y-100078571D01*
X236950000Y-100150000D01*
X237021429Y-100221429D01*
X237092858Y-100364286D01*
X237092858Y-100792857D01*
X237021429Y-100935714D01*
X236950000Y-101007143D01*
X236807143Y-101078571D01*
X236521429Y-101078571D01*
X236378572Y-101007143D01*
X237735715Y-101078571D02*
X237735715Y-99578571D01*
X237878572Y-100507143D02*
X238307143Y-101078571D01*
X238307143Y-100078571D02*
X237735715Y-100650000D01*
X204528572Y-137007143D02*
X204742858Y-137078571D01*
X205100001Y-137078571D01*
X205242858Y-137007143D01*
X205314287Y-136935714D01*
X205385715Y-136792857D01*
X205385715Y-136650000D01*
X205314287Y-136507143D01*
X205242858Y-136435714D01*
X205100001Y-136364286D01*
X204814287Y-136292857D01*
X204671429Y-136221429D01*
X204600001Y-136150000D01*
X204528572Y-136007143D01*
X204528572Y-135864286D01*
X204600001Y-135721429D01*
X204671429Y-135650000D01*
X204814287Y-135578571D01*
X205171429Y-135578571D01*
X205385715Y-135650000D01*
X206600000Y-137007143D02*
X206457143Y-137078571D01*
X206171429Y-137078571D01*
X206028572Y-137007143D01*
X205957143Y-136864286D01*
X205957143Y-136292857D01*
X206028572Y-136150000D01*
X206171429Y-136078571D01*
X206457143Y-136078571D01*
X206600000Y-136150000D01*
X206671429Y-136292857D01*
X206671429Y-136435714D01*
X205957143Y-136578571D01*
X207314286Y-137078571D02*
X207314286Y-136078571D01*
X207314286Y-136364286D02*
X207385714Y-136221429D01*
X207457143Y-136150000D01*
X207600000Y-136078571D01*
X207742857Y-136078571D01*
X208100000Y-136078571D02*
X208457143Y-137078571D01*
X208814285Y-136078571D01*
X209600000Y-137078571D02*
X209457142Y-137007143D01*
X209385714Y-136935714D01*
X209314285Y-136792857D01*
X209314285Y-136364286D01*
X209385714Y-136221429D01*
X209457142Y-136150000D01*
X209600000Y-136078571D01*
X209814285Y-136078571D01*
X209957142Y-136150000D01*
X210028571Y-136221429D01*
X210100000Y-136364286D01*
X210100000Y-136792857D01*
X210028571Y-136935714D01*
X209957142Y-137007143D01*
X209814285Y-137078571D01*
X209600000Y-137078571D01*
X212528571Y-136078571D02*
X212528571Y-137078571D01*
X212171428Y-135507143D02*
X211814285Y-136578571D01*
X212742857Y-136578571D01*
X224404762Y-106757143D02*
X224452381Y-106614286D01*
X224452381Y-106376190D01*
X224404762Y-106280952D01*
X224357143Y-106233333D01*
X224261905Y-106185714D01*
X224166667Y-106185714D01*
X224071429Y-106233333D01*
X224023810Y-106280952D01*
X223976190Y-106376190D01*
X223928571Y-106566667D01*
X223880952Y-106661905D01*
X223833333Y-106709524D01*
X223738095Y-106757143D01*
X223642857Y-106757143D01*
X223547619Y-106709524D01*
X223500000Y-106661905D01*
X223452381Y-106566667D01*
X223452381Y-106328571D01*
X223500000Y-106185714D01*
X223452381Y-105852381D02*
X224452381Y-105614286D01*
X223738095Y-105423809D01*
X224452381Y-105233333D01*
X223452381Y-104995238D01*
X224452381Y-104614286D02*
X223452381Y-104614286D01*
X223452381Y-104376191D01*
X223500000Y-104233333D01*
X223595238Y-104138095D01*
X223690476Y-104090476D01*
X223880952Y-104042857D01*
X224023810Y-104042857D01*
X224214286Y-104090476D01*
X224309524Y-104138095D01*
X224404762Y-104233333D01*
X224452381Y-104376191D01*
X224452381Y-104614286D01*
X186604762Y-101314286D02*
X186652381Y-101171429D01*
X186652381Y-100933333D01*
X186604762Y-100838095D01*
X186557143Y-100790476D01*
X186461905Y-100742857D01*
X186366667Y-100742857D01*
X186271429Y-100790476D01*
X186223810Y-100838095D01*
X186176190Y-100933333D01*
X186128571Y-101123810D01*
X186080952Y-101219048D01*
X186033333Y-101266667D01*
X185938095Y-101314286D01*
X185842857Y-101314286D01*
X185747619Y-101266667D01*
X185700000Y-101219048D01*
X185652381Y-101123810D01*
X185652381Y-100885714D01*
X185700000Y-100742857D01*
X186604762Y-99933333D02*
X186652381Y-100028571D01*
X186652381Y-100219048D01*
X186604762Y-100314286D01*
X186509524Y-100361905D01*
X186128571Y-100361905D01*
X186033333Y-100314286D01*
X185985714Y-100219048D01*
X185985714Y-100028571D01*
X186033333Y-99933333D01*
X186128571Y-99885714D01*
X186223810Y-99885714D01*
X186319048Y-100361905D01*
X186652381Y-99457143D02*
X185985714Y-99457143D01*
X186176190Y-99457143D02*
X186080952Y-99409524D01*
X186033333Y-99361905D01*
X185985714Y-99266667D01*
X185985714Y-99171428D01*
X185985714Y-98933333D02*
X186652381Y-98695238D01*
X185985714Y-98457142D01*
X186652381Y-97933333D02*
X186604762Y-98028571D01*
X186557143Y-98076190D01*
X186461905Y-98123809D01*
X186176190Y-98123809D01*
X186080952Y-98076190D01*
X186033333Y-98028571D01*
X185985714Y-97933333D01*
X185985714Y-97790475D01*
X186033333Y-97695237D01*
X186080952Y-97647618D01*
X186176190Y-97599999D01*
X186461905Y-97599999D01*
X186557143Y-97647618D01*
X186604762Y-97695237D01*
X186652381Y-97790475D01*
X186652381Y-97933333D01*
X185652381Y-95933332D02*
X185652381Y-96409523D01*
X186128571Y-96457142D01*
X186080952Y-96409523D01*
X186033333Y-96314285D01*
X186033333Y-96076189D01*
X186080952Y-95980951D01*
X186128571Y-95933332D01*
X186223810Y-95885713D01*
X186461905Y-95885713D01*
X186557143Y-95933332D01*
X186604762Y-95980951D01*
X186652381Y-96076189D01*
X186652381Y-96314285D01*
X186604762Y-96409523D01*
X186557143Y-96457142D01*
X189352381Y-99604762D02*
X189495238Y-99652381D01*
X189733334Y-99652381D01*
X189828572Y-99604762D01*
X189876191Y-99557143D01*
X189923810Y-99461905D01*
X189923810Y-99366667D01*
X189876191Y-99271429D01*
X189828572Y-99223810D01*
X189733334Y-99176190D01*
X189542857Y-99128571D01*
X189447619Y-99080952D01*
X189400000Y-99033333D01*
X189352381Y-98938095D01*
X189352381Y-98842857D01*
X189400000Y-98747619D01*
X189447619Y-98700000D01*
X189542857Y-98652381D01*
X189780953Y-98652381D01*
X189923810Y-98700000D01*
X190257143Y-98985714D02*
X190495238Y-99652381D01*
X190733334Y-98985714D02*
X190495238Y-99652381D01*
X190400000Y-99890476D01*
X190352381Y-99938095D01*
X190257143Y-99985714D01*
X191685715Y-99652381D02*
X191352381Y-99176190D01*
X191114286Y-99652381D02*
X191114286Y-98652381D01*
X191495239Y-98652381D01*
X191590477Y-98700000D01*
X191638096Y-98747619D01*
X191685715Y-98842857D01*
X191685715Y-98985714D01*
X191638096Y-99080952D01*
X191590477Y-99128571D01*
X191495239Y-99176190D01*
X191114286Y-99176190D01*
X192495239Y-99604762D02*
X192400001Y-99652381D01*
X192209524Y-99652381D01*
X192114286Y-99604762D01*
X192066667Y-99509524D01*
X192066667Y-99128571D01*
X192114286Y-99033333D01*
X192209524Y-98985714D01*
X192400001Y-98985714D01*
X192495239Y-99033333D01*
X192542858Y-99128571D01*
X192542858Y-99223810D01*
X192066667Y-99319048D01*
X192971429Y-98985714D02*
X192971429Y-99652381D01*
X192971429Y-99080952D02*
X193019048Y-99033333D01*
X193114286Y-98985714D01*
X193257144Y-98985714D01*
X193352382Y-99033333D01*
X193400001Y-99128571D01*
X193400001Y-99652381D01*
X167504762Y-114452381D02*
X167504762Y-113452381D01*
X167885715Y-113452381D01*
X167980953Y-113500000D01*
X168028572Y-113547619D01*
X168076191Y-113642857D01*
X168076191Y-113785714D01*
X168028572Y-113880952D01*
X167980953Y-113928571D01*
X167885715Y-113976190D01*
X167504762Y-113976190D01*
X168504762Y-114452381D02*
X168504762Y-113785714D01*
X168504762Y-113452381D02*
X168457143Y-113500000D01*
X168504762Y-113547619D01*
X168552381Y-113500000D01*
X168504762Y-113452381D01*
X168504762Y-113547619D01*
X169742857Y-114452381D02*
X169742857Y-113452381D01*
X170123810Y-113452381D01*
X170219048Y-113500000D01*
X170266667Y-113547619D01*
X170314286Y-113642857D01*
X170314286Y-113785714D01*
X170266667Y-113880952D01*
X170219048Y-113928571D01*
X170123810Y-113976190D01*
X169742857Y-113976190D01*
X170885714Y-114452381D02*
X170790476Y-114404762D01*
X170742857Y-114357143D01*
X170695238Y-114261905D01*
X170695238Y-113976190D01*
X170742857Y-113880952D01*
X170790476Y-113833333D01*
X170885714Y-113785714D01*
X171028572Y-113785714D01*
X171123810Y-113833333D01*
X171171429Y-113880952D01*
X171219048Y-113976190D01*
X171219048Y-114261905D01*
X171171429Y-114357143D01*
X171123810Y-114404762D01*
X171028572Y-114452381D01*
X170885714Y-114452381D01*
X171552381Y-113785714D02*
X171742857Y-114452381D01*
X171933334Y-113976190D01*
X172123810Y-114452381D01*
X172314286Y-113785714D01*
X173076191Y-114404762D02*
X172980953Y-114452381D01*
X172790476Y-114452381D01*
X172695238Y-114404762D01*
X172647619Y-114309524D01*
X172647619Y-113928571D01*
X172695238Y-113833333D01*
X172790476Y-113785714D01*
X172980953Y-113785714D01*
X173076191Y-113833333D01*
X173123810Y-113928571D01*
X173123810Y-114023810D01*
X172647619Y-114119048D01*
X173552381Y-114452381D02*
X173552381Y-113785714D01*
X173552381Y-113976190D02*
X173600000Y-113880952D01*
X173647619Y-113833333D01*
X173742857Y-113785714D01*
X173838096Y-113785714D01*
X174385714Y-56852381D02*
X174385714Y-55852381D01*
X174766667Y-55852381D01*
X174861905Y-55900000D01*
X174909524Y-55947619D01*
X174957143Y-56042857D01*
X174957143Y-56185714D01*
X174909524Y-56280952D01*
X174861905Y-56328571D01*
X174766667Y-56376190D01*
X174385714Y-56376190D01*
X175909524Y-56852381D02*
X175338095Y-56852381D01*
X175623809Y-56852381D02*
X175623809Y-55852381D01*
X175528571Y-55995238D01*
X175433333Y-56090476D01*
X175338095Y-56138095D01*
X176861905Y-56852381D02*
X176290476Y-56852381D01*
X176576190Y-56852381D02*
X176576190Y-55852381D01*
X176480952Y-55995238D01*
X176385714Y-56090476D01*
X176290476Y-56138095D01*
X168928571Y-54928571D02*
X169071428Y-54976190D01*
X169119047Y-55023810D01*
X169166666Y-55119048D01*
X169166666Y-55261905D01*
X169119047Y-55357143D01*
X169071428Y-55404762D01*
X168976190Y-55452381D01*
X168595237Y-55452381D01*
X168595237Y-54452381D01*
X168928571Y-54452381D01*
X169023809Y-54500000D01*
X169071428Y-54547619D01*
X169119047Y-54642857D01*
X169119047Y-54738095D01*
X169071428Y-54833333D01*
X169023809Y-54880952D01*
X168928571Y-54928571D01*
X168595237Y-54928571D01*
X170023809Y-55452381D02*
X170023809Y-54928571D01*
X169976190Y-54833333D01*
X169880952Y-54785714D01*
X169690475Y-54785714D01*
X169595237Y-54833333D01*
X170023809Y-55404762D02*
X169928571Y-55452381D01*
X169690475Y-55452381D01*
X169595237Y-55404762D01*
X169547618Y-55309524D01*
X169547618Y-55214286D01*
X169595237Y-55119048D01*
X169690475Y-55071429D01*
X169928571Y-55071429D01*
X170023809Y-55023810D01*
X170357142Y-54785714D02*
X170738094Y-54785714D01*
X170499999Y-54452381D02*
X170499999Y-55309524D01*
X170547618Y-55404762D01*
X170642856Y-55452381D01*
X170738094Y-55452381D01*
X170928571Y-54785714D02*
X171309523Y-54785714D01*
X171071428Y-54452381D02*
X171071428Y-55309524D01*
X171119047Y-55404762D01*
X171214285Y-55452381D01*
X171309523Y-55452381D01*
X172023810Y-55404762D02*
X171928572Y-55452381D01*
X171738095Y-55452381D01*
X171642857Y-55404762D01*
X171595238Y-55309524D01*
X171595238Y-54928571D01*
X171642857Y-54833333D01*
X171738095Y-54785714D01*
X171928572Y-54785714D01*
X172023810Y-54833333D01*
X172071429Y-54928571D01*
X172071429Y-55023810D01*
X171595238Y-55119048D01*
X172500000Y-55452381D02*
X172500000Y-54785714D01*
X172500000Y-54976190D02*
X172547619Y-54880952D01*
X172595238Y-54833333D01*
X172690476Y-54785714D01*
X172785715Y-54785714D01*
X173023810Y-54785714D02*
X173261905Y-55452381D01*
X173500001Y-54785714D02*
X173261905Y-55452381D01*
X173166667Y-55690476D01*
X173119048Y-55738095D01*
X173023810Y-55785714D01*
X217157143Y-97557143D02*
X217109524Y-97604762D01*
X216966667Y-97652381D01*
X216871429Y-97652381D01*
X216728571Y-97604762D01*
X216633333Y-97509524D01*
X216585714Y-97414286D01*
X216538095Y-97223810D01*
X216538095Y-97080952D01*
X216585714Y-96890476D01*
X216633333Y-96795238D01*
X216728571Y-96700000D01*
X216871429Y-96652381D01*
X216966667Y-96652381D01*
X217109524Y-96700000D01*
X217157143Y-96747619D01*
X218061905Y-96652381D02*
X217585714Y-96652381D01*
X217538095Y-97128571D01*
X217585714Y-97080952D01*
X217680952Y-97033333D01*
X217919048Y-97033333D01*
X218014286Y-97080952D01*
X218061905Y-97128571D01*
X218109524Y-97223810D01*
X218109524Y-97461905D01*
X218061905Y-97557143D01*
X218014286Y-97604762D01*
X217919048Y-97652381D01*
X217680952Y-97652381D01*
X217585714Y-97604762D01*
X217538095Y-97557143D01*
X219061905Y-97652381D02*
X218490476Y-97652381D01*
X218776190Y-97652381D02*
X218776190Y-96652381D01*
X218680952Y-96795238D01*
X218585714Y-96890476D01*
X218490476Y-96938095D01*
X228914286Y-104650000D02*
X228771429Y-104578571D01*
X228557143Y-104578571D01*
X228342858Y-104650000D01*
X228200000Y-104792857D01*
X228128572Y-104935714D01*
X228057143Y-105221429D01*
X228057143Y-105435714D01*
X228128572Y-105721429D01*
X228200000Y-105864286D01*
X228342858Y-106007143D01*
X228557143Y-106078571D01*
X228700000Y-106078571D01*
X228914286Y-106007143D01*
X228985715Y-105935714D01*
X228985715Y-105435714D01*
X228700000Y-105435714D01*
X229628572Y-106078571D02*
X229628572Y-105078571D01*
X229628572Y-105364286D02*
X229700000Y-105221429D01*
X229771429Y-105150000D01*
X229914286Y-105078571D01*
X230057143Y-105078571D01*
X230557143Y-106078571D02*
X230557143Y-105078571D01*
X230557143Y-104578571D02*
X230485714Y-104650000D01*
X230557143Y-104721429D01*
X230628571Y-104650000D01*
X230557143Y-104578571D01*
X230557143Y-104721429D01*
X231271429Y-105078571D02*
X231271429Y-106578571D01*
X231271429Y-105150000D02*
X231414286Y-105078571D01*
X231700000Y-105078571D01*
X231842857Y-105150000D01*
X231914286Y-105221429D01*
X231985715Y-105364286D01*
X231985715Y-105792857D01*
X231914286Y-105935714D01*
X231842857Y-106007143D01*
X231700000Y-106078571D01*
X231414286Y-106078571D01*
X231271429Y-106007143D01*
X234271429Y-105292857D02*
X233771429Y-105292857D01*
X233771429Y-106078571D02*
X233771429Y-104578571D01*
X234485715Y-104578571D01*
X235700000Y-106078571D02*
X235700000Y-104578571D01*
X235700000Y-106007143D02*
X235557143Y-106078571D01*
X235271429Y-106078571D01*
X235128571Y-106007143D01*
X235057143Y-105935714D01*
X234985714Y-105792857D01*
X234985714Y-105364286D01*
X235057143Y-105221429D01*
X235128571Y-105150000D01*
X235271429Y-105078571D01*
X235557143Y-105078571D01*
X235700000Y-105150000D01*
X236414286Y-106078571D02*
X236414286Y-104578571D01*
X236414286Y-105150000D02*
X236557143Y-105078571D01*
X236842857Y-105078571D01*
X236985714Y-105150000D01*
X237057143Y-105221429D01*
X237128572Y-105364286D01*
X237128572Y-105792857D01*
X237057143Y-105935714D01*
X236985714Y-106007143D01*
X236842857Y-106078571D01*
X236557143Y-106078571D01*
X236414286Y-106007143D01*
X237771429Y-106078571D02*
X237771429Y-104578571D01*
X237914286Y-105507143D02*
X238342857Y-106078571D01*
X238342857Y-105078571D02*
X237771429Y-105650000D01*
X188757143Y-79652381D02*
X188423809Y-79176190D01*
X188185714Y-79652381D02*
X188185714Y-78652381D01*
X188566667Y-78652381D01*
X188661905Y-78700000D01*
X188709524Y-78747619D01*
X188757143Y-78842857D01*
X188757143Y-78985714D01*
X188709524Y-79080952D01*
X188661905Y-79128571D01*
X188566667Y-79176190D01*
X188185714Y-79176190D01*
X189709524Y-79652381D02*
X189138095Y-79652381D01*
X189423809Y-79652381D02*
X189423809Y-78652381D01*
X189328571Y-78795238D01*
X189233333Y-78890476D01*
X189138095Y-78938095D01*
X190042857Y-78652381D02*
X190709524Y-78652381D01*
X190280952Y-79652381D01*
X215757143Y-62452381D02*
X215423809Y-61976190D01*
X215185714Y-62452381D02*
X215185714Y-61452381D01*
X215566667Y-61452381D01*
X215661905Y-61500000D01*
X215709524Y-61547619D01*
X215757143Y-61642857D01*
X215757143Y-61785714D01*
X215709524Y-61880952D01*
X215661905Y-61928571D01*
X215566667Y-61976190D01*
X215185714Y-61976190D01*
X216709524Y-62452381D02*
X216138095Y-62452381D01*
X216423809Y-62452381D02*
X216423809Y-61452381D01*
X216328571Y-61595238D01*
X216233333Y-61690476D01*
X216138095Y-61738095D01*
X217280952Y-61880952D02*
X217185714Y-61833333D01*
X217138095Y-61785714D01*
X217090476Y-61690476D01*
X217090476Y-61642857D01*
X217138095Y-61547619D01*
X217185714Y-61500000D01*
X217280952Y-61452381D01*
X217471429Y-61452381D01*
X217566667Y-61500000D01*
X217614286Y-61547619D01*
X217661905Y-61642857D01*
X217661905Y-61690476D01*
X217614286Y-61785714D01*
X217566667Y-61833333D01*
X217471429Y-61880952D01*
X217280952Y-61880952D01*
X217185714Y-61928571D01*
X217138095Y-61976190D01*
X217090476Y-62071429D01*
X217090476Y-62261905D01*
X217138095Y-62357143D01*
X217185714Y-62404762D01*
X217280952Y-62452381D01*
X217471429Y-62452381D01*
X217566667Y-62404762D01*
X217614286Y-62357143D01*
X217661905Y-62261905D01*
X217661905Y-62071429D01*
X217614286Y-61976190D01*
X217566667Y-61928571D01*
X217471429Y-61880952D01*
X179052381Y-86242857D02*
X178576190Y-86576191D01*
X179052381Y-86814286D02*
X178052381Y-86814286D01*
X178052381Y-86433333D01*
X178100000Y-86338095D01*
X178147619Y-86290476D01*
X178242857Y-86242857D01*
X178385714Y-86242857D01*
X178480952Y-86290476D01*
X178528571Y-86338095D01*
X178576190Y-86433333D01*
X178576190Y-86814286D01*
X179052381Y-85290476D02*
X179052381Y-85861905D01*
X179052381Y-85576191D02*
X178052381Y-85576191D01*
X178195238Y-85671429D01*
X178290476Y-85766667D01*
X178338095Y-85861905D01*
X179052381Y-84814286D02*
X179052381Y-84623810D01*
X179004762Y-84528571D01*
X178957143Y-84480952D01*
X178814286Y-84385714D01*
X178623810Y-84338095D01*
X178242857Y-84338095D01*
X178147619Y-84385714D01*
X178100000Y-84433333D01*
X178052381Y-84528571D01*
X178052381Y-84719048D01*
X178100000Y-84814286D01*
X178147619Y-84861905D01*
X178242857Y-84909524D01*
X178480952Y-84909524D01*
X178576190Y-84861905D01*
X178623810Y-84814286D01*
X178671429Y-84719048D01*
X178671429Y-84528571D01*
X178623810Y-84433333D01*
X178576190Y-84385714D01*
X178480952Y-84338095D01*
X210607143Y-55852381D02*
X210273809Y-55376190D01*
X210035714Y-55852381D02*
X210035714Y-54852381D01*
X210416667Y-54852381D01*
X210511905Y-54900000D01*
X210559524Y-54947619D01*
X210607143Y-55042857D01*
X210607143Y-55185714D01*
X210559524Y-55280952D01*
X210511905Y-55328571D01*
X210416667Y-55376190D01*
X210035714Y-55376190D01*
X210988095Y-54947619D02*
X211035714Y-54900000D01*
X211130952Y-54852381D01*
X211369048Y-54852381D01*
X211464286Y-54900000D01*
X211511905Y-54947619D01*
X211559524Y-55042857D01*
X211559524Y-55138095D01*
X211511905Y-55280952D01*
X210940476Y-55852381D01*
X211559524Y-55852381D01*
X212178571Y-54852381D02*
X212273810Y-54852381D01*
X212369048Y-54900000D01*
X212416667Y-54947619D01*
X212464286Y-55042857D01*
X212511905Y-55233333D01*
X212511905Y-55471429D01*
X212464286Y-55661905D01*
X212416667Y-55757143D01*
X212369048Y-55804762D01*
X212273810Y-55852381D01*
X212178571Y-55852381D01*
X212083333Y-55804762D01*
X212035714Y-55757143D01*
X211988095Y-55661905D01*
X211940476Y-55471429D01*
X211940476Y-55233333D01*
X211988095Y-55042857D01*
X212035714Y-54947619D01*
X212083333Y-54900000D01*
X212178571Y-54852381D01*
X228757143Y-116652381D02*
X228423809Y-116176190D01*
X228185714Y-116652381D02*
X228185714Y-115652381D01*
X228566667Y-115652381D01*
X228661905Y-115700000D01*
X228709524Y-115747619D01*
X228757143Y-115842857D01*
X228757143Y-115985714D01*
X228709524Y-116080952D01*
X228661905Y-116128571D01*
X228566667Y-116176190D01*
X228185714Y-116176190D01*
X229138095Y-115747619D02*
X229185714Y-115700000D01*
X229280952Y-115652381D01*
X229519048Y-115652381D01*
X229614286Y-115700000D01*
X229661905Y-115747619D01*
X229709524Y-115842857D01*
X229709524Y-115938095D01*
X229661905Y-116080952D01*
X229090476Y-116652381D01*
X229709524Y-116652381D01*
X230661905Y-116652381D02*
X230090476Y-116652381D01*
X230376190Y-116652381D02*
X230376190Y-115652381D01*
X230280952Y-115795238D01*
X230185714Y-115890476D01*
X230090476Y-115938095D01*
X202257143Y-139802381D02*
X201923809Y-139326190D01*
X201685714Y-139802381D02*
X201685714Y-138802381D01*
X202066667Y-138802381D01*
X202161905Y-138850000D01*
X202209524Y-138897619D01*
X202257143Y-138992857D01*
X202257143Y-139135714D01*
X202209524Y-139230952D01*
X202161905Y-139278571D01*
X202066667Y-139326190D01*
X201685714Y-139326190D01*
X202638095Y-138897619D02*
X202685714Y-138850000D01*
X202780952Y-138802381D01*
X203019048Y-138802381D01*
X203114286Y-138850000D01*
X203161905Y-138897619D01*
X203209524Y-138992857D01*
X203209524Y-139088095D01*
X203161905Y-139230952D01*
X202590476Y-139802381D01*
X203209524Y-139802381D01*
X203590476Y-138897619D02*
X203638095Y-138850000D01*
X203733333Y-138802381D01*
X203971429Y-138802381D01*
X204066667Y-138850000D01*
X204114286Y-138897619D01*
X204161905Y-138992857D01*
X204161905Y-139088095D01*
X204114286Y-139230952D01*
X203542857Y-139802381D01*
X204161905Y-139802381D01*
X231757143Y-112252381D02*
X231423809Y-111776190D01*
X231185714Y-112252381D02*
X231185714Y-111252381D01*
X231566667Y-111252381D01*
X231661905Y-111300000D01*
X231709524Y-111347619D01*
X231757143Y-111442857D01*
X231757143Y-111585714D01*
X231709524Y-111680952D01*
X231661905Y-111728571D01*
X231566667Y-111776190D01*
X231185714Y-111776190D01*
X232138095Y-111347619D02*
X232185714Y-111300000D01*
X232280952Y-111252381D01*
X232519048Y-111252381D01*
X232614286Y-111300000D01*
X232661905Y-111347619D01*
X232709524Y-111442857D01*
X232709524Y-111538095D01*
X232661905Y-111680952D01*
X232090476Y-112252381D01*
X232709524Y-112252381D01*
X233042857Y-111252381D02*
X233661905Y-111252381D01*
X233328571Y-111633333D01*
X233471429Y-111633333D01*
X233566667Y-111680952D01*
X233614286Y-111728571D01*
X233661905Y-111823810D01*
X233661905Y-112061905D01*
X233614286Y-112157143D01*
X233566667Y-112204762D01*
X233471429Y-112252381D01*
X233185714Y-112252381D01*
X233090476Y-112204762D01*
X233042857Y-112157143D01*
X206357143Y-149252381D02*
X206023809Y-148776190D01*
X205785714Y-149252381D02*
X205785714Y-148252381D01*
X206166667Y-148252381D01*
X206261905Y-148300000D01*
X206309524Y-148347619D01*
X206357143Y-148442857D01*
X206357143Y-148585714D01*
X206309524Y-148680952D01*
X206261905Y-148728571D01*
X206166667Y-148776190D01*
X205785714Y-148776190D01*
X206738095Y-148347619D02*
X206785714Y-148300000D01*
X206880952Y-148252381D01*
X207119048Y-148252381D01*
X207214286Y-148300000D01*
X207261905Y-148347619D01*
X207309524Y-148442857D01*
X207309524Y-148538095D01*
X207261905Y-148680952D01*
X206690476Y-149252381D01*
X207309524Y-149252381D01*
X208166667Y-148585714D02*
X208166667Y-149252381D01*
X207928571Y-148204762D02*
X207690476Y-148919048D01*
X208309524Y-148919048D01*
X178361905Y-78452381D02*
X178361905Y-79261905D01*
X178409524Y-79357143D01*
X178457143Y-79404762D01*
X178552381Y-79452381D01*
X178742858Y-79452381D01*
X178838096Y-79404762D01*
X178885715Y-79357143D01*
X178933334Y-79261905D01*
X178933334Y-78452381D01*
X179933334Y-79452381D02*
X179361905Y-79452381D01*
X179647619Y-79452381D02*
X179647619Y-78452381D01*
X179552381Y-78595238D01*
X179457143Y-78690476D01*
X179361905Y-78738095D01*
X180552381Y-78452381D02*
X180647620Y-78452381D01*
X180742858Y-78500000D01*
X180790477Y-78547619D01*
X180838096Y-78642857D01*
X180885715Y-78833333D01*
X180885715Y-79071429D01*
X180838096Y-79261905D01*
X180790477Y-79357143D01*
X180742858Y-79404762D01*
X180647620Y-79452381D01*
X180552381Y-79452381D01*
X180457143Y-79404762D01*
X180409524Y-79357143D01*
X180361905Y-79261905D01*
X180314286Y-79071429D01*
X180314286Y-78833333D01*
X180361905Y-78642857D01*
X180409524Y-78547619D01*
X180457143Y-78500000D01*
X180552381Y-78452381D01*
X218961905Y-56052381D02*
X218961905Y-56861905D01*
X219009524Y-56957143D01*
X219057143Y-57004762D01*
X219152381Y-57052381D01*
X219342858Y-57052381D01*
X219438096Y-57004762D01*
X219485715Y-56957143D01*
X219533334Y-56861905D01*
X219533334Y-56052381D01*
X220533334Y-57052381D02*
X219961905Y-57052381D01*
X220247619Y-57052381D02*
X220247619Y-56052381D01*
X220152381Y-56195238D01*
X220057143Y-56290476D01*
X219961905Y-56338095D01*
X221485715Y-57052381D02*
X220914286Y-57052381D01*
X221200000Y-57052381D02*
X221200000Y-56052381D01*
X221104762Y-56195238D01*
X221009524Y-56290476D01*
X220914286Y-56338095D01*
X234961905Y-122252381D02*
X234961905Y-123061905D01*
X235009524Y-123157143D01*
X235057143Y-123204762D01*
X235152381Y-123252381D01*
X235342858Y-123252381D01*
X235438096Y-123204762D01*
X235485715Y-123157143D01*
X235533334Y-123061905D01*
X235533334Y-122252381D01*
X236533334Y-123252381D02*
X235961905Y-123252381D01*
X236247619Y-123252381D02*
X236247619Y-122252381D01*
X236152381Y-122395238D01*
X236057143Y-122490476D01*
X235961905Y-122538095D01*
X236914286Y-122347619D02*
X236961905Y-122300000D01*
X237057143Y-122252381D01*
X237295239Y-122252381D01*
X237390477Y-122300000D01*
X237438096Y-122347619D01*
X237485715Y-122442857D01*
X237485715Y-122538095D01*
X237438096Y-122680952D01*
X236866667Y-123252381D01*
X237485715Y-123252381D01*
X201361905Y-147452381D02*
X201361905Y-148261905D01*
X201409524Y-148357143D01*
X201457143Y-148404762D01*
X201552381Y-148452381D01*
X201742858Y-148452381D01*
X201838096Y-148404762D01*
X201885715Y-148357143D01*
X201933334Y-148261905D01*
X201933334Y-147452381D01*
X202933334Y-148452381D02*
X202361905Y-148452381D01*
X202647619Y-148452381D02*
X202647619Y-147452381D01*
X202552381Y-147595238D01*
X202457143Y-147690476D01*
X202361905Y-147738095D01*
X203266667Y-147452381D02*
X203885715Y-147452381D01*
X203552381Y-147833333D01*
X203695239Y-147833333D01*
X203790477Y-147880952D01*
X203838096Y-147928571D01*
X203885715Y-148023810D01*
X203885715Y-148261905D01*
X203838096Y-148357143D01*
X203790477Y-148404762D01*
X203695239Y-148452381D01*
X203409524Y-148452381D01*
X203314286Y-148404762D01*
X203266667Y-148357143D01*
X204204762Y-116052381D02*
X203871428Y-115576190D01*
X203633333Y-116052381D02*
X203633333Y-115052381D01*
X204014286Y-115052381D01*
X204109524Y-115100000D01*
X204157143Y-115147619D01*
X204204762Y-115242857D01*
X204204762Y-115385714D01*
X204157143Y-115480952D01*
X204109524Y-115528571D01*
X204014286Y-115576190D01*
X203633333Y-115576190D01*
X204585714Y-116004762D02*
X204728571Y-116052381D01*
X204966667Y-116052381D01*
X205061905Y-116004762D01*
X205109524Y-115957143D01*
X205157143Y-115861905D01*
X205157143Y-115766667D01*
X205109524Y-115671429D01*
X205061905Y-115623810D01*
X204966667Y-115576190D01*
X204776190Y-115528571D01*
X204680952Y-115480952D01*
X204633333Y-115433333D01*
X204585714Y-115338095D01*
X204585714Y-115242857D01*
X204633333Y-115147619D01*
X204680952Y-115100000D01*
X204776190Y-115052381D01*
X205014286Y-115052381D01*
X205157143Y-115100000D01*
X205538095Y-115147619D02*
X205585714Y-115100000D01*
X205680952Y-115052381D01*
X205919048Y-115052381D01*
X206014286Y-115100000D01*
X206061905Y-115147619D01*
X206109524Y-115242857D01*
X206109524Y-115338095D01*
X206061905Y-115480952D01*
X205490476Y-116052381D01*
X206109524Y-116052381D01*
X206442857Y-115052381D02*
X207061905Y-115052381D01*
X206728571Y-115433333D01*
X206871429Y-115433333D01*
X206966667Y-115480952D01*
X207014286Y-115528571D01*
X207061905Y-115623810D01*
X207061905Y-115861905D01*
X207014286Y-115957143D01*
X206966667Y-116004762D01*
X206871429Y-116052381D01*
X206585714Y-116052381D01*
X206490476Y-116004762D01*
X206442857Y-115957143D01*
X207442857Y-115147619D02*
X207490476Y-115100000D01*
X207585714Y-115052381D01*
X207823810Y-115052381D01*
X207919048Y-115100000D01*
X207966667Y-115147619D01*
X208014286Y-115242857D01*
X208014286Y-115338095D01*
X207966667Y-115480952D01*
X207395238Y-116052381D01*
X208014286Y-116052381D01*
X168157143Y-119952381D02*
X167823809Y-119476190D01*
X167585714Y-119952381D02*
X167585714Y-118952381D01*
X167966667Y-118952381D01*
X168061905Y-119000000D01*
X168109524Y-119047619D01*
X168157143Y-119142857D01*
X168157143Y-119285714D01*
X168109524Y-119380952D01*
X168061905Y-119428571D01*
X167966667Y-119476190D01*
X167585714Y-119476190D01*
X168538095Y-119047619D02*
X168585714Y-119000000D01*
X168680952Y-118952381D01*
X168919048Y-118952381D01*
X169014286Y-119000000D01*
X169061905Y-119047619D01*
X169109524Y-119142857D01*
X169109524Y-119238095D01*
X169061905Y-119380952D01*
X168490476Y-119952381D01*
X169109524Y-119952381D01*
X170014286Y-118952381D02*
X169538095Y-118952381D01*
X169490476Y-119428571D01*
X169538095Y-119380952D01*
X169633333Y-119333333D01*
X169871429Y-119333333D01*
X169966667Y-119380952D01*
X170014286Y-119428571D01*
X170061905Y-119523810D01*
X170061905Y-119761905D01*
X170014286Y-119857143D01*
X169966667Y-119904762D01*
X169871429Y-119952381D01*
X169633333Y-119952381D01*
X169538095Y-119904762D01*
X169490476Y-119857143D01*
X166207144Y-133478571D02*
X165707144Y-132764286D01*
X165350001Y-133478571D02*
X165350001Y-131978571D01*
X165921429Y-131978571D01*
X166064287Y-132050000D01*
X166135715Y-132121429D01*
X166207144Y-132264286D01*
X166207144Y-132478571D01*
X166135715Y-132621429D01*
X166064287Y-132692857D01*
X165921429Y-132764286D01*
X165350001Y-132764286D01*
X166778572Y-133407143D02*
X166992858Y-133478571D01*
X167350001Y-133478571D01*
X167492858Y-133407143D01*
X167564287Y-133335714D01*
X167635715Y-133192857D01*
X167635715Y-133050000D01*
X167564287Y-132907143D01*
X167492858Y-132835714D01*
X167350001Y-132764286D01*
X167064287Y-132692857D01*
X166921429Y-132621429D01*
X166850001Y-132550000D01*
X166778572Y-132407143D01*
X166778572Y-132264286D01*
X166850001Y-132121429D01*
X166921429Y-132050000D01*
X167064287Y-131978571D01*
X167421429Y-131978571D01*
X167635715Y-132050000D01*
X168921429Y-132478571D02*
X168921429Y-133478571D01*
X168564286Y-131907143D02*
X168207143Y-132978571D01*
X169135715Y-132978571D01*
X169921429Y-132621429D02*
X169778571Y-132550000D01*
X169707143Y-132478571D01*
X169635714Y-132335714D01*
X169635714Y-132264286D01*
X169707143Y-132121429D01*
X169778571Y-132050000D01*
X169921429Y-131978571D01*
X170207143Y-131978571D01*
X170350000Y-132050000D01*
X170421429Y-132121429D01*
X170492857Y-132264286D01*
X170492857Y-132335714D01*
X170421429Y-132478571D01*
X170350000Y-132550000D01*
X170207143Y-132621429D01*
X169921429Y-132621429D01*
X169778571Y-132692857D01*
X169707143Y-132764286D01*
X169635714Y-132907143D01*
X169635714Y-133192857D01*
X169707143Y-133335714D01*
X169778571Y-133407143D01*
X169921429Y-133478571D01*
X170207143Y-133478571D01*
X170350000Y-133407143D01*
X170421429Y-133335714D01*
X170492857Y-133192857D01*
X170492857Y-132907143D01*
X170421429Y-132764286D01*
X170350000Y-132692857D01*
X170207143Y-132621429D01*
X171850000Y-131978571D02*
X171135714Y-131978571D01*
X171064285Y-132692857D01*
X171135714Y-132621429D01*
X171278571Y-132550000D01*
X171635714Y-132550000D01*
X171778571Y-132621429D01*
X171850000Y-132692857D01*
X171921428Y-132835714D01*
X171921428Y-133192857D01*
X171850000Y-133335714D01*
X171778571Y-133407143D01*
X171635714Y-133478571D01*
X171278571Y-133478571D01*
X171135714Y-133407143D01*
X171064285Y-133335714D01*
%LPC*%
D15*
X195900000Y-137824860D03*
X195900000Y-143875140D03*
D16*
X194200000Y-110000000D03*
X190200000Y-110000000D03*
X207900000Y-96250000D03*
X211900000Y-96250000D03*
D17*
X216300000Y-86510000D03*
X216300000Y-82510000D03*
X213550000Y-86460000D03*
X213550000Y-82460000D03*
D16*
X204700000Y-96250000D03*
X200700000Y-96250000D03*
D17*
X210800000Y-86460000D03*
X210800000Y-82460000D03*
X208050000Y-86460000D03*
X208050000Y-82460000D03*
X205300000Y-86460000D03*
X205300000Y-82460000D03*
X202550000Y-86460000D03*
X202550000Y-82460000D03*
X199800000Y-86460000D03*
X199800000Y-82460000D03*
D16*
X197160000Y-93500000D03*
X193160000Y-93500000D03*
X197160000Y-96250000D03*
X193160000Y-96250000D03*
X177465000Y-98685000D03*
X173465000Y-98685000D03*
D17*
X242590000Y-94190000D03*
X242590000Y-90190000D03*
D16*
X173465000Y-101435000D03*
X177465000Y-101435000D03*
D17*
X240090000Y-90190000D03*
X240090000Y-94190000D03*
X167215000Y-106185000D03*
X167215000Y-102185000D03*
D16*
X235590000Y-83190000D03*
X239590000Y-83190000D03*
X196250000Y-57950000D03*
X192250000Y-57950000D03*
D17*
X239750000Y-73950000D03*
X239750000Y-69950000D03*
X189250000Y-60450000D03*
X189250000Y-56450000D03*
D16*
X237250000Y-66950000D03*
X241250000Y-66950000D03*
X186000000Y-61200000D03*
X182000000Y-61200000D03*
D17*
X237000000Y-63700000D03*
X237000000Y-59700000D03*
X184750000Y-68450000D03*
X184750000Y-64450000D03*
D16*
X229500000Y-62200000D03*
X233500000Y-62200000D03*
D17*
X194750000Y-68200000D03*
X194750000Y-64200000D03*
X182000000Y-68450000D03*
X182000000Y-64450000D03*
D16*
X229500000Y-72200000D03*
X233500000Y-72200000D03*
X229500000Y-59450000D03*
X233500000Y-59450000D03*
D17*
X191750000Y-72200000D03*
X191750000Y-76200000D03*
D16*
X226000000Y-68450000D03*
X222000000Y-68450000D03*
D17*
X197500000Y-68200000D03*
X197500000Y-64200000D03*
D16*
X229500000Y-74950000D03*
X233500000Y-74950000D03*
X219175000Y-143775000D03*
X223175000Y-143775000D03*
D17*
X179150000Y-129850000D03*
X179150000Y-133850000D03*
X226175000Y-141025000D03*
X226175000Y-145025000D03*
D16*
X181900000Y-136850000D03*
X177900000Y-136850000D03*
X229175000Y-140775000D03*
X233175000Y-140775000D03*
D17*
X182150000Y-139850000D03*
X182150000Y-143850000D03*
X230425000Y-133525000D03*
X230425000Y-137525000D03*
D16*
X189900000Y-140850000D03*
X185900000Y-140850000D03*
D17*
X220925000Y-133025000D03*
X220925000Y-137025000D03*
X233175000Y-133525000D03*
X233175000Y-137525000D03*
D16*
X189650000Y-130850000D03*
X185650000Y-130850000D03*
X189900000Y-143600000D03*
X185900000Y-143600000D03*
D17*
X224425000Y-129525000D03*
X224425000Y-125525000D03*
D16*
X193150000Y-134600000D03*
X197150000Y-134600000D03*
D17*
X218175000Y-133025000D03*
X218175000Y-137025000D03*
D16*
X189650000Y-127850000D03*
X185650000Y-127850000D03*
D18*
X197160000Y-86500000D03*
X197160000Y-90500000D03*
D19*
X188275140Y-74200000D03*
X182224860Y-74200000D03*
D15*
X224000000Y-65475140D03*
X224000000Y-59424860D03*
D19*
X227149860Y-127525000D03*
X233200140Y-127525000D03*
D20*
X177465000Y-95935000D03*
X173465000Y-95935000D03*
X177465000Y-93185000D03*
X173465000Y-93185000D03*
D18*
X245340000Y-94190000D03*
X245340000Y-90190000D03*
X248090000Y-94190000D03*
X248090000Y-90190000D03*
D20*
X196250000Y-55200000D03*
X192250000Y-55200000D03*
D18*
X242500000Y-73950000D03*
X242500000Y-69950000D03*
D20*
X192250000Y-60700000D03*
X196250000Y-60700000D03*
D18*
X237000000Y-69950000D03*
X237000000Y-73950000D03*
X200250000Y-64200000D03*
X200250000Y-68200000D03*
D20*
X233500000Y-77700000D03*
X229500000Y-77700000D03*
X219175000Y-146525000D03*
X223175000Y-146525000D03*
D18*
X176400000Y-129850000D03*
X176400000Y-133850000D03*
D20*
X223175000Y-141025000D03*
X219175000Y-141025000D03*
D18*
X181900000Y-133850000D03*
X181900000Y-129850000D03*
X215425000Y-137025000D03*
X215425000Y-133025000D03*
D20*
X185650000Y-124850000D03*
X189650000Y-124850000D03*
D21*
X208850000Y-100850000D03*
X208350000Y-100850000D03*
X207850000Y-100850000D03*
X207350000Y-100850000D03*
X206850000Y-100850000D03*
X206350000Y-100850000D03*
X205850000Y-100850000D03*
X205350000Y-100850000D03*
X204850000Y-100850000D03*
X204350000Y-100850000D03*
X203850000Y-100850000D03*
X203350000Y-100850000D03*
X202850000Y-100850000D03*
X202350000Y-100850000D03*
X201850000Y-100850000D03*
X201350000Y-100850000D03*
D22*
X199400000Y-102800000D03*
X199400000Y-103300000D03*
X199400000Y-103800000D03*
X199400000Y-104300000D03*
X199400000Y-104800000D03*
X199400000Y-105300000D03*
X199400000Y-105800000D03*
X199400000Y-106300000D03*
X199400000Y-106800000D03*
X199400000Y-107300000D03*
X199400000Y-107800000D03*
X199400000Y-108300000D03*
X199400000Y-108800000D03*
X199400000Y-109300000D03*
X199400000Y-109800000D03*
X199400000Y-110300000D03*
D21*
X201350000Y-112250000D03*
X201850000Y-112250000D03*
X202350000Y-112250000D03*
X202850000Y-112250000D03*
X203350000Y-112250000D03*
X203850000Y-112250000D03*
X204350000Y-112250000D03*
X204850000Y-112250000D03*
X205350000Y-112250000D03*
X205850000Y-112250000D03*
X206350000Y-112250000D03*
X206850000Y-112250000D03*
X207350000Y-112250000D03*
X207850000Y-112250000D03*
X208350000Y-112250000D03*
X208850000Y-112250000D03*
D22*
X210800000Y-110300000D03*
X210800000Y-109800000D03*
X210800000Y-109300000D03*
X210800000Y-108800000D03*
X210800000Y-108300000D03*
X210800000Y-107800000D03*
X210800000Y-107300000D03*
X210800000Y-106800000D03*
X210800000Y-106300000D03*
X210800000Y-105800000D03*
X210800000Y-105300000D03*
X210800000Y-104800000D03*
X210800000Y-104300000D03*
X210800000Y-103800000D03*
X210800000Y-103300000D03*
X210800000Y-102800000D03*
D23*
X189733000Y-116105000D03*
X195067000Y-116105000D03*
X189733000Y-114835000D03*
X189733000Y-113565000D03*
X189733000Y-112295000D03*
X195067000Y-114835000D03*
X195067000Y-113565000D03*
X195067000Y-112295000D03*
D24*
X218700000Y-115975000D03*
X218700000Y-116625000D03*
X218700000Y-115325000D03*
X218700000Y-114675000D03*
X213100000Y-119875000D03*
X213100000Y-120525000D03*
X218700000Y-117275000D03*
X218700000Y-117925000D03*
X213100000Y-119225000D03*
X213100000Y-118575000D03*
X213100000Y-117925000D03*
X213100000Y-117275000D03*
X213100000Y-114675000D03*
X213100000Y-115325000D03*
X213100000Y-115975000D03*
X213100000Y-116625000D03*
X218700000Y-120525000D03*
X218700000Y-119875000D03*
X218700000Y-119225000D03*
X218700000Y-118575000D03*
D25*
X171167500Y-105705000D03*
X170215000Y-105705000D03*
X169262500Y-105705000D03*
X169262500Y-103165000D03*
X170215000Y-103165000D03*
X171167500Y-103165000D03*
D26*
X236570000Y-87392500D03*
X236570000Y-86440000D03*
X236570000Y-85487500D03*
X239110000Y-85487500D03*
X239110000Y-86440000D03*
X239110000Y-87392500D03*
D27*
X191905000Y-69117000D03*
X191905000Y-63783000D03*
X190635000Y-69117000D03*
X189365000Y-69117000D03*
X188095000Y-69117000D03*
X190635000Y-63783000D03*
X189365000Y-63783000D03*
X188095000Y-63783000D03*
D28*
X190000000Y-66450000D03*
D23*
X228833000Y-69355000D03*
X234167000Y-69355000D03*
X228833000Y-68085000D03*
X228833000Y-66815000D03*
X228833000Y-65545000D03*
X234167000Y-68085000D03*
X234167000Y-66815000D03*
X234167000Y-65545000D03*
D29*
X231500000Y-67450000D03*
D27*
X223520000Y-132358000D03*
X223520000Y-137692000D03*
X224790000Y-132358000D03*
X226060000Y-132358000D03*
X227330000Y-132358000D03*
X224790000Y-137692000D03*
X226060000Y-137692000D03*
X227330000Y-137692000D03*
D28*
X225425000Y-135025000D03*
D23*
X190567000Y-133695000D03*
X185233000Y-133695000D03*
X190567000Y-134965000D03*
X190567000Y-136235000D03*
X190567000Y-137505000D03*
X185233000Y-134965000D03*
X185233000Y-136235000D03*
X185233000Y-137505000D03*
D29*
X187900000Y-135600000D03*
D30*
X211199000Y-92250000D03*
X201801000Y-92250000D03*
D31*
X173215000Y-104535000D03*
D32*
X173215000Y-106435000D03*
D31*
X237490000Y-89940000D03*
D33*
X235590000Y-89940000D03*
D34*
X175615000Y-106435000D03*
X180315000Y-106435000D03*
D35*
X234590000Y-92840000D03*
X234590000Y-97540000D03*
D36*
X186750000Y-88350000D03*
X184210000Y-85050000D03*
X189290000Y-85050000D03*
X242600000Y-110550000D03*
X245140000Y-113850000D03*
X240060000Y-113850000D03*
D37*
X209850000Y-63950000D03*
X213150000Y-61410000D03*
X213150000Y-66490000D03*
D36*
X242600000Y-116950000D03*
X245140000Y-120250000D03*
X240060000Y-120250000D03*
X242590000Y-97540000D03*
X245130000Y-100840000D03*
X240050000Y-100840000D03*
D37*
X210050000Y-141350000D03*
X206750000Y-143890000D03*
X206750000Y-138810000D03*
X218350000Y-112550000D03*
X221650000Y-110010000D03*
X218350000Y-107470000D03*
X218350000Y-102390000D03*
X221650000Y-99850000D03*
X221650000Y-104930000D03*
X180815000Y-98435000D03*
X184115000Y-95895000D03*
X184115000Y-100975000D03*
D36*
X196350000Y-120950000D03*
X198890000Y-124250000D03*
X201430000Y-120950000D03*
X206510000Y-120950000D03*
X209050000Y-124250000D03*
X203970000Y-124250000D03*
D37*
X196850000Y-99130000D03*
X193550000Y-101670000D03*
D36*
X174870000Y-113650000D03*
X172330000Y-110350000D03*
D38*
X171200000Y-58990000D03*
X171200000Y-66610000D03*
D17*
X215400000Y-102600000D03*
X215400000Y-98600000D03*
D36*
X242640000Y-104040000D03*
X245180000Y-107340000D03*
X240100000Y-107340000D03*
D18*
X186750000Y-83450000D03*
X186750000Y-79450000D03*
D20*
X214500000Y-63950000D03*
X218500000Y-63950000D03*
D18*
X180750000Y-89450000D03*
X180750000Y-85450000D03*
D20*
X209250000Y-57700000D03*
X213250000Y-57700000D03*
D18*
X229300000Y-118150000D03*
X229300000Y-122150000D03*
D20*
X204900000Y-141350000D03*
X200900000Y-141350000D03*
D18*
X235050000Y-112900000D03*
X235050000Y-116900000D03*
D20*
X211150000Y-146850000D03*
X207150000Y-146850000D03*
D39*
X180800000Y-82201140D03*
X182700000Y-82201140D03*
X181750000Y-79198860D03*
D40*
X216248860Y-57500000D03*
X216248860Y-59400000D03*
X219251140Y-58450000D03*
D39*
X235000000Y-119648860D03*
X233100000Y-119648860D03*
X234050000Y-122651140D03*
D40*
X203901140Y-146550000D03*
X203901140Y-144650000D03*
X200898860Y-145600000D03*
D36*
X201200000Y-116150000D03*
X203740000Y-119450000D03*
X198660000Y-119450000D03*
D20*
X166800000Y-121800000D03*
X170800000Y-121800000D03*
D37*
X166750000Y-127600000D03*
X170050000Y-125060000D03*
X170050000Y-130140000D03*
D41*
X174000000Y-86000000D03*
X245200000Y-57600000D03*
X243400000Y-143800000D03*
X170000000Y-143800000D03*
M02*
